<svg viewBox="0 0 24 24" focusable="false" width="24" height="24" aria-hidden="true" class="svg-icon" xmlns="http://www.w3.org/2000/svg"><path fill-rule="evenodd" clip-rule="evenodd" d="M13.7373 16h-1.6299l-.5195-1.7002H8.9873L8.4678 16h-1.63l2.5196-7.17h1.8506L13.7373 16zm-4.3701-2.9697h1.8603c-.3208-1.0253-.6796-2.0469-.9404-3.0899-.2605 1.0418-.6043 2.0641-.92 3.0899z"></path><path d="M16.2617 16H14.752V8.8604h1.5097V16zM18 2s.5837 1.7497 1.167 2.333C19.75 4.916 21.5 5.5 21.5 5.5s-1.7498.5838-2.333 1.167C18.5838 7.25 18 9 18 9s-.5838-1.7499-1.167-2.333C16.2497 6.0837 14.5 5.5 14.5 5.5s1.7497-.5837 2.333-1.167C17.4163 3.7497 18 2 18 2z"></path><path d="M14 4H6c-1.1046 0-2 .8954-2 2v12c0 1.1046.8954 2 2 2h12c1.1046 0 2-.8954 2-2v-6h2v6c0 2.2091-1.7909 4-4 4H6c-2.2091 0-4-1.7909-4-4V6c0-2.2091 1.7909-4 4-4h8v2z"></path><path d="M21 7s.3337.9997.667 1.333C22.0002 8.6662 23 9 23 9s-.9998.3338-1.333.667C21.3338 10.0002 21 11 21 11s-.3338-.9998-.667-1.333C19.9997 9.3337 19 9 19 9s.9998-.3338 1.333-.667C20.6663 7.9997 21 7 21 7z"></path></svg>