<svg viewBox="0 0 24 24" focusable="false" width="24" height="24" aria-hidden="true" class="svg-icon" xmlns="http://www.w3.org/2000/svg"><path fill-rule="evenodd" clip-rule="evenodd" d="m11.2933 16.5964 4.9498-4.9498c1.9526-1.9526 1.9526-5.1184 0-7.071l-3.1816-3.1822L9.5259 4.929l3.1819 3.182-4.9497 4.9498c-1.9526 1.9526-1.9526 5.1184 0 7.071l2.4749 2.4749 3.5357-3.5356-2.4754-2.4747zm-1.0604 1.7679-.3538-.3537c-.781-.7811-.781-2.0474 0-2.8285l4.9497-4.9497c1.1716-1.1716 1.1716-3.071 0-4.2427l-1.0605-1.0605-.7069.707 1.0606 1.0606c.7811.781.7811 2.0474 0 2.8284L9.1723 14.475c-1.1716 1.1716-1.1716 3.071 0 4.2426l.3537.3537.7069-.707z"></path></svg>