<svg viewBox="0 0 24 24" focusable="false" width="24" height="24" aria-hidden="true" class="svg-icon" xmlns="http://www.w3.org/2000/svg"><path fill-rule="evenodd" clip-rule="evenodd" d="M6.0424 9.5C5.5914 5.4074 8.8152 3 12 3s6.4085 2.4074 5.9576 6.5c-.2255 2.0463-1.6849 4.4087-2.8831 5.8105-.9035 1.0571-2.8882 2.9709-2.8882 2.9709L13.9859 21h-3.9718l1.7997-2.7186s-1.9847-1.9138-2.8883-2.9709C7.7274 13.9087 6.2679 11.5463 6.0424 9.5zM12 5C9.8773 5 7.7209 6.7102 8.0283 9.5c.2607 2.3662 2.3168 4.4257 3.9717 6 1.655-1.5743 3.711-3.6338 3.9717-6C16.2791 6.7102 14.1226 5 12 5z"></path></svg>