<svg viewBox="0 0 24 24" focusable="false" width="24" height="24" aria-hidden="true" class="svg-icon" xmlns="http://www.w3.org/2000/svg"><path fill-rule="evenodd" clip-rule="evenodd" d="m21.9203 21.9203-1.4142 1.4142-5.0202-5.0201c-.1589 1.7857-1.659 3.1856-3.4861 3.1856-1.933 0-3.5-1.567-3.5-3.5H5.8665c-2.5084 0-3.9092-2.8954-2.3522-4.8621l1.528-1.9301a.571.571 0 0 0 .1233-.3543V8.8361c0-.2693.0156-.535.0458-.7962L.7072 3.5355l1.4142-1.4142 19.799 19.799zM7.1656 10.8535V9.994L13.1716 16H5.8665c-.8362 0-1.303-.9651-.784-1.6207l1.528-1.9301a2.5709 2.5709 0 0 0 .555-1.5957zM10.4998 18c0 .8284.6716 1.5 1.5 1.5.8285 0 1.5-.6716 1.5-1.5h-3z"></path><path d="M20.1018 17.2734c1.129-.9863 1.4594-2.7811.3872-4.1355l-1.528-1.9301a.5706.5706 0 0 1-.1233-.3543V8.8361C18.8377 5.0606 15.7771 2 12.0017 2c-1.9735 0-3.7517.8363-4.9995 2.1738l1.4154 1.4154C9.3024 4.613 10.5804 4 12.0017 4c2.6708 0 4.836 2.1652 4.836 4.836v2.0175c0 .5793.1956 1.1415.5552 1.5957l1.528 1.9301c.3923.4955.2213 1.1678-.2466 1.4666l1.4275 1.4275z"></path></svg>