<svg viewBox="0 0 24 24" focusable="false" width="24" height="24" aria-hidden="true" class="svg-icon" xmlns="http://www.w3.org/2000/svg"><path d="M11 6V2h2v4h-2z"></path><path fill-rule="evenodd" clip-rule="evenodd" d="M8 12c0-2.2091 1.7909-4 4-4 2.2091 0 4 1.7909 4 4 0 2.2091-1.7909 4-4 4-2.2091 0-4-1.7909-4-4zm4-2c-1.1046 0-2 .8954-2 2s.8954 2 2 2 2-.8954 2-2-.8954-2-2-2z"></path><path d="M11 18v4h2v-4h-2zm-5-5H2v-2h4v2zm12 0h4v-2h-4v2zm-2.707-5.7073 3-3 1.4142 1.4142-3 3-1.4142-1.4142zm-8 8-3 3 1.4142 1.4142 3-3-1.4142-1.4142zm0-6.5857-3-3 1.4142-1.4143 3 3L7.293 8.707zm8 7.9999 3 3 1.4142-1.4142-3-3-1.4142 1.4142z"></path></svg>