<svg viewBox="0 0 24 24" focusable="false" width="24" height="24" aria-hidden="true" class="svg-icon" xmlns="http://www.w3.org/2000/svg"><path d="M15.2639 20.1183 22.5 16.5002l-2.2319-1.1159-5.0042 2.502-5.0041-2.502-2.232 1.1159 7.2361 3.6181z"></path><path d="m15.2639 15.6505 7.2361-3.618-2.2314-1.1158-5.0047 2.5024-5.0046-2.5024-2.2314 1.1158 7.236 3.618z"></path><path fill-rule="evenodd" clip-rule="evenodd" d="m22.5 7.5633-7.2361 3.6181-7.236-3.618 7.236-3.618L22.5 7.5633zm-4.4721 0-2.764-1.382L12.5 7.5634l2.7639 1.382 2.764-1.382z"></path><path d="M3 10.0635v6h2v-6h2l-3-3-3 3h2z"></path></svg>