<svg viewBox="0 0 24 24" focusable="false" width="24" height="24" aria-hidden="true" class="svg-icon" xmlns="http://www.w3.org/2000/svg"><path d="M14.75 10c-.6904 0-1.25-.5596-1.25-1.25s.5596-1.25 1.25-1.25S16 8.0596 16 8.75 15.4404 10 14.75 10zM10.5 9 7 14l9.7188-.0001-1.9844-2.8349-1.3594 1.9421L10.5 9z"></path><path fill-rule="evenodd" clip-rule="evenodd" d="M13 4h7v11.5h2v2h-5.4378l2.0769 4.5h-2.2028l-2.0769-4.5H9.6407L7.563 22.0014H5.3604L7.4379 17.5H2v-2h2V4h7V2h2v2zm5 11.5H6V6h12v9.5z"></path></svg>