<svg viewBox="0 0 24 24" focusable="false" width="24" height="24" aria-hidden="true" class="svg-icon" xmlns="http://www.w3.org/2000/svg"><path fill-rule="evenodd" clip-rule="evenodd" d="M5.7192 2h12.5616l-1.5 6H7.2192l-1.5-6zm2.5616 2 .5 2h6.4384l.5-2H8.2808z"></path><path d="M14 17c0 .5523-.8954 1-2 1s-2-.4477-2-1 .8954-1 2-1 2 .4477 2 1z"></path><path fill-rule="evenodd" clip-rule="evenodd" d="M12 12c-2.0748 0-4.0023.4784-5.4459 1.3033C5.1388 14.1121 4 15.3817 4 17s1.1388 2.8879 2.5541 3.6967C7.9977 21.5216 9.9252 22 12 22c2.0748 0 4.0023-.4784 5.4459-1.3033C18.8612 19.8879 20 18.6183 20 17s-1.1388-2.8879-2.5541-3.6967C16.0023 12.4784 14.0748 12 12 12zm-6 5c0-.5908.4282-1.3212 1.5464-1.9602C8.6364 14.417 10.2088 14 12 14s3.3637.417 4.4536 1.0398C17.5718 15.6788 18 16.4092 18 17s-.4282 1.3212-1.5464 1.9602C15.3637 19.583 13.7912 20 12 20s-3.3637-.417-4.4536-1.0398C6.4282 18.3212 6 17.5908 6 17z"></path></svg>