<svg viewBox="0 0 24 24" focusable="false" width="24" height="24" aria-hidden="true" class="svg-icon" xmlns="http://www.w3.org/2000/svg"><path fill-rule="evenodd" clip-rule="evenodd" d="M6.3358 3.0851c3.6226-1.427 7.7057-1.427 11.3284 0 1.0076.397 1.4727 1.42 1.3008 2.364l-.4541 2.494C18.2995 9.1044 17.1476 9.8762 16 9.8185V14h1.6121v2H16l1.6121 5H14v-5h-4v5H6.1837L8 16H6.3879v-2H8V9.8185c-1.1476.0577-2.2995-.714-2.511-1.8754l-.454-2.494c-.1719-.944.2932-1.967 1.3008-2.364zM7.097 4.941c-.0362.0142-.0713.0553-.0528.157l.454 2.4939c.0241.1323.166.2506.3428.2269C8.9085 7.6752 10.511 7.5 12 7.5c1.4889 0 3.0915.1752 4.1591.3187.1768.0237.3187-.0946.3428-.2269l.454-2.494c.0186-.1016-.0166-.1427-.0528-.157-3.1373-1.2358-6.6689-1.2358-9.8062 0zM10 14h.9796V9.5268c-.3435.017-.646.041-.9796.0695V14zm3.0204 0H14V9.5963c-.3336-.0284-.6361-.0525-.9796-.0695V14z"></path></svg>