<svg viewBox="0 0 24 24" focusable="false" width="24" height="24" aria-hidden="true" class="svg-icon" xmlns="http://www.w3.org/2000/svg"><path d="M12 11c1.1046 0 2 .8954 2 2 0 .7398-.4029 1.3835-1 1.7295V17.5c0 .5523-.4477 1-1 1s-1-.4477-1-1v-2.7705c-.5971-.346-1-.9897-1-1.7295 0-1.1046.8954-2 2-2z"></path><path fill-rule="evenodd" clip-rule="evenodd" d="M18 2c2.2091 0 4 1.7909 4 4v12c0 2.2091-1.7909 4-4 4H6c-2.2091 0-4-1.7909-4-4V6c0-2.2091 1.7909-4 4-4h12zM4 18c0 1.1046.8954 2 2 2h12c1.1046 0 2-.8954 2-2V9H4v9zM6 4c-1.1046 0-2 .8954-2 2v1h16V6c0-1.1046-.8954-2-2-2H6z"></path></svg>