<svg viewBox="0 0 24 24" focusable="false" width="24" height="24" aria-hidden="true" class="svg-icon" xmlns="http://www.w3.org/2000/svg"><path d="M17.9873 10.7948 19.0144 11l.1439-.7311-.7397-1.4243-.8598.5426.4285 1.4076zm.3427 2.9121.9053-.1375.2629-1.2759-.6385-.1314-.7699.5066.2402 1.0382zm-.8214 2.0929.9477.1894.1328-.6745-.2677-.6334-.9466.2255.1338.893z"></path><path fill-rule="evenodd" clip-rule="evenodd" d="M12.0084 2c-2.737 0-5.2214.9527-7.0392 2.7087C3.1476 6.4683 2.0535 8.9786 2 11.9822c-.051 2.8663.906 5.4039 2.6914 7.2187 1.7877 1.8171 4.336 2.8384 7.3301 2.799 6.0834-.08 9.9969-4.6634 9.9783-10.0034C21.981 6.5459 17.5772 2 12.0084 2zM4.0008 12.0603c-.0324 2.3754.7607 4.3586 2.1183 5.7386 1.3633 1.3858 3.3656 2.2342 5.8761 2.2012 4.9259-.0648 8.018-3.6931 8.0031-7.9967-.006-1.7169-.554-3.3187-1.4859-4.6314-1.732-2.2873-3.8254-2.872-6.504-2.872-3.7462 0-7.0263 3.7912-5.9274 7.4822.7413 2.4898 3.2674 4.3632 5.9406 3.9707 2.1303-.3128 3.4898-2.1329 3.4898-3.9529 0-1.7054-1.2937-2.5055-2.5021-2.5-1.2085.0055-1.7858.5684-2.0017 1-.5005 1 .5729 2.0507 2.5021 1.5-.7119 3.5564-6.0839 1.5889-5.887-1.5274C7.7524 8.4229 9.6047 6.5 12.0085 6.5c3.0026 0 5.5047 2.5 5.5047 5.5 0 2.8102-2.3188 5.6205-5.4915 5.9647-3.7186.4035-7.3359-2.2183-8.0208-5.9044zm.6778-.759-1.1996-.3952-.2949-.6428.8176-.7633.6769.2254v1.5759zM12.0085 8l.6527.6417 1.4273-.1929-.2773-.5894-1.1148-.6737L12.0085 8zm-.475.6873-.8307.6375-.696-.8248.4912-.9325.7081.2336.3274.8862zM5.0025 6l.953.6473 1.0488-.8276V5L5.86 4.8089 5.0026 6zm4.9983 5.2879L9.0058 12l-.513-1.4555.868-1.1517.6275.446.0125 1.4491zM4.5271 7.0254l-.8807.983.5127.4586.6817.0934.5231-1.1938-.8368-.3412z"></path></svg>