<svg viewBox="0 0 24 24" focusable="false" width="24" height="24" aria-hidden="true" class="svg-icon" xmlns="http://www.w3.org/2000/svg"><path fill-rule="evenodd" clip-rule="evenodd" d="m1.7905 1.791 20.1296 20.1296-1.414 1.4141-1.5052-1.5052a3.008 3.008 0 0 1-1.8304-1.8304l-1.1704-1.1704v1.1712h-15v-16h.1712l-.7948-.7948 1.414-1.414zM5.1713 8l-2-2h-.1712v2h2.1712zm4 3.9999-2-2H3.0001v8h3v-6h3.1712zm2.8288 6v-3.1712l2 2v1.1712h-2zm-2-4h-2v4h2v-4z"></path><path d="m6.8279 4 2 2H19v2h-8.1722l2 2H19v3.1706a3.01 3.01 0 0 0-1.6253 1.3763L19 16.1721v-.1722c0-.5523.4477-1 1-1s1 .4477 1 1v2.1722l1.8289 1.8289A2.995 2.995 0 0 0 23 18.9999v-3c0-1.3062-.8348-2.4174-2-2.8293V3.9999H6.8279z"></path><path d="M16.0001 13.1721v-1.1722h-1.1722l1.1722 1.1722z"></path></svg>