<svg viewBox="0 0 24 24" focusable="false" width="24" height="24" aria-hidden="true" class="svg-icon" xmlns="http://www.w3.org/2000/svg"><path fill-rule="evenodd" clip-rule="evenodd" d="M10.5 5.5c0-.5552.0257-.8783.161-1.0947C10.7259 4.3016 10.9517 4 12 4c1.0516 0 1.2764.3021 1.3403.4046.1349.216.1597.538.1597 1.0954l.0007.5H10.5v-.5zM12 2c-1.4498 0-2.474.4484-3.0346 1.3447-.1326.212-.2276.4346-.2955.6553H4v18h6v-2H6V6h2.5v2h7.0033l-.0026-2H18v3.5h2V4h-4.6687c-.0676-.2204-.1622-.4428-.2944-.6545C14.4765 2.4478 13.4513 2 12 2zm6.3245 9.5798 4.0947 4.0975-6.4193 6.3259H12v-3.9958l6.3245-6.4276zm.011 2.8404L14 18.8264v1.1768h1.18l4.4008-4.3368-1.2453-1.2462z"></path></svg>