<svg viewBox="0 0 24 24" focusable="false" width="24" height="24" aria-hidden="true" class="svg-icon" xmlns="http://www.w3.org/2000/svg"><path fill-rule="evenodd" clip-rule="evenodd" d="M10.4971 6v-.4985c.0016-.5572.0268-.8796.1624-1.0967.0646-.1033.2894-.4048 1.3376-.4048s1.2753.3017 1.3407.406c.1355.2162.1618.5396.1612 1.093V6h-3.0019zm1.5-4c-1.4499 0-2.4736.4485-3.0338 1.3451-.1324.212-.2271.4344-.295.6549H4v18h16V4h-4.671c-.0682-.221-.1634-.4437-.2965-.656C14.4712 2.4483 13.4469 2 11.9971 2zm3.5019 4v2H8.497V6H6v14h12V6h-2.501z"></path></svg>