<svg viewBox="0 0 24 24" focusable="false" width="24" height="24" aria-hidden="true" class="svg-icon" xmlns="http://www.w3.org/2000/svg"><path fill-rule="evenodd" clip-rule="evenodd" d="M19.9969 12c0 4.4187-3.5821 8.0008-8.0008 8.0008-4.4187 0-8.0008-3.5821-8.0008-8.0008 0-4.4187 3.582-8.0008 8.0008-8.0008 4.4187 0 8.0008 3.582 8.0008 8.0008zm1.9992 0c0 5.5228-4.4772 10-10 10-5.5229 0-10-4.4772-10-10 0-5.5229 4.4771-10 10-10 5.5228 0 10 4.4771 10 10zM10.9926 6.0062v5.8154L7.3102 15.273l1.3671 1.4587 3.9985-3.7476.316-.2962V6.0063h-1.9992z"></path></svg>