<svg viewBox="0 0 24 24" focusable="false" width="24" height="24" aria-hidden="true" class="svg-icon" xmlns="http://www.w3.org/2000/svg"><path fill-rule="evenodd" clip-rule="evenodd" d="M18.3731 9.123C17.4933 6.2151 15.0361 4 12 4 8.964 4 6.5067 6.2152 5.627 9.123 3.5286 9.752 2 11.6967 2 14c0 2.8117 2.2792 5.0909 5.091 5.0909h9.8181C19.7208 19.0909 22 16.8117 22 14c0-2.3032-1.5287-4.2479-3.6269-4.877zM12 6c2.1197 0 4.0393 1.6839 4.581 4.1729l.1452.6673.6745.1076C18.8739 11.1826 20 12.4608 20 14c0 1.7071-1.3838 3.0909-3.0909 3.0909H7.0909C5.384 17.0909 4 15.7071 4 14c0-1.5392 1.126-2.8174 2.5993-3.0522l.6745-.1076.1453-.6673C7.9607 7.6839 9.8803 6 12 6z"></path></svg>