<svg viewBox="0 0 24 24" focusable="false" width="24" height="24" aria-hidden="true" class="svg-icon" xmlns="http://www.w3.org/2000/svg"><path d="M11.5023 9.045c0-.5524.4477-1 1-1s1 .4476 1 1c0 .5522-.4477.9999-1 .9999s-1-.4477-1-1zm-3 0c0-.5524.4477-1 1-1s1 .4476 1 1c0 .5522-.4477.9999-1 .9999s-1-.4477-1-1zm1.5 2.955c0-.5523.4477-1 1-1s1 .4477 1 1-.4477 1-1 1-1-.4477-1-1z"></path><path fill-rule="evenodd" clip-rule="evenodd" d="M3.85 4.002h14.306l-.2857 2h.133c2.2091 0 4 1.7908 4 4 0 2.2091-1.7909 4-4 4h-1.2759l-.8571 6H6.1357l-2.2857-16zm13.1631 8 .5715-4h.4187c1.1046 0 2 .8954 2 2 0 1.1045-.8954 2-2 2h-.9902zm-10.8571-6 1.7143 12h6.2654l1.7143-12H6.156z"></path></svg>