<svg viewBox="0 0 24 24" focusable="false" width="24" height="24" aria-hidden="true" class="svg-icon" xmlns="http://www.w3.org/2000/svg"><path d="m8.9375 10.5947-1.959-.4023.252-1.6719a2.6928 2.6928 0 0 0-.669.167C5.6621 9.0421 5 9.9023 5 10.8848c0 .9831.6619 1.8414 1.5615 2.1963.5102.2011 1.044.1884 1.8828.1884h1v1c0 .8072-.012 1.2837.1875 1.7422C10.0342 16.9363 11.007 17.5 12 17.5c.9931 0 1.9658-.5637 2.3682-1.4883.1995-.4585.1875-.935.1875-1.7422v-1h1c.8389 0 1.3726.0127 1.8828-.1884.8996-.3549 1.5614-1.2132 1.5615-2.1963 0-.9786-.6618-1.8425-1.5615-2.1973a2.6933 2.6933 0 0 0-.6699-.167l.2529 1.6719-1.959.4023L14.0654 4h2.0205l.377 2.5a4.7125 4.7125 0 0 1 1.709.3271C19.8318 7.4817 21 9.0922 21 10.8849c-.0001 1.7924-1.1685 3.4022-2.8281 4.0566-.5535.2183-1.1184.2918-1.6319.3164-.0288.4869-.1088 1.0252-.3379 1.5518C15.4832 18.4619 13.7817 19.5 12 19.5c-1.7824 0-3.485-1.0423-4.2021-2.6904-.2292-.5266-.31-1.0649-.339-1.5518-.513-.0246-1.0776-.0983-1.6308-.3164C4.172 14.2883 3.0001 12.6813 3 10.8848c0-1.7967 1.1718-3.4046 2.8281-4.0577A4.7124 4.7124 0 0 1 7.5361 6.5l.378-2.5h2.0205l-.9971 6.5947z"></path><path d="M13 10.5h-2V4h2v6.5z"></path></svg>