<svg viewBox="0 0 24 24" focusable="false" width="24" height="24" aria-hidden="true" class="svg-icon" xmlns="http://www.w3.org/2000/svg"><path fill-rule="evenodd" clip-rule="evenodd" d="M15.8401 21.5722c-.5183-.2736-.6867-.9324-.3995-1.4432 1.3421-2.3869 2.1075-5.1414 2.1075-8.0747 0-2.9761-.7879-5.7682-2.1666-8.179-.292-.5108-.1256-1.1738.3945-1.449.4554-.241 1.022-.0957 1.2808.3498 1.5842 2.7275 2.4913 5.8969 2.4913 9.2782 0 3.3332-.8815 6.4606-2.4242 9.1616-.2567.4495-.826.5979-1.2838.3563zm-3.5325-1.8644c.4486.2368 1.007.0986 1.2632-.3392 1.2569-2.1472 1.9773-4.6467 1.9773-7.3143 0-2.7149-.7461-5.2555-2.0444-7.428-.2586-.4326-.8135-.5671-1.2591-.3313-.5292.28-.6882.9607-.3869 1.478 1.0748 1.8457 1.6904 3.9916 1.6904 6.2813 0 2.2491-.594 4.3594-1.6337 6.1827-.295.5175-.1335 1.1928.3932 1.4708zM8.7178 6.1612c.4271-.226.9596-.11 1.2174.2987 1.0217 1.6196 1.6129 3.538 1.6129 5.5944 0 2.0095-.5645 3.8873-1.5437 5.4832-.255.4157-.7926.5364-1.224.3088-.542-.2862-.6889-.9931-.3805-1.5229.73-1.2546 1.1482-2.713 1.1482-4.2691 0-1.5939-.4387-3.0852-1.2019-4.36-.317-.5297-.174-1.2444.3716-1.5331zm-3.4437 9.8345c.386.2037.8678.1201 1.1168-.2385.7296-1.0507 1.1572-2.3269 1.1572-3.7029 0-1.4247-.4583-2.7422-1.2355-3.8133-.2516-.3468-.7239-.424-1.1025-.2237-.583.3085-.6736 1.1187-.3277 1.6803a4.479 4.479 0 0 1 .6657 2.3567 4.4789 4.4789 0 0 1-.619 2.2791c-.331.5625-.2322 1.3576.345 1.6623z"></path></svg>