<svg viewBox="0 0 24 24" focusable="false" width="24" height="24" aria-hidden="true" class="svg-icon" xmlns="http://www.w3.org/2000/svg"><path fill-rule="evenodd" clip-rule="evenodd" d="M2.9092 10.8672c.549-.5099 1.3231-.7921 2.1592-.6289C8.2834 10.9673 9.9999 13.8396 10 17v5H8v-5c0-1.035-.1858-1.8768-.498-2.5488-.0233 1.2739-.4613 2.5751-1.3223 3.4277-.5816.5758-1.3602.9134-2.1797.8936V22H2v-9.0029c.0002-.8213.3379-1.5992.9092-2.1299zm2.1797 2.0488c-.3617-.4061-1.0883-.6456-1.0889.0811v3.7724c.2982.0219.5605-.1017.7725-.3115.7594-.752 1.0848-2.6775.3164-3.542z"></path><path d="m22 17-4.2422 4.3076-1.415-1.4355 1.8291-1.8565H12v-2.0312h6.1719l-1.8291-1.8565 1.415-1.4355L22 17zM4 9H2V2h2v7zm4.5 0h-2V2h2v7zM13 9h-2V2h2v7zm4.5 0h-2V2h2v7zM22 9h-2V2h2v7z"></path></svg>