<svg viewBox="0 0 24 24" focusable="false" width="24" height="24" aria-hidden="true" class="svg-icon" xmlns="http://www.w3.org/2000/svg"><path d="M12 2c5.5228 0 10 4.4771 10 10h-1.999c0-4.4187-3.5823-8.001-8.001-8.001-4.4187 0-8.001 3.5823-8.001 8.001 0 4.4187 3.5823 8.001 8.001 8.001a8.0134 8.0134 0 0 0 2.0039-.2539v2.0517A10.0448 10.0448 0 0 1 12 22C6.4771 22 2 17.5228 2 12 2 6.4771 6.4771 2 12 2z"></path><path d="M17.7363 16.2881c.416-.6719 1.0957-.9599 1.8955-.96 1.4696 0 2.3524.9479 2.3526 2.3994V22h-1.7881v-3.8281c0-.9439-.3527-1.416-1.0567-1.416-.5358 0-.9072.1885-1.1152.5644-.2.368-.3008.8998-.3008 1.5957V22h-1.7881v-9.1201h1.7881c0 .2342.0127 3.4082.0127 3.4082zm-4.7402-3.6006-4.3145 4.0439-1.3671-1.458 3.6816-3.4521V6.0059h2v6.6816z"></path></svg>