<svg viewBox="0 0 24 24" focusable="false" width="24" height="24" aria-hidden="true" class="svg-icon" xmlns="http://www.w3.org/2000/svg"><path fill-rule="evenodd" clip-rule="evenodd" d="M1 4h15v3h3.0246l3.9793 5.6848V18h-2.6567c-.4218 1.3056-1.6473 2.25-3.0933 2.25-1.446 0-2.6715-.9444-3.0932-2.25h-3.9044c-.4217 1.3056-1.6472 2.25-3.0932 2.25S4.4916 19.3056 4.0698 18H1V4zm3.0698 12c.4218-1.3056 1.6473-2.25 3.0933-2.25 1.446 0 2.6715.9444 3.0932 2.25H14V6H3v10h1.0698zM16 14.0007a3.24 3.24 0 0 1 1.2539-.2507c1.446 0 2.6715.9444 3.0933 2.25h.6567v-2.6848L17.9833 9H16v5.0007zM7.163 15.75c-.6903 0-1.25.5596-1.25 1.25s.5597 1.25 1.25 1.25c.6904 0 1.25-.5596 1.25-1.25s-.5596-1.25-1.25-1.25zm10.0909 0c-.6904 0-1.25.5596-1.25 1.25s.5596 1.25 1.25 1.25 1.25-.5596 1.25-1.25-.5596-1.25-1.25-1.25z"></path></svg>