<svg viewBox="0 0 24 24" focusable="false" width="24" height="24" aria-hidden="true" class="svg-icon" xmlns="http://www.w3.org/2000/svg"><path d="M11 16h2V8h-2v8zm4.25-2.75c.6904 0 1.25-.5596 1.25-1.25s-.5596-1.25-1.25-1.25S14 11.3096 14 12s.5596 1.25 1.25 1.25zM10 12c0 .6904-.5596 1.25-1.25 1.25S7.5 12.6904 7.5 12s.5596-1.25 1.25-1.25S10 11.3096 10 12z"></path><path fill-rule="evenodd" clip-rule="evenodd" d="M23 13.0533 11.9467 2l-8.289 1.6578L2 11.9467 13.0533 23 23 13.0533zM4.1206 11.3047 5.318 5.3179l5.9867-1.1973 8.9326 8.9327-7.184 7.184-8.9327-8.9326z"></path></svg>