<svg viewBox="0 0 24 24" focusable="false" width="24" height="24" aria-hidden="true" class="svg-icon" xmlns="http://www.w3.org/2000/svg"><path d="M22.0146 18.707 19.7216 21l-15.4263.0016-2.293-2.2929 1.4141-1.4141 1.707 1.707L18.8936 19l1.707-1.707 1.4141 1.414zM8.6142 16H6.4628l7.2793-13h2.1514L8.6142 16zm7.5185-7.9746c.7962 0 1.4334.1938 1.9112.582.4901.3762.7352.9227.7353 1.6387 0 .5461-.1528 1.0441-.459 1.4932-.3063.4491-.8218.9953-1.5449 1.6386l-.9375.8379h3.1621V16h-5.8086v-1.4932l2.0039-1.9482c.5513-.5339.9251-.9406 1.1211-1.2197.2083-.2913.3125-.5947.3125-.9102 0-.2184-.0737-.3884-.2207-.5097-.1348-.1214-.3252-.1827-.5703-.1827-.4778.0001-1.0169.2615-1.6172.7832l-1.1035-1.3476a5.0206 5.0206 0 0 1 1.3057-.8194c.4901-.2184 1.0605-.3271 1.7099-.3271zM8.412 10.793H6.2792V6.2041c.0123-.2546.0249-.4971.0371-.7275.0123-.2428.024-.4073.0362-.4922-.0735.097-.1832.2187-.3301.3642-.1348.1335-.2516.2432-.3496.3282l-.6983.5459L4 5.0937 6.7021 3h1.71v7.793z"></path></svg>