<svg viewBox="0 0 24 24" focusable="false" width="24" height="24" aria-hidden="true" class="svg-icon" xmlns="http://www.w3.org/2000/svg"><path fill-rule="evenodd" clip-rule="evenodd" d="M16.041 13.5a2.7506 2.7506 0 0 1 1.291.3418 2.7525 2.7525 0 0 1 1.4121 2.1748c.0166.195.0102.3903-.0146.583 1.1663.3186 2.0244 1.383 2.0244 2.6504 0 1.5188-1.2312 2.75-2.75 2.75-.7892 0-1.4985-.3347-2-.8672-.5015.5325-1.2108.8672-2 .8672-.7892 0-1.4985-.3347-2-.8672-.5015.5325-1.2108.8672-2 .8672-.7892 0-1.4985-.3347-2-.8672-.5015.5325-1.2108.8672-2 .8672-1.5188 0-2.75-1.2312-2.75-2.75 0-1.2666.8572-2.3302 2.0225-2.6494a2.7477 2.7477 0 0 1-.0059-.6563A2.7513 2.7513 0 0 1 8.041 13.5a2.7508 2.7508 0 0 1 1.291.3418c.2505.1382.4769.3147.6719.5215a2.7509 2.7509 0 0 1 .7363-.5557A2.7525 2.7525 0 0 1 12.041 13.5a2.7506 2.7506 0 0 1 1.291.3418c.2505.1382.4769.3147.6719.5215a2.7509 2.7509 0 0 1 .7363-.5557A2.7525 2.7525 0 0 1 16.041 13.5zM6.004 18c-.6904 0-1.25.5596-1.25 1.25s.5596 1.25 1.25 1.25c.6903 0 1.25-.5596 1.25-1.25S6.6942 18 6.004 18zm3.9999 0c-.6904 0-1.25.5596-1.25 1.25s.5596 1.25 1.25 1.25 1.25-.5596 1.25-1.25-.5596-1.25-1.25-1.25zm4 0c-.6904 0-1.25.5596-1.25 1.25s.5596 1.25 1.25 1.25 1.25-.5596 1.25-1.25-.5596-1.25-1.25-1.25zm4 0c-.6904 0-1.25.5596-1.25 1.25s.5596 1.25 1.25 1.25 1.25-.5596 1.25-1.25-.5596-1.25-1.25-1.25zm-9.9834-3a1.2512 1.2512 0 0 0-1.0469.542 1.2518 1.2518 0 0 0-.2119.5693 1.248 1.248 0 0 0 .0508.5098c.4611.1416.8688.4027 1.1914.7451.3226-.3424.7303-.6035 1.1914-.7451a1.2518 1.2518 0 0 0 .0537-.4766 1.2518 1.2518 0 0 0-.1963-.5752A1.2525 1.2525 0 0 0 8.0205 15zm4 0a1.2512 1.2512 0 0 0-1.0469.542 1.2527 1.2527 0 0 0-.2119.5693 1.2491 1.2491 0 0 0 .0508.5098c.4611.1416.8688.4027 1.1914.7451.3226-.3424.7303-.6035 1.1914-.7451a1.2512 1.2512 0 0 0 .0537-.4766 1.2517 1.2517 0 0 0-.1963-.5752A1.2522 1.2522 0 0 0 12.0205 15zm4 0a1.2512 1.2512 0 0 0-1.0469.542 1.2527 1.2527 0 0 0-.2119.5693 1.2491 1.2491 0 0 0 .0508.5098c.4611.1416.8688.4027 1.1914.7451.3226-.3424.7303-.6035 1.1914-.7451a1.2512 1.2512 0 0 0 .0537-.4766 1.2517 1.2517 0 0 0-.1963-.5752A1.2522 1.2522 0 0 0 16.0205 15z"></path><path d="M8.6855 3c-.4321.743-.5905 1.3562-.625 1.8857-.0494.7628.1437 1.4568.3995 2.334.244.8367.5511 1.8579.4755 3.0235-.037.5696-.1638 1.1515-.4023 1.7568H6.3135c.4322-.743.5915-1.3561.626-1.8857.0494-.7628-.1437-1.4568-.3995-2.334-.244-.8367-.5511-1.8579-.4756-3.0235.037-.5696.163-1.1516.4014-1.7568h2.2197zm4.3516 0c-.5329.7466-.662 1.3362-.6621 1.8213 0 .774.2878 1.3794.585 2.3984.2768.9496.4369 1.977.2089 3.1494-.103.5299-.2832 1.0699-.5478 1.6309h-2.2832c.5032-.7902.7579-1.446.8682-2.0127.1469-.7557.0567-1.4428-.1661-2.207-.2026-.695-.665-1.8047-.665-2.959 0-.598.1149-1.2018.377-1.8213h2.2851zm4.5 0c-.533.7466-.662 1.3362-.6621 1.8213 0 .774.2878 1.3794.585 2.3984.2768.9496.4369 1.977.2089 3.1494-.103.5299-.2832 1.0699-.5478 1.6309h-2.2832c.5034-.7901.7579-1.446.8682-2.0127.1469-.7556.0567-1.4428-.1661-2.207-.2026-.695-.665-1.8047-.665-2.959 0-.598.1149-1.2018.377-1.8213h2.2851z"></path></svg>