<svg viewBox="0 0 24 24" focusable="false" width="24" height="24" aria-hidden="true" class="svg-icon" xmlns="http://www.w3.org/2000/svg"><path d="M17 11.2432c-.6483-.6484-1.1009-1.1-1.415-1.4141l-5.7569 5.7568L11.2422 17H7v-4.2422l1.414 1.4141 5.757-5.7569c-.3158-.3157-.7678-.7687-1.4141-1.415H17v4.2432z"></path><path fill-rule="evenodd" clip-rule="evenodd" d="M12 2c5.5228 0 10 4.4771 10 10 0 5.5228-4.4772 10-10 10-5.5229 0-10-4.4772-10-10C2 6.4771 6.4771 2 12 2zm0 2c-4.4183 0-8 3.5817-8 8s3.5817 8 8 8 8-3.5817 8-8-3.5817-8-8-8z"></path></svg>