<svg viewBox="0 0 24 24" focusable="false" width="24" height="24" aria-hidden="true" class="svg-icon" xmlns="http://www.w3.org/2000/svg"><path d="M20 2H4v20h8v-2H6V4h12v7h2V2z"></path><path d="M8 8h8V6H8v2zm0 4h5v-2H8v2z"></path><path fill-rule="evenodd" clip-rule="evenodd" d="M12 16c0-2.2091 1.7909-4 4-4 2.2091 0 4 1.7909 4 4a3.9815 3.9815 0 0 1-.5538 2.032l3.261 3.261-1.4142 1.4142-3.261-3.261A3.9815 3.9815 0 0 1 16 20c-2.2091 0-4-1.7909-4-4zm4-2c-1.1046 0-2 .8954-2 2s.8954 2 2 2 2-.8954 2-2-.8954-2-2-2z"></path></svg>