<svg viewBox="0 0 24 24" focusable="false" width="24" height="24" aria-hidden="true" class="svg-icon" xmlns="http://www.w3.org/2000/svg"><path d="M4 2h16v8h-2V4H6v16h8v2H4V2z"></path><path d="M17.9965 12h2.0073v1.0616c.1812.0228.3586.053.5324.0904.4445.0958.9034.2538 1.3768.474l-.6521 1.537c-.3865-.1628-.7537-.2968-1.1015-.4022-.3478-.1149-.7005-.1724-1.058-.1724-.6376 0-.9565.1724-.9565.5172 0 .1245.0387.2394.116.3447.0869.0958.2463.2011.4782.316.2416.1149.5942.2682 1.058.4597.4541.1819.8454.3735 1.1739.5746.3285.1915.5797.4357.7536.7326.1836.2968.2754.6751.2754 1.1347 0 .7949-.285 1.4078-.8551 1.8387-.3.2256-.6804.3908-1.1411.4956V22h-2.0073v-.8799c-.2922-.0185-.5567-.0506-.7936-.0964-.3961-.067-.7923-.1819-1.1884-.3447v-1.7669c.4251.1916.8841.3496 1.3768.4741.4928.1245.9275.1867 1.3044.1867.4251 0 .7246-.0622.8985-.1867.1836-.1245.2754-.2873.2754-.4884 0-.1341-.0387-.2538-.116-.3591-.0676-.1054-.2222-.2251-.4637-.3591-.2416-.1341-.6184-.3065-1.1305-.5172-.4927-.2011-.8985-.407-1.2174-.6176-.3188-.2107-.5555-.4597-.7101-.747-.1546-.2969-.2319-.6655-.2319-1.1061 0-.7277.285-1.2736.8551-1.6375.3208-.2048.7013-.352 1.1414-.4415V12zM8 6h8v2H8V6zm5 4H8v2h5v-2z"></path></svg>