<svg viewBox="0 0 24 24" focusable="false" width="24" height="24" aria-hidden="true" class="svg-icon" xmlns="http://www.w3.org/2000/svg"><path d="M16.75 20h-1.5v-8h1.5v8zm4 0h-1.5v-8h1.5v8zM3.1406 17.9746a.7496.7496 0 0 1 .6377.8467.7499.7499 0 0 1-.8467.6387.7503.7503 0 0 1-.6386-.8467.7508.7508 0 0 1 .8476-.6387zm2.8604-.0078a.7507.7507 0 0 1 .75.75.75.75 0 1 1-.75-.75zm2.8594.0078a.7509.7509 0 0 1 .8476.6387.7499.7499 0 1 1-1.4854.208.7495.7495 0 0 1 .6378-.8467zM3.419 15.9844a.7501.7501 0 0 1 .6386.8467.7508.7508 0 0 1-.8476.6386c-.4101-.0577-.6954-.4375-.6377-.8476a.7496.7496 0 0 1 .8467-.6377zm2.582-.0078a.7507.7507 0 0 1 .75.75.75.75 0 1 1-.75-.75zm2.581.0078c.41-.0577.7898.2277.8477.6377a.7507.7507 0 0 1-.6387.8476c-.4102.0577-.789-.2285-.8467-.6386a.7495.7495 0 0 1 .6377-.8467zm-4.8847-1.9903a.7501.7501 0 0 1 .6386.8467.7509.7509 0 0 1-.8476.6387c-.4101-.0577-.6954-.4375-.6377-.8477a.7496.7496 0 0 1 .8467-.6377zm2.3037-.0078a.7507.7507 0 0 1 .75.75.75.75 0 1 1-.75-.75zm2.3027.0078c.41-.0576.7899.2277.8477.6377a.7509.7509 0 0 1-.6387.8477c-.4102.0576-.789-.2285-.8467-.6387a.7495.7495 0 0 1 .6377-.8467zm-4.3281-1.9902c.41.0577.6962.4366.6387.8467a.7509.7509 0 0 1-.8477.6387c-.41-.0578-.6953-.4376-.6377-.8477a.7496.7496 0 0 1 .8467-.6377zm2.0254-.0078a.7507.7507 0 0 1 .75.75.75.75 0 1 1-.75-.75zm2.0244.0078c.41-.0576.7898.2277.8476.6377a.7509.7509 0 0 1-.6386.8477c-.4102.0576-.789-.2285-.8467-.6387a.7495.7495 0 0 1 .6377-.8467zM4 8h4V3h2v7H2V3h2v5zm12 0h4V3h2v7h-8V3h2v5z"></path></svg>