<svg viewBox="0 0 24 24" focusable="false" width="24" height="24" aria-hidden="true" class="svg-icon" xmlns="http://www.w3.org/2000/svg"><path fill-rule="evenodd" clip-rule="evenodd" d="M16.0001 1c-.7825 0-1.5688.2331-2.1554.843-.584.6074-.8446 1.458-.8446 2.4371 0 .9284.2721 1.7527.8421 2.35.572.5996 1.3484.8699 2.1579.8699.8095 0 1.5858-.2703 2.1578-.8698.57-.5974.8422-1.4217.8422-2.35 0-.9792-.2607-1.8298-.8447-2.4371C17.5688 1.233 16.7825 1 16.0001 1zm-1.1575 3.2801c0-.6609.1728-.986.3252-1.1445.1498-.1558.4029-.2785.8322-.2785.4293 0 .6824.1227.8322.2785.1524.1585.3252.4836.3252 1.1445 0 .567-.1613.8884-.3277 1.0628-.1644.1723-.4274.3-.8297.3s-.6653-.1277-.8297-.3c-.1664-.1744-.3277-.4957-.3277-1.0628z"></path><path d="M13.8212 10.9234c.2761-.1446.6529-.2392 1.1754-.2392h2.0069c.4428 0 .781.068 1.0419.1767l2.2041-.483c-.2905-.3626-.6624-.6699-1.0967-.9013C18.5201 9.1438 17.7885 9 17.0035 9h-2.0069c-.785 0-1.5165.1438-2.1493.4766-.6008.3202-1.0824.7856-1.3937 1.3416-.2723.4863-.4152 1.0193-.4468 1.585l1.9848-.4349c.1391-.4845.4149-.8232.8296-1.0449z"></path><path fill-rule="evenodd" clip-rule="evenodd" d="M22 14.0149c0-1.2733-1.1586-2.2272-2.3977-1.974l-14.3977 2.942C3.3401 15.3639 2 17.0148 2 18.9308V22h2v-2.964c3.048.341 5.7738 1.9668 8.7062 2.7456 1.0762.2858 2.3376.3179 3.3889-.1615C17.3427 21.0512 18 19.8196 18 18.4752v-4.0516l2-.4087V22h2v-7.9851zm-6 .8173L5.6023 16.9569c-.1958.04-.3801.108-.549.1994.1842.0332.3671.0702.549.1106 2.626.5835 5.0181 1.8777 7.6138 2.5671.7959.2114 1.5539.1793 2.054-.0488.532-.2426.7299-.7482.7299-1.31v-3.643zM8 1c-.7825 0-1.5688.2331-2.1553.843C5.2607 2.4505 5 3.301 5 4.2802c0 .9284.2722 1.7527.8422 2.35C6.4142 7.2298 7.1905 7.5 8 7.5c.8095 0 1.5859-.2703 2.1578-.8698.57-.5974.8422-1.4217.8422-2.35 0-.9792-.2607-1.8298-.8447-2.4371C9.5688 1.233 8.7825 1 8 1zM6.8425 4.2801c0-.6609.1728-.986.3252-1.1445.1498-.1558.4029-.2785.8322-.2785.4293 0 .6824.1227.8323.2785.1524.1585.3251.4836.3251 1.1445 0 .567-.1612.8884-.3276 1.0628-.1645.1723-.4275.3-.8298.3s-.6653-.1277-.8297-.3c-.1664-.1744-.3277-.4957-.3277-1.0628z"></path><path d="M5.8212 10.9234c.276-.1446.6529-.2392 1.1754-.2392h2.0068c.1484 0 .285.0076.411.0219.2251-.5606.5507-1.0857.9641-1.533C9.9473 9.0542 9.4855 9 9.0035 9h-2.007c-.785 0-1.5165.1438-2.1493.4766-.6007.3202-1.0823.7856-1.3937 1.3416C3.1421 11.3743 3 11.9916 3 12.6491v1.888c.5521-.4828 1.209-.6442 1.9025-.7962v-1.0918c0-.4409.0943-.7949.2555-1.0829.1567-.2798.3742-.4883.6632-.6428z"></path></svg>