<svg viewBox="0 0 24 24" focusable="false" width="24" height="24" aria-hidden="true" class="svg-icon" xmlns="http://www.w3.org/2000/svg"><path fill-rule="evenodd" clip-rule="evenodd" d="M9.8447 1.843C10.4312 1.2332 11.2175 1 12 1s1.5688.2331 2.1553.843c.584.6074.8447 1.458.8447 2.4371 0 .9284-.2722 1.7527-.8422 2.35C13.5859 7.2298 12.8095 7.5 12 7.5c-.8095 0-1.5859-.2703-2.1578-.8698C9.2722 6.0328 9 5.2085 9 4.2802c0-.9792.2607-1.8298.8447-2.4371zm1.323 1.2926c-.1524.1585-.3252.4836-.3252 1.1445 0 .567.1613.8884.3277 1.0628.1644.1723.4274.3.8297.3s.6653-.1277.8297-.3c.1665-.1744.3277-.4957.3277-1.0628 0-.6609-.1727-.986-.3251-1.1445-.1499-.1558-.4029-.2785-.8323-.2785-.4293 0-.6824.1227-.8322.2785z"></path><path d="M10.9966 10.6842c-.5225 0-.8994.0946-1.1754.2392-.289.1545-.5065.363-.6632.6428-.1612.288-.2555.642-.2555 1.0829v.2153L7 13.2812v-.6321c0-.6575.142-1.2748.4535-1.8309.3114-.556.793-1.0214 1.3937-1.3416C9.48 9.1438 10.2115 9 10.9966 9h2.0068c.7851 0 1.5166.1438 2.1494.4766.6007.3202 1.0823.7856 1.3937 1.3416.0612.1094.116.2211.1643.3351l-1.8706.4099c-.1565-.2783-.3734-.4858-.6614-.6398-.276-.1446-.6529-.2392-1.1754-.2392h-2.0068z"></path><path fill-rule="evenodd" clip-rule="evenodd" d="M18.5548 12.152c1.2521-.2858 2.4451.6656 2.4451 1.9498V22h-2v-7.8982L17 14.5583V18.5c0 1.441-.5561 2.5187-1.5673 3.0819-.934.5203-2.0401.4759-2.9357.2229-.8309-.2348-1.7801-.5784-2.7264-.9209-.55-.1991-1.099-.3978-1.6232-.5746-1.111-.3748-2.1732-.6764-3.1474-.8084V22H3v-3.1076c0-1.8662 1.2905-3.4844 3.1098-3.8997l12.445-2.8407zM6.5549 16.9425 15 15.0148V18.5c0 .9014-.3106 1.2066-.5406 1.3347-.3071.1711-.8166.2155-1.4186.0454-.7758-.2192-1.5897-.5147-2.4728-.8353-.563-.2045-1.1541-.4191-1.7814-.6306-1.0497-.3541-2.1673-.6854-3.2738-.8591a1.9963 1.9963 0 0 1 1.0421-.6126z"></path></svg>