<svg viewBox="0 0 24 24" focusable="false" width="24" height="24" aria-hidden="true" class="svg-icon" xmlns="http://www.w3.org/2000/svg"><path d="m21.9204 21.9201-1.4141 1.4142-6.124-6.1239c-.4235.6688-.7882 1.3762-1.2558 2.0166-.663.908-1.606 1.7728-3.1263 1.7728-2.0774 0-4-1.8945-4-4h2c0 1.0175 1.0103 2 2 2 .6045 0 1.0241-.2852 1.5111-.9522.5296-.7254.9287-1.5344 1.4285-2.2798L11.077 13.905c-.2078.8193-.7357 1.5423-1.6296 1.9892l-.8945-1.7888c.8416-.4208.7385-1.287.3889-1.9863a3.1287 3.1287 0 0 1-.2179-.5671L.7073 3.5353l1.4142-1.4142L21.9204 21.92zm-5.0268-7.8553c.6227-.9724 1.1066-2.2325 1.1066-4.065 0-3.0462-2.4183-6-6-6-1.5401 0-2.8723.5242-3.8832 1.2884l1.4342 1.4343c.6568-.4325 1.4895-.7227 2.449-.7227 2.3681 0 4 1.9461 4 4 0 1.1829-.2118 1.9688-.5601 2.6115l1.4535 1.4535z"></path><path d="m13.4144 10.5856 1.2929-1.293-.7724-.7723c-.8795-.8794-2.176-1.137-3.3004-.7146l2.7799 2.7799z"></path></svg>