<svg viewBox="0 0 24 24" focusable="false" width="24" height="24" aria-hidden="true" class="svg-icon" xmlns="http://www.w3.org/2000/svg"><path fill-rule="evenodd" clip-rule="evenodd" d="M12.0039 9c-2.4853 0-4.5 2.0147-4.5 4.5s2.0147 4.5 4.5 4.5 4.5-2.0147 4.5-4.5-2.0147-4.5-4.5-4.5zm-2.5 4.5c0-1.3807 1.1193-2.5 2.5-2.5s2.5 1.1193 2.5 2.5-1.1193 2.5-2.5 2.5-2.5-1.1193-2.5-2.5z"></path><path fill-rule="evenodd" clip-rule="evenodd" d="M12.0001 2c-1.9821 0-3.882 1.4206-5.2677 3.1976-1.4193 1.8202-2.492 4.247-2.7277 6.707-.236 2.4632.3658 4.9597 1.7275 6.8644C7.1095 20.6957 9.2592 22 12 22c2.741 0 4.8907-1.3043 6.2681-3.2309 1.3616-1.9048 1.9636-4.4012 1.7275-6.8645-.2358-2.46-1.3085-4.8868-2.7278-6.707C15.8822 3.4206 13.9822 2 12.0001 2zM5.9956 12.0954c.1955-2.04 1.1017-4.1132 2.314-5.668C9.5556 4.8294 10.94 4 12.0001 4c1.0602 0 2.4446.8294 3.6906 2.4274 1.2124 1.5548 2.1186 3.628 2.3141 5.668.1952 2.0367-.3126 4.0403-1.3636 5.5105C15.6058 19.0543 14.0399 20 12.0001 20c-2.0397 0-3.6056-.9457-4.6409-2.394-1.051-1.4703-1.5588-3.4738-1.3636-5.5106z"></path></svg>