<svg viewBox="0 0 24 24" focusable="false" width="24" height="24" aria-hidden="true" class="svg-icon" xmlns="http://www.w3.org/2000/svg"><path fill-rule="evenodd" clip-rule="evenodd" d="M5.3333 4c-.1247 0-.426.0732-.8984.6402C3.7962 5.4066 2.9864 6 2 6V4c.1248 0 .426-.0732.8984-.6402C3.5372 2.5934 4.347 2 5.3335 2c.9863 0 1.7961.5934 2.4348 1.3598.4725.567.7737.6402.8985.6402.1247 0 .426-.0732.8984-.6402C10.2038 2.5934 11.0136 2 12 2c.9864 0 1.7962.5934 2.4349 1.3598.4724.567.7737.6402.8984.6402.1248 0 .426-.0732.8985-.6402C16.8704 2.5934 17.6803 2 18.6667 2c.9863 0 1.7962.5934 2.4349 1.3598.4724.567.7737.6402.8984.6402v2c-.9864 0-1.7962-.5934-2.4349-1.3598-.4724-.567-.7737-.6402-.8984-.6402-.1248 0-.426.0732-.8985.6402C17.1296 5.4066 16.3197 6 15.3333 6c-.9863 0-1.7962-.5934-2.4349-1.3598C12.426 4.0732 12.1247 4 12 4c-.1247 0-.426.0732-.8984.6402C10.4629 5.4066 9.653 6 8.6666 6c-.9863 0-1.7962-.5934-2.4348-1.3598C5.7593 4.0732 5.458 4 5.3333 4zm0 4c-.1247 0-.426.0732-.8984.6402C3.7962 9.4066 2.9864 10 2 10V8c.1248 0 .426-.0732.8984-.6402C3.5372 6.5934 4.347 6 5.3335 6c.9863 0 1.7961.5934 2.4348 1.3598.4725.567.7737.6402.8985.6402.1247 0 .426-.0732.8984-.6402C10.2038 6.5934 11.0136 6 12 6c.9864 0 1.7962.5934 2.4349 1.3598.4724.567.7737.6402.8984.6402.1248 0 .426-.0732.8985-.6402C16.8704 6.5934 17.6803 6 18.6667 6c.9863 0 1.7962.5934 2.4349 1.3598.4724.567.7737.6402.8984.6402v2c-.9864 0-1.7962-.5934-2.4349-1.3598-.4724-.567-.7737-.6402-.8984-.6402-.1248 0-.426.0732-.8985.6402C17.1296 9.4066 16.3197 10 15.3333 10c-.9863 0-1.7962-.5934-2.4349-1.3598C12.426 8.0732 12.1247 8 12 8c-.1247 0-.426.0732-.8984.6402C10.4629 9.4066 9.653 10 8.6666 10c-.9863 0-1.7962-.5934-2.4348-1.3598C5.7593 8.0732 5.458 8 5.3333 8zm0 4c-.1247 0-.426.0733-.8984.6402C3.7962 13.4066 2.9864 14 2 14v-2c.1248 0 .426-.0733.8984-.6402C3.5372 10.5934 4.347 10 5.3335 10c.9863 0 1.7961.5934 2.4348 1.3598.4725.5669.7737.6402.8985.6402.1247 0 .426-.0733.8984-.6402C10.2038 10.5934 11.0136 10 12 10c.9864 0 1.7962.5934 2.4349 1.3598.4724.5669.7737.6402.8984.6402.1248 0 .426-.0733.8985-.6402C16.8704 10.5934 17.6803 10 18.6667 10c.9863 0 1.7962.5934 2.4349 1.3598.4724.5669.7737.6402.8984.6402v2c-.9864 0-1.7962-.5934-2.4349-1.3598-.4724-.5669-.7737-.6402-.8984-.6402-.1248 0-.426.0733-.8985.6402C17.1296 13.4066 16.3197 14 15.3333 14c-.9863 0-1.7962-.5934-2.4349-1.3598C12.426 12.0733 12.1247 12 12 12c-.1247 0-.426.0733-.8984.6402C10.4629 13.4066 9.653 14 8.6666 14c-.9863 0-1.7962-.5934-2.4348-1.3598C5.7593 12.0733 5.458 12 5.3333 12zm0 4c-.1247 0-.426.0733-.8984.6402C3.7962 17.4066 2.9864 18 2 18v-2c.1248 0 .426-.0733.8984-.6402C3.5372 14.5934 4.347 14 5.3335 14c.9863 0 1.7961.5934 2.4348 1.3598.4725.5669.7737.6402.8985.6402.1247 0 .426-.0733.8984-.6402C10.2038 14.5934 11.0136 14 12 14c.9864 0 1.7962.5934 2.4349 1.3598.4724.5669.7737.6402.8984.6402.1248 0 .426-.0733.8985-.6402C16.8704 14.5934 17.6803 14 18.6667 14c.9863 0 1.7962.5934 2.4349 1.3598.4724.5669.7737.6402.8984.6402v2c-.9864 0-1.7962-.5934-2.4349-1.3598-.4724-.5669-.7737-.6402-.8984-.6402-.1248 0-.426.0733-.8985.6402C17.1296 17.4066 16.3197 18 15.3333 18c-.9863 0-1.7962-.5934-2.4349-1.3598C12.426 16.0733 12.1247 16 12 16c-.1247 0-.426.0733-.8984.6402C10.4629 17.4066 9.653 18 8.6666 18c-.9863 0-1.7962-.5934-2.4348-1.3598C5.7593 16.0733 5.458 16 5.3333 16zm0 4c-.1247 0-.426.0733-.8984.6402C3.7962 21.4066 2.9864 22 2 22v-2c.1248 0 .426-.0733.8984-.6402C3.5372 18.5934 4.347 18 5.3335 18c.9863 0 1.7961.5934 2.4348 1.3598.4725.5669.7737.6402.8985.6402.1247 0 .426-.0733.8984-.6402C10.2038 18.5934 11.0136 18 12 18c.9864 0 1.7962.5934 2.4349 1.3598.4724.5669.7737.6402.8984.6402.1248 0 .426-.0733.8985-.6402C16.8704 18.5934 17.6803 18 18.6667 18c.9863 0 1.7962.5934 2.4349 1.3598.4724.5669.7737.6402.8984.6402v2c-.9864 0-1.7962-.5934-2.4349-1.3598-.4724-.5669-.7737-.6402-.8984-.6402-.1248 0-.426.0733-.8985.6402C17.1296 21.4066 16.3197 22 15.3333 22c-.9863 0-1.7962-.5934-2.4349-1.3598C12.426 20.0733 12.1247 20 12 20c-.1247 0-.426.0733-.8984.6402C10.4629 21.4066 9.653 22 8.6666 22c-.9863 0-1.7962-.5934-2.4348-1.3598C5.7593 20.0733 5.458 20 5.3333 20z"></path></svg>