<svg viewBox="0 0 24 24" focusable="false" width="24" height="24" aria-hidden="true" class="svg-icon" xmlns="http://www.w3.org/2000/svg"><path d="M5.01 3c-.41 0-.77.12-1.05.4-.27.29-.39.67-.39 1.1 0 .29.05.56.18.79.13.23.3.41.52.53.22.12.47.18.72.18.41 0 .77-.12 1.04-.41.28-.29.39-.67.39-1.1 0-.29-.05-.55-.18-.79-.12-.22-.29-.4-.51-.52-.22-.12-.46-.18-.72-.18zm.75 4H4.24c-.45 0-.86.09-1.2.29-.34.2-.6.47-.78.82-.18.34-.26.72-.26 1.14V16h2v5h2v-5h2v-4.9512l1.2034 1.9476H10v4.6721h1.3333v3.3334h1.3334v-3.3334H14v-4.6754h1.0003l1.0251-1.5988L15 16h3v5h2v-5h3l-1.83-8.22c-.1-.45-.5-.78-.97-.78h-2.4c-.3808 0-.7156.2166-.8822.5382l-2.6447 4.1249-4.328.0033-2.2594-3.6566c-.1764-.302-.4178-.5393-.7157-.7198-.35-.2-.76-.29-1.21-.29zm12.2-3.6c.28-.28.64-.4 1.05-.4.26 0 .5.06.72.18.22.12.39.3.51.52.13.24.18.5.18.79 0 .43-.11.81-.39 1.1-.27.29-.63.41-1.04.41-.25 0-.5-.06-.72-.18-.22-.12-.39-.3-.52-.53-.13-.23-.18-.5-.18-.79 0-.43.12-.81.39-1.1z"></path><path d="M11.9992 11.0003c.6619 0 1.1984-.473 1.1984-1.2658 0-.8126-.5365-1.2658-1.1984-1.2658-.6619 0-1.1984.4613-1.1984 1.2658 0 .7955.5365 1.2658 1.1984 1.2658z"></path></svg>