<svg viewBox="0 0 24 24" focusable="false" width="24" height="24" aria-hidden="true" class="svg-icon" xmlns="http://www.w3.org/2000/svg"><path d="M14.6791 13.3509a2.9258 2.9258 0 0 0 .0536-.1117c1.5644.0545 3.192-.2549 4.3838-1.3416 1.6417-1.4972 1.5686-3.9042.609-5.5168-1.0904-1.8324-3.293-3.4917-5.4881-3.5565-.9507-.028-1.8625.3251-2.3667 1.2675-.8311 1.5532-.0542 3.2816-.0401 4.9131a3.0374 3.0374 0 0 0-.123.0096c-.735-1.3823-1.8168-2.6374-3.354-3.1262-2.1175-.6732-4.1655.5936-5.0822 2.231-1.0417 1.8604-1.3774 4.5976-.336 6.531.451.8374 1.2128 1.4504 2.2811 1.4159 1.7602-.0568 2.8685-1.5932 4.274-2.4212a2.845 2.845 0 0 0 .07.1022c-.8293 1.3274-1.375 2.8916-1.0298 4.4669.4756 2.1703 2.5968 3.3105 4.4731 3.2858 2.1321-.0281 4.6704-1.106 5.8241-2.9746.4996-.8093.6497-1.7755.0856-2.6834-.9294-1.4962-2.8145-1.6877-4.2344-2.491zm-1.5106 1.4127a3.0094 3.0094 0 0 1-1.9652.1295c-.5243.8574-.9423 1.8739-.719 2.8928.2189.9988 1.2917 1.73 2.4931 1.7142 1.447-.0191 3.3545-.7392 4.1487-2.0254.2096-.3396.1535-.4729.0886-.5774-.7195-1.1581-2.9475-1.3778-4.0462-2.1337zm1.7346-3.5201a2.9873 2.9873 0 0 0-1.0938-1.6364c.1054-1.3297-.8185-3.3695-.1752-4.5717.0581-.1085.1454-.2238.5443-.212 1.511.0446 3.0884 1.3366 3.8284 2.5802.6144 1.0325.5176 2.3272-.2379 3.0162-.7711.7031-1.8608.8491-2.8658.8237zM9.8935 9.8637c-.4769.4712-.7888 1.1005-.871 1.7665-1.2039.5736-2.508 2.3931-3.8706 2.4371-.123.0039-.2665-.0141-.4557-.3654-.7169-1.3309-.3867-3.3429.3202-4.6056.587-1.0483 1.7567-1.6118 2.7311-1.302.9942.316 1.6655 1.1864 2.146 2.0694zm1.2875 1.5628c.3168-.4524.9403-.5623 1.3926-.2456.4524.3168.5623.9402.2455 1.3926-.3167.4523-.9402.5623-1.3925.2455-.4524-.3167-.5623-.9402-.2456-1.3925z" fill-rule="evenodd" clip-rule="evenodd"></path></svg>