<svg viewBox="0 0 24 24" focusable="false" width="24" height="24" aria-hidden="true" class="svg-icon" xmlns="http://www.w3.org/2000/svg"><path d="M9.5 11c.8284 0 1.5-.6716 1.5-1.5S10.3284 8 9.5 8 8 8.6716 8 9.5 8.6716 11 9.5 11zM16 9.5c0 .8284-.6716 1.5-1.5 1.5S13 10.3284 13 9.5 13.6716 8 14.5 8s1.5.6716 1.5 1.5zm-6.5993 7.0007C9.921 15.6014 10.8908 15 12 15c1.1091 0 2.079.6014 2.5992 1.5007l1.7313-1.0014C15.4674 14.0074 13.8519 13 12 13c-1.852 0-3.4675 1.0074-4.3305 2.4993l1.7312 1.0014z"></path><path fill-rule="evenodd" clip-rule="evenodd" d="M21 12c0 4.9706-4.0294 9-9 9s-9-4.0294-9-9 4.0294-9 9-9 9 4.0294 9 9zm-2 0c0 3.866-3.134 7-7 7s-7-3.134-7-7 3.134-7 7-7 7 3.134 7 7z"></path></svg>