<svg viewBox="0 0 24 24" focusable="false" width="24" height="24" aria-hidden="true" class="svg-icon" xmlns="http://www.w3.org/2000/svg"><path d="M11.6994 4.7635c.4716.2875.6208.9029.3333 1.3744-.2875.4716-.9029.6208-1.3744.3332-.4716-.2875-.6208-.9028-.3333-1.3743.2876-.4716.9029-.6208 1.3744-.3333zm1.7758 1.3745c-.2875-.4716-.1383-1.087.3332-1.3745.4716-.2875 1.0869-.1383 1.3744.3333.2875.4715.1383 1.0868-.3332 1.3743-.4716.2876-1.0869.1384-1.3744-.3332zm-2.2962 5.8633c.5523 0 1-.4477 1-1 0-.5522-.4477-1-1-1s-1 .4478-1 1c0 .5523.4477 1 1 1zm0 8c.5523 0 1-.4477 1-1 0-.5522-.4477-1-1-1s-1 .4478-1 1c0 .5523.4477 1 1 1zm4.1499-9c0 .5523-.4477 1-1 1s-1-.4477-1-1c0-.5522.4477-1 1-1s1 .4478 1 1zm2.1504 1c.5523 0 1-.4477 1-1 0-.5522-.4477-1-1-1s-1 .4478-1 1c0 .5523.4477 1 1 1zm-2.1504 7c0 .5523-.4477 1-1 1s-1-.4477-1-1c0-.5522.4477-1 1-1s1 .4478 1 1zm2.1504 1c.5523 0 1-.4477 1-1 0-.5522-.4477-1-1-1s-1 .4478-1 1c0 .5523.4477 1 1 1zm4.1499-9c0 .5523-.4477 1-1 1s-1-.4477-1-1c0-.5522.4477-1 1-1s1 .4478 1 1zm-1.4961 7.2969c.5523 0 1-.4477 1-1s-.4477-1-1-1-1 .4477-1 1 .4477 1 1 1zm1.6186-4.1484c0 .5523-.4477 1-1 1s-1-.4477-1-1 .4477-1 1-1 1 .4477 1 1zm-6.7335-5.3439c-.2876-.4716-.1384-1.0869.3332-1.3744.4715-.2875 1.0869-.1383 1.3744.3332.2875.4716.1383 1.0869-.3333 1.3744-.4715.2875-1.0868.1383-1.3743-.3332zm-4.9389-1.3744c.4716.2875.6208.9028.3332 1.3744-.2875.4715-.9028.6207-1.3743.3332-.4716-.2875-.6208-.9028-.3333-1.3744.2875-.4715.9029-.6207 1.3744-.3332zM2.2485 9.996h6.7808v10.0001H7.091c-1.3766 0-2.5766-.9369-2.9105-2.2724l-1.932-7.7276z"></path></svg>