<svg viewBox="0 0 24 24" focusable="false" width="24" height="24" aria-hidden="true" class="svg-icon" xmlns="http://www.w3.org/2000/svg"><path d="M11 10V8H9V6h2V4h2v2h2v2h-2v2h-2z"></path><path fill-rule="evenodd" clip-rule="evenodd" d="M6 7c0-3.3137 2.6863-6 6-6s6 2.6863 6 6-2.6863 6-6 6-6-2.6863-6-6zm6-4C9.7909 3 8 4.7909 8 7c0 2.2091 1.7909 4 4 4 2.2091 0 4-1.7909 4-4 0-2.2091-1.7909-4-4-4z"></path><path fill-rule="evenodd" clip-rule="evenodd" d="M2 22h2v-1h16v1h2v-8h-2v2H9c0-1.6569-1.3431-3-3-3H4v-2H2v11zm2-4v1h16v-1H4zm0-3v1h3c0-.5523-.4477-1-1-1H4z"></path></svg>