<svg viewBox="0 0 24 24" focusable="false" width="24" height="24" aria-hidden="true" class="svg-icon" xmlns="http://www.w3.org/2000/svg"><path d="M10.0866 4.3806A5 5 0 0 1 16.5826 7H14v2h6V3h-2v2.3944a6.9996 6.9996 0 0 0-3.3212-2.8616A7 7 0 0 0 5 9h2a5 5 0 0 1 3.0866-4.6194zM11 16h-.0197.0394H11zm-9-5.8684 8.8028 5.8683L2 21.8686v-11.737z"></path><path fill-rule="evenodd" clip-rule="evenodd" d="M13.1972 15.9999 22 10.1316v11.737l-8.8028-5.8687zM20 18.1315v-4.263l-3.1972 2.1314L20 18.1315z"></path></svg>