<svg viewBox="0 0 24 24" focusable="false" width="24" height="24" aria-hidden="true" class="svg-icon" xmlns="http://www.w3.org/2000/svg"><path d="M12 9c-1.6569 0-3 1.3431-3 3s1.3431 3 3 3 3-1.3431 3-3-1.3431-3-3-3zm-1 3c0-.5523.4477-1 1-1s1 .4477 1 1-.4477 1-1 1-1-.4477-1-1z" fill-rule="evenodd" clip-rule="evenodd"></path><path fill-rule="evenodd" clip-rule="evenodd" d="M8.7988 4.307c-1.3098-.434-2.8357-.4122-3.8698.622-1.0341 1.034-1.0559 2.56-.622 3.8698C3.048 9.4092 2 10.5237 2 12s1.0478 2.5909 2.307 3.2011c-.434 1.3099-.4122 2.8358.622 3.87 1.0341 1.0341 2.56 1.0559 3.8698.6219C9.409 20.9522 10.5236 22 12 22s2.5909-1.0479 3.2012-2.307c1.3098.4339 2.8358.4122 3.8699-.6219 1.0342-1.0342 1.0559-2.5601.622-3.8699C20.9521 14.5909 22 13.4763 22 12s-1.0478-2.591-2.307-3.2011c.434-1.31.4122-2.8358-.6219-3.87-1.0342-1.0341-2.5601-1.0559-3.87-.622C14.5909 3.048 13.4763 2 12 2c-1.4763 0-2.591 1.0478-3.2012 2.307zm1.2235 2.8635C10.2664 6.159 10.5716 4 12 4s1.7335 2.1591 1.9776 3.1705c.8778-.5065 2.696-1.8106 3.6792-.8274.9833.9833-.3208 2.8015-.8273 3.6793C17.8409 10.2665 20 10.5716 20 12s-2.1591 1.7336-3.1705 1.9776c.5065.8778 1.8105 2.696.8273 3.6793-.9832.9832-2.8014-.3209-3.6793-.8273C13.7335 17.8409 13.4283 20 11.9999 20s-1.7336-2.1592-1.9776-3.1705c-.8778.5065-2.6959 1.8106-3.6791.8274-.9833-.9833.3208-2.8015.8273-3.6793C6.1592 13.7336 4 13.4285 4 12s2.1592-1.7336 3.1706-1.9776c-.5065-.8778-1.8106-2.696-.8274-3.6792.9833-.9833 2.8013.3208 3.6791.8273z"></path></svg>