<svg viewBox="0 0 24 24" focusable="false" width="24" height="24" aria-hidden="true" class="svg-icon" xmlns="http://www.w3.org/2000/svg"><path fill-rule="evenodd" clip-rule="evenodd" d="M2 3h13v8c0 1.0614-.5153 2.167-1.3253 3.0507-.6687.7294-1.5748 1.3513-2.6747 1.717v2.1244c.1866.7747.7404 1.2856 1.5258 1.6292C13.3584 19.8856 14.3347 20 15 20v2c-.8347 0-2.1084-.1356-3.2758-.6463-1.1851-.5185-2.3697-1.482-2.7048-3.1576L9 18.099v-3.9188l.8039-.1608c1.0336-.2067 1.8466-.7203 2.3964-1.3201C12.7653 12.083 13 11.4386 13 11V5H4v6c0 .4386.2347 1.083.7996 1.6993.5499.5998 1.3628 1.1134 2.3965 1.3201L8 14.1802v3.9188l-.0194.0971c-.3351 1.6756-1.5197 2.6391-2.7048 3.1576C4.1084 21.8644 2.8348 22 2 22v-2c.6653 0 1.6416-.1144 2.4742-.4787.7854-.3436 1.3392-.8545 1.5258-1.6292v-2.1244c-1.0998-.3657-2.006-.9876-2.6747-1.717C2.5153 13.167 2 12.0614 2 11V3zm14 0v5h1V3h-1zm2 0v5h1V3h-1zm4 4.5V3h-2v4.5c0 .7722-.4027 2.3333-1.9472 3.1056l-.5528.2764V22h2v-9.9213C21.4942 10.7853 22 8.6298 22 7.5z"></path></svg>