<svg viewBox="0 0 24 24" focusable="false" width="24" height="24" aria-hidden="true" class="svg-icon" xmlns="http://www.w3.org/2000/svg"><path d="M6.1182 8.6553c.3489-.7314 1.5004-1.2524 2.8945-.4326.5153.3048 1.5606 1.08 2.3437 1.6728a1.6301 1.6301 0 0 1 .6397-.1299c.2151 0 .4206.0427.6084.1182.7752-.6114 1.8307-1.4057 2.3838-1.6611 1.4668-.6831 2.5367-.2985 2.8857.4326.3483.7316.0159 1.9459-1.5156 2.4765-.57.2026-1.8505.4999-2.8125.7129a1.6057 1.6057 0 0 1-.4424.7002c.2313.957.5146 2.2467.5147 2.8487-.0002 1.6075-.8115 2.4119-1.6221 2.4121-.8106-.0002-1.784-.8127-1.6221-2.4121.0617-.5969.3312-1.869.542-2.8233-.2087-.1855-.3702-.4233-.4599-.6933-.97-.1968-2.2663-.4892-2.8213-.7452-1.4671-.6752-1.865-1.745-1.5166-2.4765z"></path><path fill-rule="evenodd" clip-rule="evenodd" d="M18 2c2.2091 0 4 1.7909 4 4v12c0 2.2091-1.7909 4-4 4H6c-2.2091 0-4-1.7909-4-4V6c0-2.2091 1.7909-4 4-4h12zM6 4c-1.1046 0-2 .8954-2 2v12c0 1.1046.8954 2 2 2h12c1.1046 0 2-.8954 2-2V6c0-1.1046-.8954-2-2-2H6z"></path></svg>