<svg viewBox="0 0 24 24" focusable="false" width="24" height="24" aria-hidden="true" class="svg-icon" xmlns="http://www.w3.org/2000/svg"><path d="M4 14c0 1.4371 1.2294 2.5 2.5 2.5h.754c.2293.8003.4412 1.4233 1.041 2.0693C8.9312 19.2546 10.0466 20 12 20s3.0687-.7454 3.7051-1.4307c.5997-.646.8116-1.269 1.041-2.0693H17.5c1.2792 0 2.5-1.1823 2.5-2.5h2c0 2.2026-1.7364 4.0886-3.8076 4.4404a6.1743 6.1743 0 0 1-1.0225 1.4903C16.1812 20.9953 14.5464 22 12 22s-4.1812-1.0047-5.17-2.0693a6.1785 6.1785 0 0 1-1.0224-1.4893C3.7936 18.1104 2 16.3691 2 14h2z"></path><path d="m8.9375 8.5947-1.959-.4023.252-1.6719a2.6928 2.6928 0 0 0-.669.167C5.663 7.0418 5 7.9075 5 8.8848c0 1.0673.7715 1.9249 1.7549 2.2627.4553.1321.9555.122 1.6894.122h1v1c0 .6809-.0161 1.333.292 1.9522C10.1886 15.0268 11.0896 15.5 12 15.5c.9907 0 1.9682-.569 2.3682-1.4883.1581-.4201.1841-.8578.1875-1.2998v-1.4424h1c.7313 0 1.4353.0123 2.1113-.291.7848-.3993 1.3329-1.2048 1.333-2.0937 0-1.0199-.6763-1.7963-1.5615-2.1973a2.6933 2.6933 0 0 0-.6699-.167l.2529 1.6719-1.959.4023L14.0654 2h2.0205l.377 2.5a4.7125 4.7125 0 0 1 1.709.3271C19.8136 5.5184 21 7.0561 21 8.8849c-.0001 1.7133-1.0688 3.2701-2.624 3.9707-.5881.2476-1.1981.3718-1.836.4023-.0318.5366-.1364 1.0537-.3379 1.5518C15.4876 16.4518 13.782 17.5 12 17.5c-1.7007 0-3.3424-.9489-4.1094-2.4922-.26-.5555-.3953-1.137-.4316-1.75-.4586-.022-.9583-.0824-1.4541-.251C4.2703 12.3648 3 10.7572 3 8.8848 3 7.0975 4.1732 5.4797 5.8281 4.827a4.7124 4.7124 0 0 1 1.708-.327l.378-2.5h2.0205l-.9971 6.5947z"></path><path d="M13 8.5h-2V2h2v6.5z"></path></svg>