<svg viewBox="0 0 24 24" focusable="false" width="24" height="24" aria-hidden="true" class="svg-icon" xmlns="http://www.w3.org/2000/svg"><path d="M5.5 3c-.5 0-.96.1-1.35.32-.38.22-.66.52-.86.91C3.09 4.61 3 5 3 6v11h18v-2H8V6c0-1-.09-1.39-.29-1.77-.2-.38-.49-.69-.86-.91C6.46 3.1 6 3 5.5 3zM5 15V5h1v10H5z" fill-rule="evenodd" clip-rule="evenodd"></path><path d="M4 19.5c0-.83.67-1.5 1.5-1.5s1.5.67 1.5 1.5S6.33 21 5.5 21 4 20.33 4 19.5zm13 0c0-.83.67-1.5 1.5-1.5s1.5.67 1.5 1.5-.67 1.5-1.5 1.5-1.5-.67-1.5-1.5zM10 11h11v2H10v-2zm11-3H10v2h11V8zM10 5h6v2h-6V5z"></path></svg>