<svg viewBox="0 0 24 24" focusable="false" width="24" height="24" aria-hidden="true" class="svg-icon" xmlns="http://www.w3.org/2000/svg"><path fill-rule="evenodd" clip-rule="evenodd" d="M18.2808 2H5.7192l1.5 6h9.5616l1.5-6zm-9.5 4-.5-2h7.4384l-.5 2H8.7808zM12 10c-2.3477 2.2-3.091 4.4-2.3477 6.6-.7432-.275-1.331-1.65-1.331-2.75C6.3593 16.325 8.0572 21 12 21c2.5659 0 4.5028-1.65 4.5028-4.4 0-1.4469-1.0884-2.437-2.2031-3.451C13.2957 12.2357 12.2705 11.3031 12 10zm-.6351 9.35c.8563-.55.7461-1.375.4753-2.2-.2709-.825-.7115-1.925-.1898-2.75.5709 1.1 2.1375 1.3941 2.4609 2.75.3935 1.65-1.3192 2.475-2.7464 2.2z"></path></svg>