<svg viewBox="0 0 24 24" focusable="false" width="24" height="24" aria-hidden="true" class="svg-icon" xmlns="http://www.w3.org/2000/svg"><path fill-rule="evenodd" clip-rule="evenodd" d="M12 4.2038C11.3141 3.4634 10.3334 3 9.2445 3 7.1532 3 5.8201 5.1637 6.6558 7H2v5h20V7h-4.6558c.8357-1.8363-.4974-4-2.5887-4-1.0889 0-2.0696.4634-2.7555 1.2038zM15.0338 7l.4394-.7324C15.808 5.7097 15.4061 5 14.7555 5 13.786 5 13 5.786 13 6.7555V7h2.0338zM11 7v-.2445C11 5.786 10.214 5 9.2445 5c-.6506 0-1.0525.7097-.7177 1.2676L8.9662 7H11z"></path><path d="M21 14h-8v7h8v-7zm-10 7v-7H3v7h8z"></path></svg>