<svg viewBox="0 0 24 24" focusable="false" width="24" height="24" aria-hidden="true" class="svg-icon" xmlns="http://www.w3.org/2000/svg"><path d="M9.2445 3c1.0889 0 2.0696.4634 2.7555 1.2038C12.6859 3.4634 13.6666 3 14.7555 3c2.0913 0 3.4244 2.1637 2.5887 4H22v7h-1v7H3v-7H2V7h4.6558c-.8357-1.8363.4974-4 2.5887-4zm6.2287 3.2676L15.0338 7H13v-.2445C13 5.786 13.786 5 14.7555 5c.6506 0 1.0525.7097.7177 1.2676zM11 6.7555V7H8.9662l-.4394-.7324C8.192 5.7097 8.5939 5 9.2445 5 10.214 5 11 5.786 11 6.7555zM4 12V9h16v3H4zm1 2v5h6v-5H5zm8 0v5h6v-5h-6z" fill-rule="evenodd" clip-rule="evenodd"></path></svg>