<svg viewBox="0 0 24 24" focusable="false" width="24" height="24" aria-hidden="true" class="svg-icon" xmlns="http://www.w3.org/2000/svg"><path fill-rule="evenodd" clip-rule="evenodd" d="M8.504 11V9H6.8621L6.148 19H13v2H4L5 7h3.504v-.375C8.504 4.6695 10.0254 3 12.0038 3s3.5 1.6695 3.5 3.625V7H19l.4286 6h-2.0051l-.2857-4h-1.6339v2c0 .5523-.4477 1-1 1s-1-.4477-1-1V9h-3v2c0 .5523-.4477 1-1 1s-1-.4477-1-1zm3.4999-6c-.783 0-1.5.681-1.5 1.625V7h3v-.375c0-.944-.717-1.625-1.5-1.625z"></path><path d="M17 21v-2h-2v-2h2v-2h2v2h2v2h-2v2h-2z"></path></svg>