<svg viewBox="0 0 24 24" focusable="false" width="24" height="24" aria-hidden="true" class="svg-icon" xmlns="http://www.w3.org/2000/svg"><path fill-rule="evenodd" clip-rule="evenodd" d="m2.1215 2.1214 19.7989 19.7989-1.414 1.4142-2.9913-2.9913C15.9342 21.3902 14.0384 22 12.0003 22c-5.5229 0-10-4.4772-10-10 0-2.0382.6097-3.934 1.6568-5.5148L.7074 3.5355l1.4141-1.4141zM13.747 18.1766C12.9484 19.7737 12.2153 20 12.0003 20c-.2151 0-.9482-.2263-1.7467-1.8234-.3066-.6131-.5745-1.3473-.7831-2.1766h3.7014l1.0468 1.0468c-.143.411-.3014.7891-.4717 1.1298zm1.716 1.0372c.1038-.1994.2034-.4078.2983-.6244l.3029.3029a7.97 7.97 0 0 1-.6012.3215zm-6.462-7.3846L11.172 14H9.1117a17.8965 17.8965 0 0 1-.1106-2.1708zM4.2524 10a8.0142 8.0142 0 0 0-.252 2c0 .6906.0875 1.3608.252 2h2.848a19.829 19.829 0 0 1-.1-2c0-.6849.0344-1.3538.1-2h-2.848zm3.164 6H5.0705a8.0347 8.0347 0 0 0 3.467 3.2138c-.472-.9068-.8554-1.9972-1.1212-3.2138zm-.931-12.3432 1.4508 1.4509a7.984 7.984 0 0 1 .6014-.3215 10.35 10.35 0 0 0-.2984.6244l1.5426 1.5427c.143-.411.3014-.7892.4718-1.13C11.0521 4.2264 11.7852 4 12.0003 4c.215 0 .9481.2263 1.7467 1.8234.3065.613.5745 1.3473.7831 2.1766h-3.7015l2 2h2.0602c.0782.6881.1176 1.4235.1107 2.1709l5.3439 5.344c1.0471-1.5809 1.6569-3.4767 1.6569-5.5149 0-5.5229-4.4772-10-10-10-2.0382 0-3.934.6098-5.5149 1.6568zM19.7482 14h-2.8479c.0655-.6462.1-1.3151.1-2 0-.6849-.0345-1.3538-.1-2h2.8479a8.011 8.011 0 0 1 .2521 2 8.011 8.011 0 0 1-.2521 2zM18.93 8a8.035 8.035 0 0 0-3.467-3.2138c.4721.9068.8554 1.9972 1.1212 3.2138H18.93z"></path></svg>