<svg viewBox="0 0 24 24" focusable="false" width="24" height="24" aria-hidden="true" class="svg-icon" xmlns="http://www.w3.org/2000/svg"><path d="M6.3271 15.4082c1.1916.9266 2.1232 1.2303 2.9092 1.2813.8131.0526 1.5477-.1548 2.4199-.4092.8418-.2455 1.8222-.5381 2.9376-.4658 1.1422.0741 2.3539.5208 3.7333 1.5937L17.8662 18l-.46.5918c-1.1916-.9268-2.124-1.2303-2.9101-1.2813-.8131-.0526-1.5477.1548-2.4199.4092-.8417.2455-1.8214.538-2.9366.4658-1.1423-.074-2.3537-.5208-3.7333-1.5937l.46-.5918.4608-.5918zm0-3c1.1916.9266 2.1232 1.2303 2.9092 1.2813.8131.0526 1.5477-.1548 2.4199-.4092.8418-.2455 1.8222-.5381 2.9376-.4658 1.1422.0741 2.3539.5208 3.7333 1.5937L17.8662 15l-.46.5918c-1.1916-.9268-2.124-1.2303-2.9101-1.2813-.8131-.0526-1.5477.1548-2.4199.4092-.8417.2455-1.8214.538-2.9366.4658-1.1423-.074-2.3537-.5208-3.7333-1.5937l.46-.5918.4608-.5918zm0-3c1.1916.9266 2.1232 1.2303 2.9092 1.2813.8131.0526 1.5477-.1548 2.4199-.4092.8418-.2455 1.8222-.5381 2.9376-.4658 1.1422.0741 2.3539.5208 3.7333 1.5937L17.8662 12l-.46.5918c-1.1916-.9268-2.124-1.2303-2.9101-1.2813-.8131-.0526-1.5477.1548-2.4199.4092-.8417.2455-1.8214.538-2.9366.4658-1.1423-.074-2.3537-.5208-3.7333-1.5937l.46-.5918.4608-.5918zM7 8 5 5h4L7 8zm5 0-2-3h4l-2 3zm5 0-2-3h4l-2 3z"></path><path fill-rule="evenodd" clip-rule="evenodd" d="M18 2c2.2091 0 4 1.7909 4 4v12c0 2.2091-1.7909 4-4 4H6c-2.2091 0-4-1.7909-4-4V6c0-2.2091 1.7909-4 4-4h12zM6 4c-1.1046 0-2 .8954-2 2v12c0 1.1046.8954 2 2 2h12c1.1046 0 2-.8954 2-2V6c0-1.1046-.8954-2-2-2H6z"></path></svg>