<svg viewBox="0 0 24 24" focusable="false" width="24" height="24" aria-hidden="true" class="svg-icon" xmlns="http://www.w3.org/2000/svg"><path d="M22 3H2v18h20V3zM8.2866 11.3327v4.956h1.812v-8.568h-1.488l-2.76 2.196.876 1.092.984-.792c.112-.096.232-.204.36-.324.136-.128.224-.216.264-.264-.008.256-.02.552-.036.888-.008.336-.012.608-.012.816zm8.1432-.216c-.408-.2-.872-.3-1.392-.3-.28 0-.5.016-.66.048-.152.024-.296.048-.432.072l.156-1.68h3.06v-1.536h-4.644l-.324 4.368.72.384c.16-.04.36-.08.6-.12.24-.048.472-.072.696-.072 1.144 0 1.716.432 1.716 1.296 0 .464-.144.808-.432 1.032-.28.216-.688.324-1.224.324-.368 0-.76-.052-1.176-.156-.416-.112-.772-.244-1.068-.396v1.56c.296.152.64.268 1.032.348.4.08.824.12 1.272.12 1.128 0 1.98-.264 2.556-.792.576-.536.864-1.268.864-2.196 0-.568-.12-1.044-.36-1.428-.232-.384-.552-.676-.96-.876z" fill-rule="evenodd" clip-rule="evenodd"></path></svg>