<svg viewBox="0 0 24 24" focusable="false" width="24" height="24" aria-hidden="true" class="svg-icon" xmlns="http://www.w3.org/2000/svg"><path d="M19 18c1.327.0001 2.1956.7989 3 1.7412v2.2315c-.8355-.1237-1.3448-.7209-1.8535-1.3331-.3145-.3784-.633-.6395-1.1465-.6396-.5272.0001-.8531.2794-1.1846.6582-.3475.3972-1.0264 1.3417-2.3154 1.3418-1.2936-.0002-1.9644-.9526-2.3047-1.3457-.3458-.3993-.6572-.6215-1.1953-.6543-.5329.0001-.8611.2684-1.1953.6543-.3403.393-1.0109 1.3456-2.3047 1.3457-1.2888-.0001-1.9668-.9445-2.3144-1.3418C5.8537 20.2789 5.5275 20.0001 5 20c-.5135.0001-.832.2612-1.1465.6396-.5088.6123-1.0174 1.2106-1.8535 1.334v-2.2314c.803-.9433 1.6735-1.7421 3-1.7422 1.1105.0001 1.979.5288 2.6904 1.3418.6907.7894.9162.7966 1.6026.0039.712-.8225 1.591-1.3456 2.707-1.3457 1.1215.0346 1.9852.5109 2.708 1.3457.686.7923.9115.7858 1.6025-.0039C17.0216 18.5291 17.89 18.0001 19 18z"></path><path fill-rule="evenodd" clip-rule="evenodd" d="M13.5 3.5H15c2.0398 0 3.7217 1.527 3.9678 3.5H20v2h-1v5c0 1.1046-.8954 2-2 2H7c-1.1046 0-2-.8954-2-2V9H4V7h1.0322C5.2784 5.027 6.9602 3.5 9 3.5h1.5V2h3v1.5zM7 14h10V9H7v5zm2-8.5c-.9317 0-1.7123.6377-1.9346 1.5h9.8692C16.7123 6.1377 15.9317 5.5 15 5.5H9z"></path></svg>