<svg viewBox="0 0 24 24" focusable="false" width="24" height="24" aria-hidden="true" class="svg-icon" xmlns="http://www.w3.org/2000/svg"><path d="M12 11c1.65 0 3-1.309 3-2.909C15 6.491 12 3 12 3S9 6.491 9 8.091 10.35 11 12 11zM2 21.062l3.2142-.9643a1.0002 1.0002 0 0 1 .5733-.0004l6.5851 1.9653a1.9604 1.9604 0 0 0 1.361-.0889l6.8702-3.0721A2.3593 2.3593 0 0 0 22 16.7477c0-1.5557-1.4793-2.6856-2.9802-2.2762l-2.8287.7714a2.3857 2.3857 0 0 0-1.9471-1.5285l-5.7816-.6979a2.283 2.283 0 0 0-1.1733.1682l-2.4448 1.0477a1 1 0 0 1-.745.0172L2 13.4624v2.136l1.397.5239a3.0004 3.0004 0 0 0 2.2351-.0516l2.4448-1.0478a.2855.2855 0 0 1 .1458-.0209l5.7817.6979a.3854.3854 0 0 1-.0462.768H10v2h3.9582c.8476 0 1.5804-.4383 2.0027-1.0891l3.5852-.9778a.3593.3593 0 0 1 .2412.6749l-6.8568 3.066-6.571-1.9611a3.0005 3.0005 0 0 0-1.72.0012L2 18.9739v2.0881z"></path></svg>