<svg viewBox="0 0 24 24" focusable="false" width="24" height="24" aria-hidden="true" class="svg-icon" xmlns="http://www.w3.org/2000/svg"><path d="M4.9406 19.1575c-.4003 1.1156.0367 2.3938 1.0913 3.0077 1.0545.6139 2.3709.3564 3.129-.5509.1298.1196.2745.2269.4331.3193 1.1838.6891 2.6975.2802 3.381-.9135l.2723-.4754c.1222.1089.2571.2073.4039.2927 1.183.6888 2.6966.2818 3.3805-.9125l3.0324-5.296c.9184-1.604 1.2246-3.259 1.4091-4.6045.0968-.706.1517-1.2521.2392-1.7669.0864-.5086.1814-.817.2876-1.0025l-1.7148-.9983c-.2898.5061-.4298 1.1073-.5244 1.6635-.0935.55-.1657 1.224-.2489 1.8307-.1755 1.2798-.4413 2.6201-1.1626 3.8798l-3.0324 5.2959a.4919.4919 0 0 1-.6757.1818c-.2368-.1378-.3179-.443-.1812-.6818l1.485-2.5935-1.7147-.9982-2.9701 5.187a.4928.4928 0 0 1-.6762.1827c-.2367-.1378-.3178-.4431-.1811-.6818l2.97-5.187-1.7148-.9983-3.96 6.916a.4927.4927 0 0 1-.6762.1827c-.2368-.1378-.3179-.4431-.1812-.6818l3.9599-6.9161-1.7147-.9982-2.9701 5.187a.4928.4928 0 0 1-.6762.1827c-.2368-.1379-.3179-.4431-.1812-.6818l3.5913-6.272L7.565 8.7017l-2.8373 1.3365c-.246.1309-.5554.06-.69-.1973-.1263-.2415-.0366-.5402.2-.6706 1.7864-.978 3.536-2.0217 5.279-3.0754 1.8661-1.1282 2.8482-1.872 4.3497-3.5742L12.1131 1.5c-1.1955 1.3143-2.0214 1.9194-3.6146 2.8826-1.719 1.0392-3.4502 2.0682-5.2103 3.0358-1.1848.6529-1.6338 2.146-1.0017 3.3541.6336 1.211 2.1152 1.6798 3.32 1.0554l-2.0628 3.7018c-.6835 1.1936-.2779 2.7199.9059 3.4091.1587.0924.3233.165.491.2187z"></path></svg>