<svg viewBox="0 0 24 24" focusable="false" width="24" height="24" aria-hidden="true" class="svg-icon" xmlns="http://www.w3.org/2000/svg"><path d="m21.9203 21.9203-1.4142 1.4142-1.494-1.494A1.2635 1.2635 0 0 0 19.001 22h-2c0-.6115.1869-1.2049.3984-1.7722l-8.3986-8.3986v.9258l-1.9023.6996-1.8125-2.5925c-.1497-.2378-.4558-.3325-.7024-.1773a.5.5 0 0 0-.161.6829c1.0728 1.7505 2.0805 3.5397 3.0774 5.3342 1.0674 1.9212 1.554 3.0624 2.0148 5.2975h-2.045c-.3875-1.744-.8069-2.6861-1.718-4.3263-.9833-1.7697-1.9823-3.5368-3.0373-5.2651-.7094-1.1649-.3542-2.687.8037-3.4158.8237-.5184 1.8336-.497 2.6156-.03L.7072 3.5356l1.4142-1.4143 19.7989 19.799zm-1.4014-4.2298c.2762-.915.4821-1.9417.4821-3.0655V8.499c0-1.3816-1.1202-2.499-2.5-2.499-.1712 0-.3384.0172-.5.05V5.5c0-1.3807-1.1193-2.5-2.5-2.5-.185 0-.3653.0201-.5389.0582C14.7535 1.8882 13.731 1 12.501 1s-2.2525.8882-2.4611 2.0583A2.509 2.509 0 0 0 9.5009 3c-.9932 0-1.851.579-2.2545 1.418l1.7544 1.7544V5.5a.5.5 0 0 1 1 0v1.6724l2.0001 2L12.001 3.5a.5.5 0 0 1 1 0v6.6726L14.3284 11.5h.6726v-6a.5.5 0 0 1 1 0v6h2v-3a.5.5 0 0 1 .5-.5c.277 0 .5.2237.5.499v6.126c0 .4886-.0493.9593-.1333 1.4142l1.6512 1.6513z"></path></svg>