<svg viewBox="0 0 24 24" focusable="false" width="24" height="24" aria-hidden="true" class="svg-icon" xmlns="http://www.w3.org/2000/svg"><path d="M5 5C3.3432 5 2 6.3431 2 8v8c0 1.6569 1.3432 3 3 3h14c1.6569 0 3-1.3431 3-3V8c0-1.6569-1.3431-3-3-3H5zM4 8c0-.5523.4477-1 1-1h14c.5523 0 1 .4477 1 1v8c0 .5523-.4477 1-1 1H5c-.5523 0-1-.4477-1-1V8z" fill-rule="evenodd" clip-rule="evenodd"></path><path d="M9.0081 9c.8514 0 1.4204.6686 1.4204 1.4959 0 .8463-.563 1.5039-1.4323 1.5039-.8568 0-1.4204-.6741-1.4204-1.5039 0-.85.5616-1.4959 1.4323-1.4959zM12 15H6c0-.5253.012-1.0395.2589-1.5196.3856-.75 1.1645-1.1054 1.9836-1.1054h1.515c.8187 0 1.5979.3551 1.9836 1.1054.2468.4801.2589.9943.2589 1.5196z"></path></svg>