<svg viewBox="0 0 24 24" focusable="false" width="24" height="24" aria-hidden="true" class="svg-icon" xmlns="http://www.w3.org/2000/svg"><path d="M6 7h12v5H6V7zm2 2v1h8V9H8z" fill-rule="evenodd" clip-rule="evenodd"></path><path d="M8 15.5c.5523 0 1-.4477 1-1s-.4477-1-1-1-1 .4477-1 1 .4477 1 1 1zm5-1c0 .5523-.4477 1-1 1s-1-.4477-1-1 .4477-1 1-1 1 .4477 1 1zm3 1c.5523 0 1-.4477 1-1s-.4477-1-1-1-1 .4477-1 1 .4477 1 1 1z"></path><path fill-rule="evenodd" clip-rule="evenodd" d="M2 3h20v16h-7v3h-2v-3h-2v3H9v-3H2V3zm2 2v12h16V5H4z"></path></svg>