<svg viewBox="0 0 24 24" focusable="false" width="24" height="24" aria-hidden="true" class="svg-icon" xmlns="http://www.w3.org/2000/svg"><path d="M9.4055 2h5.0596l.155.8082c.1865.9724.645 1.3695 1.0738 1.5237.4839.174 1.2197.1437 2.1104-.269l.6814-.3158L22 7.0045l-.9749.6778c-1.8198 1.265-2.3914 2.7939-2.2552 4.3371.1417 1.6048 1.0636 3.3072 2.4172 4.7444l.5667.6017-2.6874 3.2755-.777-.3456c-1.2476-.5551-2.1811-.6711-2.9781-.5184-.8116.1554-1.647.6204-2.6286 1.5302L11.9353 22l-.7474-.6928c-.9763-.9049-1.8806-1.4119-2.7362-1.5841-.824-.1659-1.7288-.0471-2.7914.5331l-.8092.4419-2.7846-3.3939.6834-.6047c1.5939-1.4102 2.4873-3.0784 2.5652-4.6444.0758-1.5246-.612-3.0814-2.4695-4.3728L2 7.0945l2.7489-3.3973.789.3657c.8544.396 1.751.462 2.4203.2537.6129-.1908 1.1243-.6324 1.2923-1.5084L9.4055 2zm1.6888 1.9594c-.4568 1.1209-1.3566 1.8702-2.4631 2.2146-1.022.3181-2.1577.2748-3.2093-.043l-.4952.6121c1.7982 1.5496 2.5971 3.4498 2.5 5.4022-.0953 1.917-1.0474 3.7826-2.5559 5.3399l.56.6826c1.1609-.4676 2.3207-.5908 3.4696-.3595 1.0958.2206 2.1014.7478 3.0336 1.4745.9106-.7134 1.873-1.2186 2.9496-1.4247 1.1427-.2189 2.3029-.0801 3.5222.3512l.6385-.7783c-1.2759-1.5338-2.215-3.369-2.3812-5.2518-.1676-1.8983.4609-3.7806 2.1739-5.3354l-.8028-.7442c-1.0282.3409-2.1185.4137-3.1048.059-1.0282-.3697-1.7693-1.1395-2.166-2.1992h-1.6691z" fill-rule="evenodd" clip-rule="evenodd"></path></svg>