<svg viewBox="0 0 24 24" focusable="false" width="24" height="24" aria-hidden="true" class="svg-icon" xmlns="http://www.w3.org/2000/svg"><path d="M10 11.9984c0 .5523-.4477 1-1 1s-1-.4477-1-1 .4477-1 1-1 1 .4477 1 1zm6 0c0 .5523-.4477 1-1 1s-1-.4477-1-1 .4477-1 1-1 1 .4477 1 1z"></path><path fill-rule="evenodd" clip-rule="evenodd" d="m15.5355 5.5824-1.4142 1.4142L12 4.8753 9.8787 6.9966 8.4645 5.5824 12 2.047l3.5355 3.5355zM3 7.9984h18v14H3v-14zm2 2v10h3v-2H7v-3.5c0-.5523.4477-1 1-1h2c.5523 0 1 .4477 1 1v3.5h-1v2h4v-2h-1v-3.5c0-.5523.4477-1 1-1h2c.5523 0 1 .4477 1 1v3.5h-1v2h3v-10H5z"></path></svg>