<svg viewBox="0 0 24 24" focusable="false" width="24" height="24" aria-hidden="true" class="svg-icon" xmlns="http://www.w3.org/2000/svg"><path d="M10 11.9989c0 .5522-.4477 1-1 1s-1-.4478-1-1c0-.5523.4477-1 1-1s1 .4477 1 1zm6 0c0 .5522-.4477 1-1 1s-1-.4478-1-1c0-.5523.4477-1 1-1s1 .4477 1 1z"></path><path d="m8.4645 3.4699 1.4142-1.4142L12 4.177l2.1213-2.1213 1.4142 1.4142L12 7.0054 8.4645 3.47zM3 7.9989h18v14H3v-14zm2 2v10h3v-2H7v-3.5c0-.5523.4477-1 1-1h2c.5523 0 1 .4477 1 1v3.5h-1v2h4v-2h-1v-3.5c0-.5523.4477-1 1-1h2c.5523 0 1 .4477 1 1v3.5h-1v2h3v-10H5z" fill-rule="evenodd" clip-rule="evenodd"></path></svg>