<svg viewBox="0 0 24 24" focusable="false" width="24" height="24" aria-hidden="true" class="svg-icon" xmlns="http://www.w3.org/2000/svg"><path d="M7.939 7.3816c.8414.6634 1.8415 1.1095 2.9075 1.2968V3.1497L12.005 2.5l1.1575.6497v5.5287c1.0663-.1875 2.0667-.6336 2.9084-1.2968l2.1032 1.1823c-3.4205 3.2892-8.9277 3.2892-12.3482 0L7.939 7.3816zM10.4951 21.5c1.2198-4.5251-1.5364-9.1611-6.179-10.3936v2.3656c1.012.3764 1.9098.995 2.6103 1.7985L2 18.0349v1.3003l1.1585.6462L8.084 17.217a6.0857 6.0857 0 0 1 .298 3.0963L10.495 21.5zm9.1934-10.3936c-4.6402 1.2352-7.3933 5.8702-6.1736 10.3936l2.1077-1.1832a6.092 6.092 0 0 1 .298-3.0962l4.9218 2.7608L22 19.3317v-1.2968l-4.9264-2.7644c.7007-.8033 1.5985-1.4219 2.6104-1.7985l.0045-2.3656z"></path></svg>