<svg viewBox="0 0 24 24" focusable="false" width="24" height="24" aria-hidden="true" class="svg-icon" xmlns="http://www.w3.org/2000/svg"><path d="M5.3333 5c-.1247 0-.426.0732-.8984.6402C3.7962 6.4066 2.9864 7 2 7V5c.1248 0 .426-.0732.8984-.6402C3.5372 3.5934 4.347 3 5.3335 3c.9863 0 1.7961.5934 2.4348 1.3598.4725.567.7737.6402.8985.6402.1247 0 .426-.0732.8984-.6402C10.2038 3.5934 11.0136 3 12 3c.9864 0 1.7962.5934 2.4349 1.3598.4724.567.7737.6402.8984.6402.1248 0 .426-.0732.8985-.6402C16.8704 3.5934 17.6803 3 18.6667 3c.9863 0 1.7962.5934 2.4349 1.3598.4724.567.7737.6402.8984.6402v2c-.9864 0-1.7962-.5934-2.4349-1.3598-.4724-.567-.7737-.6402-.8984-.6402-.1248 0-.426.0732-.8985.6402C17.1296 6.4066 16.3197 7 15.3333 7c-.9863 0-1.7962-.5934-2.4349-1.3598C12.426 5.0732 12.1247 5 12 5c-.1247 0-.426.0732-.8984.6402C10.4629 6.4066 9.653 7 8.6666 7c-.9863 0-1.7962-.5934-2.4348-1.3598C5.7593 5.0732 5.458 5 5.3333 5zm0 7c-.1247 0-.426.0733-.8984.6402C3.7962 13.4066 2.9864 14 2 14v-2c.1248 0 .426-.0733.8984-.6402C3.5372 10.5934 4.347 10 5.3335 10c.9863 0 1.7961.5934 2.4348 1.3598.4725.5669.7737.6402.8985.6402.1247 0 .426-.0733.8984-.6402C10.2038 10.5934 11.0136 10 12 10c.9864 0 1.7962.5934 2.4349 1.3598.4724.5669.7737.6402.8984.6402.1248 0 .426-.0733.8985-.6402C16.8704 10.5934 17.6803 10 18.6667 10c.9863 0 1.7962.5934 2.4349 1.3598.4724.5669.7737.6402.8984.6402v2c-.9864 0-1.7962-.5934-2.4349-1.3598-.4724-.5669-.7737-.6402-.8984-.6402-.1248 0-.426.0733-.8985.6402C17.1296 13.4066 16.3197 14 15.3333 14c-.9863 0-1.7962-.5934-2.4349-1.3598C12.426 12.0733 12.1247 12 12 12c-.1247 0-.426.0733-.8984.6402C10.4629 13.4066 9.653 14 8.6666 14c-.9863 0-1.7962-.5934-2.4348-1.3598C5.7593 12.0733 5.458 12 5.3333 12zm-.8984 7.6402c.4724-.5669.7737-.6402.8984-.6402.1248 0 .426.0733.8985.6402C6.8705 20.4066 7.6803 21 8.6667 21c.9863 0 1.7962-.5934 2.4349-1.3598C11.574 19.0733 11.8753 19 12 19c.1247 0 .426.0733.8984.6402C13.5371 20.4066 14.347 21 15.3333 21c.9864 0 1.7963-.5934 2.4349-1.3598.4725-.5669.7737-.6402.8985-.6402.1247 0 .426.0733.8984.6402C20.2038 20.4066 21.0136 21 22 21v-2c-.1247 0-.426-.0733-.8984-.6402C20.4629 17.5934 19.653 17 18.6667 17c-.9864 0-1.7963.5934-2.4349 1.3598-.4725.5669-.7737.6402-.8985.6402-.1247 0-.426-.0733-.8984-.6402C13.7962 17.5934 12.9864 17 12 17c-.9864 0-1.7962.5934-2.4349 1.3598-.4724.5669-.7737.6402-.8984.6402-.1248 0-.426-.0733-.8985-.6402C7.1295 17.5934 6.3197 17 5.3333 17c-.9863 0-1.7962.5934-2.4349 1.3598C2.426 18.9267 2.1248 19 2 19v2c.9864 0 1.7962-.5934 2.4349-1.3598z"></path></svg>