<svg viewBox="0 0 24 24" focusable="false" width="24" height="24" aria-hidden="true" class="svg-icon" xmlns="http://www.w3.org/2000/svg"><path d="M4.4349 5.1402c.4724-.567.7737-.6402.8984-.6402.1248 0 .426.0732.8985.6402C6.8705 5.9066 7.6803 6.5 8.6667 6.5c.9863 0 1.7962-.5934 2.4349-1.3598.4724-.567.7737-.6402.8984-.6402.1247 0 .426.0732.8984.6402.6387.7664 1.4486 1.3598 2.4349 1.3598.9864 0 1.7963-.5934 2.4349-1.3598.4725-.567.7737-.6402.8985-.6402.1247 0 .426.0732.8984.6402C20.2038 5.9066 21.0136 6.5 22 6.5v-2c-.1247 0-.426-.0732-.8984-.6402C20.4629 3.0934 19.653 2.5 18.6667 2.5c-.9864 0-1.7963.5934-2.4349 1.3598-.4725.567-.7737.6402-.8985.6402-.1247 0-.426-.0732-.8984-.6402C13.7962 3.0934 12.9864 2.5 12 2.5c-.9864 0-1.7962.5934-2.4349 1.3598-.4724.567-.7737.6402-.8984.6402-.1248 0-.426-.0732-.8985-.6402C7.1295 3.0934 6.3197 2.5 5.3333 2.5c-.9863 0-1.7962.5934-2.4349 1.3598C2.426 4.4268 2.1248 4.5 2 4.5v2c.9864 0 1.7962-.5934 2.4349-1.3598zm0 5c.4724-.567.7737-.6402.8984-.6402.1248 0 .426.0732.8985.6402.6387.7664 1.4485 1.3598 2.4349 1.3598.9863 0 1.7962-.5934 2.4349-1.3598.4724-.567.7737-.6402.8984-.6402.1247 0 .426.0732.8984.6402.6387.7664 1.4486 1.3598 2.4349 1.3598.9864 0 1.7963-.5934 2.4349-1.3598.4725-.567.7737-.6402.8985-.6402.1247 0 .426.0732.8984.6402C20.2038 10.9066 21.0136 11.5 22 11.5v-2c-.1247 0-.426-.0732-.8984-.6402C20.4629 8.0934 19.653 7.5 18.6667 7.5c-.9864 0-1.7963.5934-2.4349 1.3598-.4725.567-.7737.6402-.8985.6402-.1247 0-.426-.0732-.8984-.6402C13.7962 8.0934 12.9864 7.5 12 7.5c-.9864 0-1.7962.5934-2.4349 1.3598-.4724.567-.7737.6402-.8984.6402-.1248 0-.426-.0732-.8985-.6402C7.1295 8.0934 6.3197 7.5 5.3333 7.5c-.9863 0-1.7962.5934-2.4349 1.3598C2.426 9.4268 2.1248 9.5 2 9.5v2c.9864 0 1.7962-.5934 2.4349-1.3598zM5.3333 14.5c-.1247 0-.426.0733-.8984.6402C3.7962 15.9066 2.9864 16.5 2 16.5v-2c.1248 0 .426-.0733.8984-.6402.6387-.7664 1.4486-1.3598 2.435-1.3598.9863 0 1.7961.5934 2.4348 1.3598.4725.5669.7737.6402.8985.6402.1247 0 .426-.0733.8984-.6402C10.2038 13.0934 11.0136 12.5 12 12.5c.9864 0 1.7962.5934 2.4349 1.3598.4724.5669.7737.6402.8984.6402.1248 0 .426-.0733.8985-.6402.6386-.7664 1.4485-1.3598 2.4349-1.3598.9863 0 1.7962.5934 2.4349 1.3598.4724.5669.7737.6402.8984.6402v2c-.9864 0-1.7962-.5934-2.4349-1.3598-.4724-.5669-.7737-.6402-.8984-.6402-.1248 0-.426.0733-.8985.6402-.6386.7664-1.4485 1.3598-2.4349 1.3598-.9863 0-1.7962-.5934-2.4349-1.3598-.4724-.5669-.7737-.6402-.8984-.6402-.1247 0-.426.0733-.8984.6402-.6387.7664-1.4486 1.3598-2.435 1.3598-.9863 0-1.7962-.5934-2.4348-1.3598-.4725-.5669-.7737-.6402-.8985-.6402zm-.8984 5.6402c.4724-.5669.7737-.6402.8984-.6402.1248 0 .426.0733.8985.6402.6387.7664 1.4485 1.3598 2.4349 1.3598.9863 0 1.7962-.5934 2.4349-1.3598.4724-.5669.7737-.6402.8984-.6402.1247 0 .426.0733.8984.6402.6387.7664 1.4486 1.3598 2.4349 1.3598.9864 0 1.7963-.5934 2.4349-1.3598.4725-.5669.7737-.6402.8985-.6402.1247 0 .426.0733.8984.6402C20.2038 20.9066 21.0136 21.5 22 21.5v-2c-.1247 0-.426-.0733-.8984-.6402-.6387-.7664-1.4486-1.3598-2.4349-1.3598-.9864 0-1.7963.5934-2.4349 1.3598-.4725.5669-.7737.6402-.8985.6402-.1247 0-.426-.0733-.8984-.6402C13.7962 18.0934 12.9864 17.5 12 17.5c-.9864 0-1.7962.5934-2.4349 1.3598-.4724.5669-.7737.6402-.8984.6402-.1248 0-.426-.0733-.8985-.6402C7.1295 18.0934 6.3197 17.5 5.3333 17.5c-.9863 0-1.7962.5934-2.4349 1.3598-.4724.5669-.7736.6402-.8984.6402v2c.9864 0 1.7962-.5934 2.4349-1.3598z"></path></svg>