<svg viewBox="0 0 24 24" focusable="false" width="24" height="24" aria-hidden="true" class="svg-icon" xmlns="http://www.w3.org/2000/svg"><path fill-rule="evenodd" clip-rule="evenodd" d="M9.5184 19.9199A102.155 102.155 0 0 0 9.5 22h2c0-.6644.0041-1.3719.0199-2.1094 3.3665-.7373 4.9382-4.6529 4.9792-7.7558 1.201-.9179 1.9343-2.338 2.4407-3.7306C19.7319 6.2258 20 3.8596 20 3V2h-1c-4.7483 0-7.8036 1.5974-9.7115 3.9293-1.6358 1.9993-2.3423 4.4362-2.666 6.5707H5v1c0 2.8791 1.4369 5.9005 4.5184 6.4199zm1.3181-12.7242C9.1374 9.2724 8.6824 11.9141 8.395 14.5H7.066c.203 1.4831.9665 3.0014 2.5237 3.3932.1386-2.6733.4858-5.6367 1.3437-8.3481l1.6148 1.6148c-.5642 2.1504-.8274 4.4478-.9485 6.6105 1.7907-.7734 2.6318-2.9987 2.8428-4.794A4.1291 4.1291 0 0 1 14 13v-2c1.673 0 2.5776-1.952 3.0602-3.2792.4791-1.3176.7402-2.721.8589-3.689-3.5934.218-5.7446 1.5285-7.0826 3.164z"></path></svg>