<svg viewBox="0 0 24 24" focusable="false" width="24" height="24" aria-hidden="true" class="svg-icon" xmlns="http://www.w3.org/2000/svg"><path d="M16.9999 14.1716c0-.7237.0151-1.449-.0313-2.1716-.0765-1.1889-.2833-2.1259-.513-3-.2495-.9496-.5333-1.8486-.7258-3-.0979-.5854-.1724-1.2378-.2076-2h.9777V2h-9v2h.9777c-.0257.5583-.0726 1.0577-.1343 1.515l1.7232 1.7232c.1968-.8947.3579-1.9254.413-3.2382h3.0408c.0315.7496.0975 1.4072.185 2 .1749 1.1856.4329 2.1004.6789 3 .2742 1.0031.513 1.9176.5899 3.1458l2.0258 2.0258z"></path><path fill-rule="evenodd" clip-rule="evenodd" d="m9.485 9.4853 12.435 12.435-1.4142 1.4142-3.5059-3.5058V22h-10v-9c0-1.1453.1167-2.0685.2825-2.8888L.7068 3.5356 2.121 2.1213 7.8547 7.855l1.6302 1.6303zM9 13c0-.4064.0162-.7782.0457-1.1255L15 17.8287V20H9v-7z"></path></svg>