<svg viewBox="0 0 24 24" focusable="false" width="24" height="24" aria-hidden="true" class="svg-icon" xmlns="http://www.w3.org/2000/svg"><path d="M8 10.9996c.8284 0 1.5-.6716 1.5-1.5s-.6716-1.5-1.5-1.5-1.5.6716-1.5 1.5.6716 1.5 1.5 1.5z"></path><path fill-rule="evenodd" clip-rule="evenodd" d="M5 15c0-1.6569 1.3431-3 3-3s3 1.3431 3 3-1.3431 3-3 3-3-1.3431-3-3zm3-1c-.5523 0-1 .4477-1 1s.4477 1 1 1 1-.4477 1-1-.4477-1-1-1z"></path><path fill-rule="evenodd" clip-rule="evenodd" d="M4 4c-1.1046 0-2 .8954-2 2v14c0 1.1046.8954 2 2 2h8c1.1046 0 2-.8954 2-2V6c0-1.1046-.8954-2-2-2H4zm0 2h8v14H4V6z"></path><path d="M20 7h-4.5V5H20c1.1046 0 2 .8954 2 2v12c0 1.1046-.8954 2-2 2h-4.5v-2H20V7z"></path><path d="M16.1464 10.5c.5522 0 1-.4477 1-1s-.4478-1-1-1a.996.996 0 0 0-.6464.237v1.5261a.996.996 0 0 0 .6464.2369zm2.7562 4.25c0 1.7554-1.7003 3.0873-3.4026 2.6714v-2.3018a.7565.7565 0 0 0 .6526.3804c.4085 0 .75-.3415.75-.75s-.3415-.75-.75-.75a.7565.7565 0 0 0-.6526.3804v-2.3018c1.7024-.4159 3.4026.916 3.4026 2.6714z"></path></svg>