<svg viewBox="0 0 24 24" focusable="false" width="24" height="24" aria-hidden="true" class="svg-icon" xmlns="http://www.w3.org/2000/svg"><path d="m15.5042 15.3377-2.164 2.164 2.164 2.1631-1.3359 1.3369-2.1641-2.164-2.164 2.164-1.336-1.3369 2.1641-2.1631-2.164-2.164 1.3359-1.336 2.164 2.1631 2.1641-2.1631 1.3359 1.336z"></path><path d="m15.126 6.2813 3.1738-1.3086.7217 1.7138-4.0264 1.6612-1.3506 2.2558h2.7393l3.5078-2.539L21 9.5625l-2.7188 1.9697L21 13.501l-1.1084 1.497-3.5059-2.538H7.6162l-3.5078 2.538L3 13.501l2.7197-1.9688L3 9.5625l1.1084-1.498 3.5068 2.539h2.7403L9.0059 8.3477 4.9775 6.6865l.7227-1.7138L8.875 6.2813l.4092-3.2832 1.8623.2265-.5225 4.1836L12 9.709l1.376-2.3008-.5225-4.1836 1.8623-.2266.4102 3.2832z"></path></svg>