<svg viewBox="0 0 24 24" focusable="false" width="24" height="24" aria-hidden="true" class="svg-icon" xmlns="http://www.w3.org/2000/svg"><path d="M11.7996 4c-.6888 2.2533-1.337 3.636-1.9118 4.5928-.9983 1.6617-2.362 2.8465-3.639 4.2546-.7025.7745-1.4704 1.8928-1.1893 3.3475.2759 1.4277 1.3288 2.1784 2.2499 2.5852.8874.392 1.9382.5774 2.3722.6897.2455.0635.5113.166.6093.419.0913.2356.0964.5459.0964 1.1112h1.9441l.0002-.1044c.0018-.4436.0046-1.1294-.2348-1.7474-.305-.7871-.9379-1.3585-1.941-1.6181-.6637-.1717-1.3813-.2794-2.0795-.5878-.665-.2937-1.016-.6509-1.11-1.1374-.0888-.4593.1004-.9278.7039-1.5931 1.3662-1.5063 2.8029-2.7891 3.8713-4.5675C12.599 7.8839 13.2131 5.9411 13.8419 4h-2.0423zm8.1258 13.2387c-.262 1.2996-1.1855 2.2639-2.5444 2.7133l-.5949-1.9041c.8011-.2649 1.1377-.7292 1.2357-1.2153.1091-.541-.0339-1.3356-.6578-2.264l1.5991-1.1374c.8161 1.2144 1.2132 2.5628.9623 3.8075z"></path><path d="M15.0461 17.707c-.7497-.7714-1.8329-1.122-2.8934-.7584l-.6147-1.8974c1.8556-.6362 3.6885.0128 4.8829 1.2417l-1.3748 1.4141z"></path></svg>