<svg viewBox="0 0 24 24" focusable="false" width="24" height="24" aria-hidden="true" class="svg-icon" xmlns="http://www.w3.org/2000/svg"><path d="M3.0005 3h2.0862l1.7805 6h5.9624a3 3 0 0 1 2.8797 2.1592L16.2468 13h2.2525v2h-5.5059v2h1.0051c2.2091 0 4 1.7909 4 4v1h-2v-1c0-1.1046-.8954-2-2-2h-1.0051v3h-2v-3h-1.005c-1.1046 0-2 .8954-2 2v1h-2v-1c0-2.2091 1.7908-4 4-4h1.005v-2h-4.432L3.0005 3zm11.1628 10-.3738-1.2803A1 1 0 0 0 12.8296 11h-5.369l.5936 2h6.1091z" fill-rule="evenodd" clip-rule="evenodd"></path></svg>