<svg viewBox="0 0 24 24" focusable="false" width="24" height="24" aria-hidden="true" class="svg-icon" xmlns="http://www.w3.org/2000/svg"><path d="m14.1289 2.1387 7.7782 7.7782L9.8863 21.9376 2.108 14.1595 14.1289 2.1387zm0 2.8284-9.1924 9.1924 4.9498 4.9497 9.1924-9.1924-4.9498-4.9497z" fill-rule="evenodd" clip-rule="evenodd"></path><path d="m2 6.4316 2.4545 2.5 2.4546-2.5H5.2515C5.3108 5.08 6.6448 3.75 8 3.75v-1.5c-2.164 0-4.2006 2.0132-4.2492 4.1816H2zm20 11.1368-2.4545-2.5-2.4546 2.5h1.6576C18.6892 18.9201 17.3553 20.25 16 20.25v1.5c2.164 0 4.2006-2.0132 4.2492-4.1816H22z"></path></svg>