<svg viewBox="0 0 24 24" focusable="false" width="24" height="24" aria-hidden="true" class="svg-icon" xmlns="http://www.w3.org/2000/svg"><path d="M16 2c-1.933 0-3.5 1.567-3.5 3.5S14.067 9 16 9s3.5-1.567 3.5-3.5S17.933 2 16 2zm-1.5 3.5c0-.8284.6716-1.5 1.5-1.5s1.5.6716 1.5 1.5S16.8284 7 16 7s-1.5-.6716-1.5-1.5zM6.622 2.0212l-3 5.5L4.5 9h6l.8779-1.4789-3-5.5H6.622zM8.8155 7h-2.631L7.5 4.5883 8.8154 7zM12.5 10H21v6h-8.5v-6zm2 2v2H19v-2h-4.5zm-3-2H3v6h8.5v-6zM5 14v-2h4.5v2H5z" fill-rule="evenodd" clip-rule="evenodd"></path><path d="M6 20h4.5v2h3v-2H18v2h3v-4H3v4h3v-2z"></path></svg>