<svg viewBox="0 0 24 24" focusable="false" width="24" height="24" aria-hidden="true" class="svg-icon" xmlns="http://www.w3.org/2000/svg"><path fill-rule="evenodd" clip-rule="evenodd" d="M12.9998 3h-2v1.0408C7.3838 4.3363 3.9011 6.238 2 9.7464V12h8.9997v4h-2v2h2v4h2V12H22V9.7474c-1.901-3.5089-5.384-5.411-9.0002-5.7066V3zm-3.3707 7h4.2863c-.2188-1.378-.7896-2.9405-1.9234-3.8255C10.7863 7.055 9.9668 8.5643 9.629 10zm10.1885 0h-3.8825c-.1574-1.2662-.5572-2.5224-1.2035-3.6258 2.0136.566 3.846 1.7747 5.086 3.6258zM7.5892 10c.2164-1.2714.7477-2.496 1.467-3.5638C7.1263 7.026 5.3783 8.214 4.182 10h3.4073z"></path></svg>