<svg viewBox="0 0 24 24" focusable="false" width="24" height="24" aria-hidden="true" class="svg-icon" xmlns="http://www.w3.org/2000/svg"><path fill-rule="evenodd" clip-rule="evenodd" d="M9.6584 2.908C10.2951 2.251 11.1485 2 11.9978 2c.909 0 1.7489.3343 2.3543.9985.5984.6566.8895 1.5482.8895 2.534 0 .9868-.2922 1.8708-.9025 2.5154C13.725 8.6966 12.8854 9 11.9978 9c-.8786 0-1.7213-.2911-2.3421-.9367-.6187-.6434-.9141-1.531-.9141-2.5308 0-1.0545.283-1.9706.9168-2.6246zm1.4361 1.3919c-.1654.1706-.3529.5208-.3529 1.2326 0 .6106.175.9567.3557 1.1445.1784.1856.4639.323.9005.323.4278 0 .7101-.1381.889-.3271.1827-.193.3548-.5429.3548-1.1404 0-.5987-.1731-.9733-.3677-1.1868-.1877-.206-.4697-.3457-.8761-.3457-.466 0-.7406.132-.9033.2999z"></path><path d="M4.5957 14.6576C4.1893 12.2195 6.0695 10 8.5413 10h6.9172c2.4718 0 4.3519 2.2195 3.9456 4.6576L18.1804 22h-2.0276l1.2785-7.6712C17.6345 13.1097 16.6944 12 15.4585 12H8.5413c-1.236 0-2.176 1.1097-1.9728 2.3288L7.847 22H5.8194l-1.2237-7.3424z"></path></svg>