<svg viewBox="0 0 24 24" focusable="false" width="24" height="24" aria-hidden="true" class="svg-icon" xmlns="http://www.w3.org/2000/svg"><path fill-rule="evenodd" clip-rule="evenodd" d="M12.0039 4c-.9643 0-1.9427.2668-2.6835.978-.7495.7194-1.1147 1.7578-1.1147 3.0103 0 1.1814.3774 2.2019 1.0938 2.9312C10.014 11.6472 10.9833 12 12.0039 12c1.0207 0 1.9911-.3533 2.7079-1.0769.7195-.7262 1.1033-1.7439 1.1033-2.9231 0-1.2594-.3694-2.3007-1.1223-3.0212C13.9491 4.267 12.9683 4 12.0039 4zm-1.7982 3.9883c0-.867.2447-1.3228.4997-1.5676.2637-.253.6844-.4207 1.2985-.4207.614 0 1.0387.1679 1.3061.4237.2581.247.5051.7057.5051 1.5763 0 .739-.2327 1.2213-.5241 1.5155-.2942.297-.7293.4845-1.2871.4845s-.9877-.1868-1.2776-.4819c-.2881-.2934-.5206-.7788-.5206-1.5298z"></path><path d="M12.1167 13H9.9839c-1.2017 0-2.2895.2393-3.2174.7708l-.005.0029c-.8983.5215-1.593 1.2515-2.0672 2.174-.4699.914-.6904 1.9401-.6904 3.0523v1h2v-1c0-.8443.166-1.5483.4691-2.1379.2983-.5803.7228-1.0273 1.29-1.3572C8.3213 15.1858 9.0464 15 9.9839 15h.9899l1.1429-2z"></path><path fill-rule="evenodd" clip-rule="evenodd" d="M13.0277 16.5H10l1.4998 5h9.0001l1.4998-5h-3.0304c-.1775-1.6154-1.1048-3.5-2.9706-3.5-1.8633 0-2.8004 1.8827-2.971 3.5zm2.0173 0h1.9059c-.082-.4844-.3163-1.5-.9522-1.5-.6374 0-.8736 1.0137-.9537 1.5z"></path></svg>