<svg viewBox="0 0 24 24" focusable="false" width="24" height="24" aria-hidden="true" class="svg-icon" xmlns="http://www.w3.org/2000/svg"><path d="M9.6593 2.908C10.2958 2.251 11.149 2 11.998 2c.9086 0 1.7482.3343 2.3533.9985.5982.6566.8892 1.5482.8892 2.534 0 .9868-.292 1.8708-.9021 2.5154C13.7245 8.6966 12.8852 9 11.998 9c-.8784 0-1.7208-.2911-2.3414-.9367-.6184-.6434-.9137-1.531-.9137-2.5308 0-1.0545.2828-1.9706.9164-2.6246zm1.4357 1.3919c-.1654.1706-.3529.5208-.3529 1.2326 0 .6106.175.9567.3556 1.1445.1784.1856.4637.323.9003.323.4276 0 .7097-.1381.8886-.3271.1827-.193.3546-.5429.3546-1.1404 0-.5987-.173-.9733-.3675-1.1868C12.686 4.1397 12.4042 4 11.998 4c-.4659 0-.7405.132-.903.2999z" fill-rule="evenodd" clip-rule="evenodd"></path><path d="M5.1624 15.12C4.4162 12.56 6.3354 10 9.0011 10h5.9978c2.6657 0 4.585 2.56 3.8386 5.12L16.8316 22H14.749l2.1692-7.44c.3732-1.28-.5864-2.56-1.9193-2.56H9.0011c-1.3329 0-2.2925 1.28-1.9193 2.56L9.251 22H7.1684l-2.006-6.88z"></path></svg>