<svg viewBox="0 0 24 24" focusable="false" width="24" height="24" aria-hidden="true" class="svg-icon" xmlns="http://www.w3.org/2000/svg"><path d="M3.7553 10H2.0686C2.5656 6.4061 5.7033 3.6363 9.5 3.6363V2L12 4.4545 9.5 6.9091V5.2727c-2.8742 0-5.2629 2.041-5.7447 4.7272zM17 19c.5523 0 1-.4477 1-1s-.4477-1-1-1-1 .4477-1 1 .4477 1 1 1z"></path><path d="M15 5c-1.6569 0-3 1.3431-3 3v11c0 1.6569 1.3431 3 3 3h4c1.6569 0 3-1.3431 3-3V8c0-1.6569-1.3431-3-3-3h-4zm-1 3c0-.5523.4477-1 1-1h4c.5523 0 1 .4477 1 1v11c0 .5523-.4477 1-1 1h-4c-.5523 0-1-.4477-1-1V8z" fill-rule="evenodd" clip-rule="evenodd"></path><path d="M2 19c0 1.6569 1.3432 3 3 3h5v-2H5c-.5523 0-1-.4477-1-1v-4c0-.5523.4477-1 1-1h5v-2H5c-1.6568 0-3 1.3431-3 3v4z"></path></svg>