<svg viewBox="0 0 24 24" focusable="false" width="24" height="24" aria-hidden="true" class="svg-icon" xmlns="http://www.w3.org/2000/svg"><path fill-rule="evenodd" clip-rule="evenodd" d="M3.9827 4.9777c.8928.0736 1.7354.4357 2.5777.7159 3.6179-.7218 7.2626-.7214 10.8789 0 .8423-.2802 1.6849-.6423 2.5777-.7159-.0726.8809-.4377 1.7373-.7142 2.5675.5671 2.9541.5676 5.954.0003 8.9096.2794.8391.6409 1.6783.7142 2.5675-.8831-.0728-1.7443-.4387-2.5777-.7159-3.6163.7215-7.261.7218-10.8789 0-.8334.2772-1.6946.6431-2.5777.7159.0726-.8809.4377-1.7373.7142-2.5675-.5674-2.9556-.5674-5.9554-.0003-8.9096-.2765-.8302-.6417-1.6881-.7142-2.5675zM6.6873 3.68C5.541 3.3 3.5672 2.458 2.512 3.5087 1.455 4.561 2.3016 6.5355 2.6817 7.68c-.5319 2.9222-.5316 5.7179.0003 8.64-.3801 1.1445-1.2266 3.119-.1697 4.1713 1.0552 1.0506 3.029.2086 4.1753-.1713 3.9942.7756 6.631.7756 10.6251 0 1.1463.3799 3.1201 1.2219 4.1753.1713 1.0569-1.0523.2104-3.0268-.1697-4.1713.5318-2.922.5315-5.7182-.0003-8.64.3801-1.1445 1.2266-3.119.1697-4.1713-1.0552-1.0506-3.029-.2086-4.1753.1713-3.9941-.7756-6.6309-.7756-10.625 0z"></path></svg>