<svg viewBox="0 0 24 24" focusable="false" width="24" height="24" aria-hidden="true" class="svg-icon" xmlns="http://www.w3.org/2000/svg"><path d="M15.246 13.7472c.8296 0 1.5021.6728 1.5021 1.5028-.0002.8299-.6726 1.5028-1.5021 1.5028-.8294-.0002-1.502-.6731-1.5022-1.5028 0-.8298.6727-1.5026 1.5022-1.5028zm-4.7979-1.8022c.8296 0 1.5021.6728 1.5021 1.5028s-.6725 1.5028-1.5021 1.5028c-.8295 0-1.5021-.6729-1.5022-1.5028 0-.8299.6726-1.5027 1.5022-1.5028zm3.0043-3.0056c.8296 0 1.5021.6728 1.5021 1.5028 0 .8299-.6725 1.5028-1.5021 1.5028-.8296-.0001-1.5021-.6729-1.5022-1.5028 0-.83.6726-1.5028 1.5022-1.5028z"></path><path fill-rule="evenodd" clip-rule="evenodd" d="m15.5794 2.6512 5.9186 17.7501-1.0943 1.0948-17.7754-5.9222c-.5377-3.6889.5957-7.083 3.2762-9.7126 2.6244-2.46 6.0511-3.8495 9.6749-3.21zm-.5701 4.6259c-1.9649-.013-3.9267.9705-5.3631 2.3775-1.4983 1.4677-2.3974 3.3224-2.3784 5.3518L18.878 18.875 15.0093 7.277zm-.9428-2.8276c-2.5677-.1972-4.9446 1.139-6.7596 2.8422-1.9081 1.8719-3.0186 4.2457-2.8498 6.7784l.8254.2749c.1632-2.375 1.297-4.4906 2.9623-6.1218 1.5472-1.5156 3.7333-2.7425 6.1034-2.9274l-.2817-.8463z"></path></svg>