<svg viewBox="0 0 24 24" focusable="false" width="24" height="24" aria-hidden="true" class="svg-icon" xmlns="http://www.w3.org/2000/svg"><path fill-rule="evenodd" clip-rule="evenodd" d="m17.9998 2.9789-.0215-.9557-.9557-.0215c-.6413-.0145-1.5104.0644-2.3688.2878-.8415.219-1.792.6073-2.4788 1.2943-.4775.4776-.8506 1.0518-1.0634 1.6638-.5861-.4826-1.3203-.7572-1.9645-.9147-.7507-.1835-1.5114-.24-2.0755-.2178l-.9237.0363-.0363.9237c-.0221.564.0343 1.3248.2178 2.0755.179.7323.5094 1.581 1.1247 2.1961.5567.5565 1.2694.95 2.0202 1.0631.5055.0761 1.0393.0233 1.5257-.2027v1.7925H5.5v5h1.6803l1 5h7.6396l1-5H18.5v-5H13V9.0191c.3839.0849.7798.0868 1.1606.0233.8306-.1387 1.6276-.5868 2.257-1.216.687-.6867 1.0754-1.6372 1.2944-2.4788.2233-.8583.3023-1.7274.2878-2.3687zm-4.4104 2.019c.3249-.3251.8802-.594 1.568-.7729a7.0405 7.0405 0 0 1 .7729-.1539 7.02 7.02 0 0 1-.1539.773c-.1789.6878-.4477 1.243-.7728 1.568-.3827.3825-.8147.5979-1.1723.6576-.3422.057-.5684-.0273-.7203-.1792-.1519-.152-.2363-.3782-.1792-.7203.0597-.3576.275-.7897.6576-1.1724zM8.2722 6.6755c.1413.5781.3548 1.0157.5959 1.2567.2997.2996.6352.4593.904.4998.2525.038.4115-.0265.5207-.1357.1093-.1093.1738-.2683.1358-.5207-.0405-.2689-.2002-.6044-.4998-.904-.241-.2411-.6786-.4546-1.2567-.596a5.6685 5.6685 0 0 0-.4974-.0975c.0247.1635.0568.331.0975.4974zm.9477 10.324h5.5604l-.6 3H9.8199l-.6-3zm7.2801-3v1h-9v-1h9z"></path></svg>