<svg viewBox="0 0 24 24" focusable="false" width="24" height="24" aria-hidden="true" class="svg-icon" xmlns="http://www.w3.org/2000/svg"><path d="M11.9126 2.0655c1.169-.2863 2.4912.387 2.8199 1.6043a2.3299 2.3299 0 0 1 .5445-.09c1.1154-.0456 2.2239.7293 2.4028 1.9291.0055.0373.0095.073.014.106a3.854 3.854 0 0 1 .3199.115c.8257.3401 1.4084 1.155 1.416 2.054.0114 1.3868-1.2225 2.3251-2.4559 2.266l-.8404 6.1452c.4218-.5027 1.0542-.8176 1.7138-.8446 1.1152-.0453 2.2239.7295 2.4028 1.9291.0055.0372.0095.0729.014.106.0415.013.0861.0264.1324.043l.1875.0719c.8255.3402 1.4083 1.1553 1.416 2.0541.0121 1.4705-1.3767 2.4375-2.6795 2.245a2.369 2.369 0 0 1-1.065-.4408 2.3506 2.3506 0 0 1-1.058.5757l-.2467.046c-.7824.1021-1.597-.202-2.1139-.7916l-8.3615.001-1.5764-11.0041c-.974-.1853-1.8303-.9588-1.8954-2.079-.0528-.9125.4933-1.7734 1.3157-2.156-.0004-.0225-.0021-.0461-.002-.07l.006-.177c.0708-1.2136 1.1103-2.0781 2.2253-2.124.236-.0096.4713.02.698.08.38-1.0134 1.4898-1.6151 2.5431-1.4594.3863.0573.753.2091 1.065.4408a2.349 2.349 0 0 1 1.058-.5757zm5.9978 14.8193c-.4128.017-.731.3384-.7511.6787l-.001.1689c.0021.0438.0055.077.009.102.0022.0148.0051.0295.0081.047.0023.0143.0064.0416.01.0659.0054.0367.0247.1621.002.3069-.0678.431-.4068.6148-.5044.6667-.0976.0518-.2681.1249-.4102.1899-.281.1288-.4476.4222-.4332.6777.0225.3873.4338.7318.8965.6727l.0933-.018a.8183.8183 0 0 0 .3119-.1509l.0822-.075c.134-.1428.1872-.2303.2046-.2619.0088-.0161.0131-.0275.023-.0499.0029-.0066.0226-.0519.0472-.095a.8182.8182 0 0 1 .1073-.1469.783.783 0 0 1 .3921-.2309c.4723-.1135.7597.2337.7651.2399a.9385.9385 0 0 1 .0893.1179.9686.9686 0 0 0 .0391.058c.0239.0326.0895.1158.2427.2469.1122.0959.2549.1615.4121.1849.4969.0733.9168-.311.9136-.7127-.0023-.2516-.1811-.5311-.4633-.6477-.1713-.0706-.2769-.0961-.339-.1089-.0177-.0037-.0347-.0075-.0541-.011-.0159-.003-.0452-.0077-.0712-.013-.0364-.0075-.1771-.0346-.3189-.12-.388-.2337-.4218-.6557-.4282-.7017-.0083-.0577-.0166-.1358-.0241-.1989a8.5001 8.5001 0 0 0-.0351-.2619c-.0513-.3409-.4007-.6364-.8153-.6197zm-5.9226 2.258h1.6707l1.2395-9.0629a2.384 2.384 0 0 1-.2708.084c-1.0153.2486-2.1437-.228-2.6394-1.1545v10.1334zM9.934 9.4602c-.5168.447-1.2254.6703-1.9124.5687a2.3696 2.3696 0 0 1-1.065-.4408c-.02.019-.0415.0367-.0621.055l1.3628 9.4997H9.934V9.4602zm-3.3223-4.346c-.4128.017-.7311.3384-.7511.6786l-.001.169c.002.0436.0054.077.009.1019.002.0148.005.0295.008.047.0024.0143.0064.0416.01.066.0054.0366.0247.162.002.3068-.0679.4313-.407.614-.5044.6657-.0977.0519-.268.1258-.4101.191-.281.1288-.4477.4221-.4333.6776.024.4131.4905.7769.9898.6547a.8166.8166 0 0 0 .3129-.1509l.0812-.076c.1347-.1434.1874-.2305.2046-.2619.0088-.016.0131-.0265.023-.049.0022-.005.0222-.0509.0472-.0949a.8232.8232 0 0 1 .1073-.147.783.783 0 0 1 .3921-.2308c.4669-.1125.753.2257.7652.2399.0495.055.0865.1122.0902.118.0201.031.0242.0389.0381.0579.0239.0326.09.1161.2427.2469.1121.0958.2551.1615.4122.1849.497.0735.9167-.311.9135-.7127-.0023-.2518-.1808-.5322-.4633-.6487-.1715-.0706-.277-.0961-.339-.109-.0176-.0036-.0347-.0064-.054-.01a4.2615 4.2615 0 0 1-.0713-.014c-.037-.0075-.1775-.0338-.3189-.1189-.3886-.2344-.422-.6588-.4282-.7027-.0082-.0576-.0166-.135-.024-.1979a8.7583 8.7583 0 0 0-.0352-.2618c-.0512-.341-.4005-.6367-.8152-.6198zm8.7285 0c-.4128.017-.7312.3383-.7511.6786l-.001.169a1.088 1.088 0 0 0 .009.1019c.0021.0148.0051.0295.008.047.0024.0143.0065.0416.0101.066.0053.0366.0247.162.002.3068-.0679.4313-.4071.614-.5045.6657-.0977.0519-.268.1258-.4101.191-.281.1288-.4478.4221-.4332.6776.024.4131.4904.7768.9898.6547a.8165.8165 0 0 0 .3128-.1509l.0813-.076c.1347-.1434.1874-.2305.2045-.2619.0089-.0161.0131-.0265.0231-.049a1.0623 1.0623 0 0 1 .0471-.0949.8279.8279 0 0 1 .1073-.147.783.783 0 0 1 .3921-.2308c.4677-.1127.754.2268.7652.2399a1.003 1.003 0 0 1 .0902.118c.0202.031.0242.0388.0382.0579a.9242.9242 0 0 0 .0722.086l.1704.1609c.1121.0958.2551.1615.4122.1849.497.0735.9167-.311.9136-.7127-.0023-.2518-.1808-.5322-.4633-.6487-.1715-.0706-.277-.0961-.339-.109-.0177-.0036-.0348-.0064-.0541-.01a4.1827 4.1827 0 0 1-.0712-.014c-.037-.0075-.1775-.0337-.3189-.1189-.3888-.2344-.422-.6588-.4282-.7027-.0083-.0576-.0167-.135-.0241-.1979a8.809 8.809 0 0 0-.0351-.2618c-.0512-.3411-.4005-.6367-.8153-.6198zm-2.9663-1.5754-.0933.018c-.1567.0385-.293.1193-.3941.227-.1348.1434-.1874.2304-.2046.2618-.0088.0162-.0131.0265-.0231.049a1.034 1.034 0 0 1-.0471.095.8187.8187 0 0 1-.1073.1469.783.783 0 0 1-.3921.2309c-.4664.1124-.7525-.225-.7651-.24a1.0259 1.0259 0 0 1-.0903-.1179c-.0201-.031-.0242-.039-.0381-.058-.0239-.0326-.09-.1161-.2427-.2468-.112-.0958-.2552-.1615-.4121-.185-.497-.0734-.9168.311-.9136.7127.0023.2519.1808.5323.4633.6487.1714.0706.277.0962.339.109.0175.0036.0348.0064.0541.01.0161.003.0454.0087.0712.014.0373.0076.1777.034.3189.119.3886.2344.4219.6587.4282.7026.0082.0577.0166.135.0241.198a8.499 8.499 0 0 0 .0351.2618c.0512.341.4005.6367.8153.6197.4126-.0172.7311-.3384.7511-.6787l.001-.1689a1.0863 1.0863 0 0 0-.0091-.102c-.0021-.0148-.0051-.0294-.008-.047-.0024-.0143-.0064-.0415-.01-.0659-.0054-.0366-.0247-.162-.002-.3068.0679-.4313.407-.614.5044-.6658.0978-.0518.2681-.1258.4102-.1909.2809-.1288.4477-.4222.4332-.6777-.0225-.3871-.434-.7315-.8965-.6727z" fill-rule="evenodd" clip-rule="evenodd"></path></svg>