<svg viewBox="0 0 24 24" focusable="false" width="24" height="24" aria-hidden="true" class="svg-icon" xmlns="http://www.w3.org/2000/svg"><path d="M19.205 5.599c.9541.954 1.4145 2.2788 1.4191 3.6137 0 3.0657-2.2028 5.7259-4.1367 7.5015-1.2156 1.1161-2.5544 2.1393-3.9813 2.9729L12 20.001v-2.3516c.6699-.4304 1.9095-1.2834 3.1347-2.4084 1.8786-1.7247 3.4884-3.8702 3.4894-6.0264-.0037-.849-.2644-1.6326-.8333-2.2015-1.1036-1.1035-2.9413-1.0999-4.0445.0014l-1.7517 1.7448-1.7461-1.7462c-1.1165-1.1164-2.9267-1.1164-4.0431 0-1.6837 1.6837-.5313 4.4136.6406 6.0155.3487.4768.7386.9326 1.1472 1.3617L8 11.9982l2 .0057-.017 6-6-.0171.0056-2 2.7743.0079c-.5387-.5472-1.0629-1.1451-1.5311-1.7852-1.0375-1.4183-1.8594-3.1249-1.8597-4.9957-.0025-1.2512.3936-2.5894 1.419-3.6149 1.8976-1.8975 4.974-1.8975 6.8716 0l.3347.3347.336-.3347c1.8728-1.8722 4.9989-1.8727 6.8716 0z"></path></svg>