<svg viewBox="0 0 24 24" focusable="false" width="24" height="24" aria-hidden="true" class="svg-icon" xmlns="http://www.w3.org/2000/svg"><path d="M11.9988 21h8v-8h-8v8zm6-2h-4v-4h4v4z" fill-rule="evenodd" clip-rule="evenodd"></path><path d="M17.656 6.3428a8.0011 8.0011 0 0 0-3.335-1.998c-1.2655-.3646-2.5866-.4493-3.8828-.1915-1.288.2764-2.4925.8234-3.5146 1.6621-1.0044.8535-1.809 1.9006-2.3155 3.123-.4541 1.1477-.674 2.3639-.5908 3.5997.1042 1.3125.4969 2.5791 1.1963 3.6992.9154 1.4164 2.2216 2.5453 3.7852 3.1777v-2.2226c-.9173-.525-1.6287-1.2825-2.1846-2.1719-.5031-.8637-.7433-1.8118-.8115-2.8008-.0319-.8715.1458-1.7061.4531-2.5156.3823-.9228.9887-1.6912 1.7363-2.3418.7726-.634 1.6699-1.024 2.6358-1.247.9804-.195 1.9559-.1154 2.9131.1435a6.001 6.001 0 0 1 2.5 1.499L13.9988 10h6V4L17.656 6.3428z"></path></svg>