<svg viewBox="0 0 24 24" focusable="false" width="24" height="24" aria-hidden="true" class="svg-icon" xmlns="http://www.w3.org/2000/svg"><path d="M2 20V3c6.816 1.136 13.184 1.136 20 0v17c-1.6643-.2774-3.3263-.5905-5-.8069v-2.0158c1.0047.1235 2.0018.2954 3 .4618V5.3609c-5.3761.896-10.6239.896-16 0v12.2782c.9982-.1664 1.9953-.3383 3-.4618v2.0158c-1.6737.2164-3.3357.5295-5 .8069z"></path><path fill-rule="evenodd" clip-rule="evenodd" d="M14.677 8H9.323l-2.8 7H11v4h-1v2h4v-2h-1v-4h4.477l-2.8-7zm-5.2 5 1.2-3h2.6459l1.2 3H9.477z"></path></svg>