<svg viewBox="0 0 24 24" focusable="false" width="24" height="24" aria-hidden="true" class="svg-icon" xmlns="http://www.w3.org/2000/svg"><path d="m5 2.5167 3.0778 11.4649L8.078 14H17v-1.9969H9.6172L6.9318 2 5 2.5167zM5 17h4.2002l-1.4007 1.3678a5.9504 5.9504 0 0 0 1.9268 1.2571 6.0641 6.0641 0 0 0 2.2731.4416c.78 0 1.5524-.1501 2.2731-.4416a5.952 5.952 0 0 0 1.9271-1.2574L14.7998 17H19v4.1017l-1.3961-1.3634-.0428.0339a7.9387 7.9387 0 0 1-2.5309 1.6391A8.085 8.085 0 0 1 11.9994 22c-1.0401 0-2.07-.2-3.0309-.5887a7.936 7.936 0 0 1-2.557-1.6645l-.0125-.0114L5 21.1017V17z"></path></svg>