<svg viewBox="0 0 24 24" focusable="false" width="24" height="24" aria-hidden="true" class="svg-icon" xmlns="http://www.w3.org/2000/svg"><path d="M3 7.063v5.9999H1l3 3 3-3H5v-6H3z"></path><path fill-rule="evenodd" clip-rule="evenodd" d="m15 12.882 7.2361 3.618L15 20.118 7.764 16.5 15 12.882zm0 5 2.7639-1.382L15 15.118 12.2361 16.5 15 17.882z"></path><path d="m15 8.413 7.236 3.6181-2.2313 1.1157L15 10.6444l-5.0048 2.5024-2.2313-1.1157L15 8.4131z"></path><path d="m15 3.9448 7.236 3.618-2.2322 1.1162L15 6.1771 9.9962 8.679 7.7639 7.5629 15 3.9449z"></path></svg>