<svg viewBox="0 0 24 24" focusable="false" width="24" height="24" aria-hidden="true" class="svg-icon" xmlns="http://www.w3.org/2000/svg"><path d="M2 2h1v20H2V2zm5.5 0h-1v20h1V2zM12 2h-1v20h1V2zm3 14.9V20h-2v-3.1c.3231.0656.6575.1 1 .1s.6769-.0344 1-.1zm-1-.9a4.0101 4.0101 0 0 1-1-.126v-2.1416A1.9906 1.9906 0 0 0 14 14c1.1046 0 2-.8954 2-2s-.8954-2-2-2c-.3643 0-.7058.0974-1 .2676V8.126A4.0069 4.0069 0 0 1 14 8c2.2091 0 4 1.7909 4 4 0 2.2091-1.7909 4-4 4zm0-9c-.3425 0-.6769.0344-1 .1V4h2v3.1a5.0225 5.0225 0 0 0-1-.1zm4.1716 2.2426 2.1924-2.1923-1.4142-1.4143-2.1924 2.1924a5.0263 5.0263 0 0 1 1.4142 1.4142zM18.9 13H22v-2h-3.1c.0656.3231.1.6575.1 1s-.0344.6769-.1 1zm-2.1426 3.1716 2.1924 2.1924 1.4142-1.4142-2.1924-2.1924a5.0254 5.0254 0 0 1-1.4142 1.4142z"></path></svg>