<svg viewBox="0 0 24 24" focusable="false" width="24" height="24" aria-hidden="true" class="svg-icon" xmlns="http://www.w3.org/2000/svg"><path d="M4 12h16v1H4v-1z" fill="#FF0303"></path><path d="M4 13h16v1H4v-1z" fill="#FF7C03"></path><path fill="#FAFF03" d="M5 14h10v1H5z"></path><path fill="#72FF03" d="M5 15h10v1H5z"></path><path fill="#2603FF" d="M5 16h10v1H5z"></path><path fill="#9F03FF" d="M5 17h10v1H5z"></path><circle cx="18.5" cy="17.5" r="2.5" fill="#489CE3"></circle><path fill-rule="evenodd" clip-rule="evenodd" d="M12.0001 4c-1.7048 0-2.9806 1.122-3.4578 2.7127C8.2177 7.7946 7.9705 8.9013 7.7088 10H1.5571l3.7501 10h9.6933v-2H6.6932l-2.25-6h3.3251c.6633 2.1065 1.7665 4 4.2318 4 2.4654 0 3.5685-1.8935 4.2318-4h3.3252l-.75 2h2.136l1.5-4h-6.1516c-.2617-1.0987-.5089-2.2054-.8335-3.2873C14.9808 5.122 13.705 4 12.0001 4zm2.2349 6c-.2293-.9532-.5299-2.1701-.6927-2.7127C13.316 6.533 12.8259 6 12.0001 6s-1.3158.533-1.5421 1.2873C10.2952 7.83 9.9946 9.0468 9.7653 10h4.4697zm-4.361 2h4.2523c-.3635 1.0612-.8841 2-2.1262 2-1.242 0-1.7626-.9388-2.1261-2z"></path></svg>