<svg viewBox="0 0 24 24" focusable="false" width="24" height="24" aria-hidden="true" class="svg-icon" xmlns="http://www.w3.org/2000/svg"><path d="M4.908 7.4168C4.251 8.0535 4 8.907 4 9.7563c0 .9089.3343 1.7489.9985 2.3542.6566.5984 1.5482.8895 2.534.8895.9868 0 1.8708-.2922 2.5154-.9024.6487-.6142.9521-1.4538.9521-2.3413 0-.8787-.2911-1.7214-.9367-2.3422C9.4199 6.7954 8.5322 6.5 7.5325 6.5c-1.0545 0-1.9706.283-2.6246.9168zM6.2998 8.853c.1706-.1654.5208-.3529 1.2326-.3529.6106 0 .9567.175 1.1445.3557.1856.1784.323.4639.323.9006 0 .4278-.1381.71-.3271.8889C8.4799 10.828 8.13 11 7.5325 11c-.5987 0-.9733-.1731-1.1868-.3677-.206-.1877-.3457-.4697-.3457-.876 0-.466.132-.7407.2999-.9033z" fill-rule="evenodd" clip-rule="evenodd"></path><path d="M16.8989 11.4363C16.0577 11.1209 14.9426 11 14.0002 11H12V9h2.0002c1.0574 0 2.4422.1291 3.601.5637C18.7307 9.9872 20 10.8608 20 12.5c0 .675-.172 1.2926-.5456 1.8156-.3679.5151-.8785.8649-1.4354 1.1035-1.076.4612-2.504.5809-4.0188.5809h-3.9995l-.0005-2h4c1.485 0 2.557-.1303 3.2309-.4191.3181-.1364.4949-.2866.5958-.4277.0951-.1333.1731-.3282.1731-.6532 0-.3608-.2307-.7373-1.1011-1.0637z"></path><path d="M4 16v-2H2v2c0 2.2091 1.7909 4 4 4h16v-2H6c-1.1046 0-2-.8954-2-2z"></path></svg>