<svg viewBox="0 0 24 24" focusable="false" width="24" height="24" aria-hidden="true" class="svg-icon" xmlns="http://www.w3.org/2000/svg"><path d="m21.8995 21.8995-1.4141 1.4143-5.3132-5.3132h-.6725v-.6725l-1.4995-1.4995v2.1715h-10v-3h9.1715L.6864 3.5148l1.4142-1.4142 19.7989 19.7989zm-1.8998-4.7282v-2.1707h-2v.1707l2 2zm-3.6724-3.6724h.1702c0-.3081.1165-.6115.1937-.9063a5 5 0 0 0-.1528-3.0153l-.5275-1.413a3.0002 3.0002 0 0 1-.1047-1.7575l.3307-1.4028h-2.0582l-.2159.9307a4.9999 4.9999 0 0 0 .1744 2.9291l.5276 1.413c.2121.5682.2011 1.1134.1042 1.6638l1.5583 1.5583zm1.6701 0h2c0-.3161.1145-.623.1938-.9258a5 5 0 0 0-.1528-3.0153l-.5275-1.413a3.0002 3.0002 0 0 1-.1047-1.7575l.3259-1.3833H17.674l-.2112.9112a4.9999 4.9999 0 0 0 .1744 2.929l.5276 1.4131c.309.8279.1445 1.6072-.0695 2.4245-.0701.2678-.0979.5408-.0979.8171z"></path></svg>