<svg viewBox="0 0 24 24" focusable="false" width="24" height="24" aria-hidden="true" class="svg-icon" xmlns="http://www.w3.org/2000/svg"><path d="M11 11V9.4142l-5.2071-5.207L7.207 2.7928 11 6.5858V2h2v4.5858l3.7929-3.793 1.4142 1.4143L13 9.4142V11h1.5858l5.2071-5.2071 1.4142 1.4142L17.4142 11H22v2h-4.5858l3.7929 3.7929-1.4142 1.4142L14.5858 13H13v1.5858l5.2071 5.2071-1.4142 1.4142L13 17.4142V22h-2v-4.5858l-3.7929 3.7929-1.4142-1.4142L11 14.5858V13H9.4142l-5.207 5.2071-1.4143-1.4142L6.5858 13H2v-2h4.5858l-3.793-3.7929L4.2072 5.793 9.4142 11H11z" fill-rule="evenodd" clip-rule="evenodd"></path></svg>