<svg viewBox="0 0 24 24" focusable="false" width="24" height="24" aria-hidden="true" class="svg-icon" xmlns="http://www.w3.org/2000/svg"><path fill-rule="evenodd" clip-rule="evenodd" d="M5 9.5V7.5384C5 6.1364 6.1365 5 7.5384 5h8.9231C17.8635 5 19 6.1365 19 7.5384V9.5h.5c1.6569 0 3 1.3432 3 3v2c0 1.4865-1.0811 2.7205-2.5 2.9585V19h-2v-1.5H6V19H4v-1.5415c-1.4189-.238-2.5-1.472-2.5-2.9585v-2c0-1.6568 1.3432-3 3-3H5zm2-1.9616C7 7.2411 7.241 7 7.5384 7h8.9231c.2974 0 .5385.241.5385.5384V11.5H7V7.5384zM3.5 12.5c0-.5523.4477-1 1-1H5v2h14v-2h.5c.5523 0 1 .4477 1 1v2c0 .5523-.4477 1-1 1h-15c-.5523 0-1-.4477-1-1v-2z"></path></svg>