<svg viewBox="0 0 24 24" focusable="false" width="24" height="24" aria-hidden="true" class="svg-icon" xmlns="http://www.w3.org/2000/svg"><path d="M2 7v12h2v2h2v-2h12v2h2v-2h2V7c0-1.6569-1.3431-3-3-3H5C3.3432 4 2 5.3431 2 7zm3-1c-.5523 0-1 .4477-1 1v1.3368c1.3072-.621 2.9134-.352 3.9495.6632H14.64c.7598 0 1.842.2618 2.7508 1.0407.7658.6564 1.3464 1.627 1.5397 2.9593H20V7c0-.5523-.4477-1-1-1H5zm11.8994 7c-.2376-1.0735-1.0995-2-2.2594-2H8.9646c.097.678-.0073 1.3809-.3014 2h8.2362zM5.5 13c-.8284 0-1.5-.6716-1.5-1.5S4.6716 10 5.5 10s1.5.6716 1.5 1.5S6.3284 13 5.5 13zM4 15v2h16v-2H4z" fill-rule="evenodd" clip-rule="evenodd"></path></svg>