<svg viewBox="0 0 24 24" focusable="false" width="24" height="24" aria-hidden="true" class="svg-icon" xmlns="http://www.w3.org/2000/svg"><path d="M13 2h-2v3h2V2zM9.1729 7.1729C9.9195 6.4262 10.9435 6 12 6c1.0565 0 2.0805.4262 2.8271 1.1729A3.997 3.997 0 0 1 16 10h-2a1.997 1.997 0 0 0-.5871-1.4129C13.0395 8.2138 12.5235 8 12 8c-.5235 0-1.0395.2138-1.4129.5871C10.2138 8.9605 10 9.4765 10 10H8c0-1.0565.4262-2.0804 1.1729-2.8271zM9 16.7143h2.8831L10.7143 21h.4286L15 16.2857h-2.8831L13.2857 12h-.4286L9 16.7143z"></path><path d="M9.5 12H6c-1.6569 0-3 1.3432-3 3v3c0 1.6569 1.3431 3 3 3h3.5v-2H6c-.5523 0-1-.4477-1-1v-3c0-.5523.4477-1 1-1h3.5v-2zm5 7H18c.5523 0 1-.4477 1-1v-3c0-.5523-.4477-1-1-1h-3.5v-2H18c1.6569 0 3 1.3432 3 3 .5523 0 1 .4477 1 1v1c0 .5523-.4477 1-1 1 0 1.6569-1.3431 3-3 3h-3.5v-2zM4 8v2h3V8H4zm12.38-4.78 1.53 1.29-1.93 2.3-1.53-1.29 1.93-2.3zm-8.76.01L6.09 4.52l1.93 2.3 1.53-1.29-1.93-2.3zM20 8v2h-3V8h3z"></path></svg>