<svg viewBox="0 0 24 24" focusable="false" width="24" height="24" aria-hidden="true" class="svg-icon" xmlns="http://www.w3.org/2000/svg"><path d="M14 4.5c0 1 2 1.5 2 2.5s-2 1.5-2 2.5 2 1.5 2 2.5-2 1.5-2 2.5 2 1.5 2 2.5-2 1.5-2 2.5 2 1.5 2 2.5h2V2h-2c0 1-2 1.5-2 2.5zm-5.0001 7.4998c0-1.6228-.59-3.4632-2.1017-4.9792l1.4162-1.4122c1.918 1.9234 2.6855 4.2869 2.6855 6.3914 0 2.4295-.9777 4.7693-2.6264 6.4181l-1.4143-1.4142C8.2282 15.7347 9 13.9055 9 11.9998z"></path><path d="M6 11.9997c0-1.0575-.5195-2.2173-1.2178-2.9157L6.1966 7.67C7.2482 8.7217 8 10.382 8 11.9996c0 1.6108-.6802 3.1715-1.7702 4.2615L4.8156 14.847C5.542 14.1206 6 13.064 6 11.9997z"></path></svg>