<svg viewBox="0 0 24 24" focusable="false" width="24" height="24" aria-hidden="true" class="svg-icon" xmlns="http://www.w3.org/2000/svg"><path d="M22.0002 19.1713V3.9998H6.8286l2 2h11.1716v2h-9.1716l2 2h7.1716v7.1715l2 2z"></path><path fill-rule="evenodd" clip-rule="evenodd" d="m21.9202 21.9201-1.4142 1.4142-3.3345-3.3345H2.0001V4.8284l-1.293-1.293 1.414-1.4144 19.799 19.799zM5.1715 7.9998 4 6.8284v1.1714h1.1714zm4 4-2-2H4v8h3v-6h2.1714zm3.8287 6v-2.1714l2 2v.1714h-2zm-2-4h-2v4h2v-4z"></path><path d="M17.0002 14.1713v-2.1715h-2.1716l2.1716 2.1715z"></path></svg>