<svg viewBox="0 0 24 24" focusable="false" width="24" height="24" aria-hidden="true" class="svg-icon" xmlns="http://www.w3.org/2000/svg"><path d="M12.8684 8H2v14h2v-2h14v2h2v-9H4v-3h9.9211l-1.0527-2zM4 18v-3h14v3H4z" fill-rule="evenodd" clip-rule="evenodd"></path><path d="M15 4c.75-.75 1.5-3 1.5-3s.75 2.25 1.5 3 3 1.5 3 1.5-2.25.75-3 1.5-1.5 3-1.5 3-.75-2.25-1.5-3-3-1.5-3-1.5 2.25-.75 3-1.5zm4.1667 5.1667C19.5833 8.75 20 7.5 20 7.5s.4167 1.25.8333 1.6667C21.25 9.5833 22.5 10 22.5 10s-1.25.4167-1.6667.8333C20.4167 11.25 20 12.5 20 12.5s-.4167-1.25-.8333-1.6667C18.75 10.4167 17.5 10 17.5 10s1.25-.4167 1.6667-.8333z"></path></svg>