<svg viewBox="0 0 24 24" focusable="false" width="24" height="24" aria-hidden="true" class="svg-icon" xmlns="http://www.w3.org/2000/svg"><path d="M10 14v2h2v-2h2v2h2v-2h-2v-2h2v-2h-2v2h-2v2h-2zm0 0H8v-2h2v2z"></path><path fill-rule="evenodd" clip-rule="evenodd" d="M6 4H4v2h2v2H4v2h2v2H4v2h2v2H4v2h2v2h2v-2h2v2h2v-2h2v2h2v-2h2v2h2v-2h-2v-2h2v-2h-2v-2h2v-2h-2V8h2V6h-2V4h-2v2h-2V4h-2v2h-2V4H8v2H6V4zm2 4V6h2v2H8zm0 2V8H6v2h2zm2 0V8h2v2h-2zm0 2v-2H8v2H6v2h2v2H6v2h2v-2h2v2h2v-2h2v2h2v-2h2v-2h-2v-2h2v-2h-2V8h2V6h-2v2h-2V6h-2v2h2v2h-2v2h-2z"></path></svg>