<svg viewBox="0 0 24 24" focusable="false" width="24" height="24" aria-hidden="true" class="svg-icon" xmlns="http://www.w3.org/2000/svg"><path d="M6.46 11.9082c1.1917.9269 2.124 1.2303 2.9101 1.2813.8131.0526 1.5476-.1548 2.4199-.4092.8417-.2455 1.8214-.538 2.9366-.4658 1.1424.074 2.3537.5207 3.7334 1.5937l-.92 1.1836c-1.1917-.9269-2.124-1.2303-2.9101-1.2813-.8131-.0526-1.5476.1548-2.4199.4092-.8417.2455-1.8214.538-2.9366.4658-1.1424-.074-2.3537-.5207-3.7334-1.5937l.92-1.1836zm0-3c1.1917.927 2.124 1.2303 2.9101 1.2813.8131.0526 1.5476-.1548 2.4199-.4092.8417-.2455 1.8214-.538 2.9366-.4658 1.1424.074 2.3537.5207 3.7334 1.5937l-.92 1.1836c-1.1917-.9269-2.124-1.2303-2.9101-1.2813-.8131-.0526-1.5476.1548-2.4199.4092-.8417.2455-1.8214.538-2.9366.4658-1.1424-.074-2.3537-.5207-3.7334-1.5937l.92-1.1836z"></path><path fill-rule="evenodd" clip-rule="evenodd" d="M18 2c2.2091 0 4 1.7909 4 4v12c0 2.2091-1.7909 4-4 4H6c-2.2091 0-4-1.7909-4-4V6c0-2.2091 1.7909-4 4-4h12zM4 18c0 1.1046.8954 2 2 2h12c1.1046 0 2-.8954 2-2v-.25H4V18zm0-1.75h16v-8.5H4v8.5zM6 4c-1.1046 0-2 .8954-2 2v.25h16V6c0-1.1046-.8954-2-2-2H6z"></path></svg>