<svg viewBox="0 0 24 24" focusable="false" width="24" height="24" aria-hidden="true" class="svg-icon" xmlns="http://www.w3.org/2000/svg"><path d="M22 3H2v14h5v-2H4V5h16v8h2V3z"></path><path d="M13.9739 10.0005c0-.5526-.4497-1.0005-1.0043-1.0005-.5547 0-1.0044.448-1.0044 1.0005v5.7943l-1.0127-.7919c-.4989-.3902-1.1077-.7492-1.6665-.1925-.5006.4986-.2675 1.0918.1156 1.5529.3882.4673.7725.9668 1.1609 1.4715.869 1.1294 1.7584 2.2854 2.7575 3.1663 1.1773.9749 2.7649 1.2927 4.2.7005a4.0137 4.0137 0 0 0 1.8029-1.4739A3.9907 3.9907 0 0 0 20 18.0043V16.666c0-1.2919-.8299-2.4389-2.0602-2.8474l-3.9659-1.498v-2.3201z"></path></svg>