<svg viewBox="0 0 24 24" focusable="false" width="24" height="24" aria-hidden="true" class="svg-icon" xmlns="http://www.w3.org/2000/svg"><path d="M8 9h8v2H8V9z"></path><path fill-rule="evenodd" clip-rule="evenodd" d="M17 6c1.66 0 3 1.34 3 3h2v4h-2v7h-2v2h-3v-2H9v2H6v-2H4v-7H2V9h2c0-1.66 1.34-3 3-3h3L9 4H6V2h12v2h-3l-1 2h3zm-5 0 1-2h-2l1 2zM6 16.5c0 .83.67 1.5 1.5 1.5S9 17.33 9 16.5 8.33 15 7.5 15 6 15.67 6 16.5zm9 0c0 .83.67 1.5 1.5 1.5s1.5-.67 1.5-1.5-.67-1.5-1.5-1.5-1.5.67-1.5 1.5zM6 13h12V9c0-.55-.45-1-1-1H7c-.55 0-1 .45-1 1v4z"></path></svg>