<svg viewBox="0 0 24 24" focusable="false" width="24" height="24" aria-hidden="true" class="svg-icon" xmlns="http://www.w3.org/2000/svg"><path d="M7.4052 11.1746C5.9376 12.2705 4.1436 13.068 2 13.6199c.3453.4085.892 1.2254 1.0933 1.6479 2.1958-.6725 4.0647-1.5959 5.6267-2.827 1.4628 1.215 3.2488 2.1283 5.4476 2.726L12.0736 21h2.3449l.7481-2.3944h3.7404L19.6551 21H22l-3.6397-10.0988h-2.6614l-.8736 2.4336c-1.8202-.4994-3.3641-1.2528-4.6503-2.2238 1.3315-1.4108 2.3756-3.1343 3.1511-5.2236h2.1105v-1.662h-5.74V2h-1.784v2.2254H2.259v1.662h2.0756c.7763 2.0681 1.767 3.8356 3.0706 5.2872zm3.8976-5.2872H6.2511c.6128 1.527 1.4638 2.8825 2.5723 4.0285 1.0488-1.1064 1.8707-2.4387 2.4794-4.0285zm7.0863 10.9294h-2.6758c.4534-1.445.9488-2.8848 1.3235-4.3522.3751 1.4692.8902 2.908 1.3523 4.3522z" fill-rule="evenodd" clip-rule="evenodd"></path></svg>