<svg viewBox="0 0 24 24" focusable="false" width="24" height="24" aria-hidden="true" class="svg-icon" xmlns="http://www.w3.org/2000/svg"><path d="M8 6h8v2H8V6z"></path><path fill-rule="evenodd" clip-rule="evenodd" d="M17 3c1.66 0 3 1.34 3 3h2v4h-2v9h-2v2h-3v-2H9v2H6v-2H4v-9H2V6h2c0-1.66 1.34-3 3-3h10zM6 15.5c0 .83.67 1.5 1.5 1.5S9 16.33 9 15.5 8.33 14 7.5 14 6 14.67 6 15.5zm9 0c0 .83.67 1.5 1.5 1.5s1.5-.67 1.5-1.5-.67-1.5-1.5-1.5-1.5.67-1.5 1.5zM6 12h12V6c0-.55-.45-1-1-1H7c-.55 0-1 .45-1 1v6z"></path></svg>