<svg viewBox="0 0 24 24" focusable="false" width="24" height="24" aria-hidden="true" class="svg-icon" xmlns="http://www.w3.org/2000/svg"><path fill-rule="evenodd" clip-rule="evenodd" d="m20.4855 23.3148 1.4142-1.4143-19.799-19.799L.6865 3.5159l4.5149 4.5148c-1.9782.2414-3.5105 1.927-3.5105 3.9704 0 2.2091 1.7909 4 4 4h7.4808l7.3138 7.3138zm-9.3138-9.3138-4-4H5.691c-1.1045 0-2 .8954-2 2 0 1.1045.8955 2 2 2h5.4808zm11.1373 1h-4.4847l-3.1594-3.1595V10.001h-1.8405l-2-2h5.8405v1h2.6441l3 6zm-5.6441-2h2.408l-1-2h-1.408v2z"></path></svg>