<svg viewBox="0 0 24 24" focusable="false" width="24" height="24" aria-hidden="true" class="svg-icon" xmlns="http://www.w3.org/2000/svg"><path fill-rule="evenodd" clip-rule="evenodd" d="M6.6742 4H17.326l-1.1733 4.1058C18.0783 9.6525 19.0093 11.833 18.9999 14c-.0119 2.7584-1.4014 5.4694-3.6973 7H8.6972C6.4013 19.4694 5.012 16.7584 5 14c-.0094-2.167.9218-4.3475 2.8474-5.8942L6.6742 4zm2.6516 2 .8364 2.9271C8.3689 10.1226 6.9902 11.7145 7 14c.0088 2.0411 1.0785 4.0288 2.3225 5h5.3548c1.2441-.9712 2.3138-2.9588 2.3226-5 .0099-2.2855-1.3688-3.8774-3.1621-5.0729L14.6743 6H9.3258z"></path></svg>