<svg viewBox="0 0 24 24" focusable="false" width="24" height="24" aria-hidden="true" class="svg-icon" xmlns="http://www.w3.org/2000/svg"><path d="M8 12.5H6v2h2v-2z"></path><path fill-rule="evenodd" clip-rule="evenodd" d="M11.342 6H2v16h2v-1h12v1h2V12h-2v7h-5V8h1.3947L11.342 6zM4 8v11h5V8H4z"></path><path d="M12 12.5h2v2h-2v-2zM15 4c.75-.75 1.5-3 1.5-3s.75 2.25 1.5 3 3 1.5 3 1.5-2.25.75-3 1.5-1.5 3-1.5 3-.75-2.25-1.5-3-3-1.5-3-1.5 2.25-.75 3-1.5zm4.1668 5.1667c.4167-.4167.8333-1.6667.8333-1.6667s.4167 1.25.8334 1.6667c.4166.4166 1.6666.8333 1.6666.8333s-1.25.4167-1.6666.8333c-.4167.4167-.8334 1.6667-.8334 1.6667s-.4166-1.25-.8333-1.6667C18.7501 10.4167 17.5001 10 17.5001 10s1.25-.4167 1.6667-.8333z"></path></svg>