<svg viewBox="0 0 24 24" focusable="false" width="24" height="24" aria-hidden="true" class="svg-icon" xmlns="http://www.w3.org/2000/svg"><path fill-rule="evenodd" clip-rule="evenodd" d="M2.121 2.121 21.92 21.92l-1.414 1.4141-4.5571-4.5571c-1.0544.9397-2.4353 1.5127-3.9488 1.5127-3.3192 0-6-2.7557-6-6.0909 0-.9403.4017-2.0206.8815-3.0097.1557-.321.3267-.6465.5079-.9715L.707 3.5352 2.121 2.121zm12.4099 15.238-5.665-5.665a15.633 15.633 0 0 0-.1847.368C8.224 13.0042 8 13.7383 8 14.1988c0 2.2665 1.8209 4.0909 4 4.0909.9528 0 1.8371-.3488 2.5307-.9308z"></path><path d="m9.6098 6.7814 1.4337 1.4337c.3505-.4941.6802-.9385.9566-1.3024.4586.6039 1.064 1.4294 1.6676 2.3358.6124.9197 1.2102 1.9039 1.6514 2.8134.1331.2746.2465.5315.3404.7691l2.2738 2.2739c.044-.296.0668-.5986.0668-.9061 0-.9403-.4018-2.0206-.8815-3.0097-.4964-1.0234-1.1486-2.0915-1.7862-3.049-.6399-.9611-1.278-1.8299-1.7551-2.4573a50.276 50.276 0 0 0-.294-.383 43.6702 43.6702 0 0 0-.2847-.3632c-.2363-.2982-.478-.5922-.7197-.8861l-.0012-.0014c-.0926-.1127-.1853-.2254-.2776-.3382a199.302 199.302 0 0 1-.2667.3247c-.2458.2989-.4916.5978-.7319.901a45.7086 45.7086 0 0 0-.5787.7462 52.3046 52.3046 0 0 0-.813 1.0986z"></path></svg>