<svg viewBox="0 0 24 24" focusable="false" width="24" height="24" aria-hidden="true" class="svg-icon" xmlns="http://www.w3.org/2000/svg"><path d="M22 6.9414c0 .7964-.0595 2.0238-.3486 3.249-.2805 1.1885-.8144 2.5373-1.8799 3.417-1.2705 1.169-3.8637 2.9126-6.3438 4.4619-2.511 1.5687-5.0328 3.0159-6.1757 3.5664-.799.3849-1.73.4962-2.5674.1592-1.5938-.6413-2.2488-2.4383-2.8555-3.8994l3.4434-3.6797V2H22v4.9414zM4.1777 18.3125c.262.5727.62 1.372 1.253 1.627.3125.1257.6615.0349.953-.1055 1.0389-.5004 3.4837-1.8987 5.9845-3.461 1.1899-.7433 2.3654-1.5069 3.3896-2.2128-.8019-.3639-1.5203-.9019-2.1885-1.4688-.774-.6568-1.525-1.416-2.1504-2.1162l-7.2412 7.7373zm11.9619-6.2148c.7522.4211 1.5803.5989 2.3448-.0215.5743-.4661.9782-1.3149 1.2236-2.3662-1.5808-.5251-3.3312.8166-3.5684 2.3877zm-8.8671-1.3174v1.2978l4.2402-4.5302c.403.5022.8097.9999 1.2305 1.4843C14.0489 6.3572 17.1312 5.039 20 5.1377V4.0859c-5.1104-.4572-9.4068 3.2258-12.7275 6.6944zM20 6.6367c-2.5033-.1047-5.2707 1.0996-6.1387 3.6016.3136.3138.6384.6173.9785.9072.6833-1.9185 3.0055-3.8292 5.1104-3.0312.0409-.492.0498-.9842.0498-1.4776zm-12.7275.0674v1.9453C9.6054 6.3728 11.6393 4.9172 13.4043 4h-2.1309C10 5 9 6 7.2724 6.7041zm0-1.5635c.6907-.2503 1.312-.6735 1.875-1.1406h-1.875v1.1406z" fill-rule="evenodd" clip-rule="evenodd"></path></svg>