<svg viewBox="0 0 24 24" focusable="false" width="24" height="24" aria-hidden="true" class="svg-icon" xmlns="http://www.w3.org/2000/svg"><path d="M9.707 7.2071 12 4.9142l2.2928 2.293 1.4143-1.4143L12 2.086 8.2928 5.793l1.4143 1.4142zM12 7.5c-.5523 0-1 .4477-1 1s.4477 1 1 1c.5522 0 1-.4477 1-1s-.4478-1-1-1zm4.7929 5.2071L18.0857 14H14c-1.6569 0-3 1.3432-3 3v5h2v-5c0-.5523.4477-1 1-1h4.0858l-1.2929 1.2929 1.4142 1.4142L21.9142 15l-3.7071-3.7071-1.4142 1.4142zM11 12c0-.5523.4477-1 1-1 .5522 0 1 .4477 1 1s-.4478 1-1 1c-.5523 0-1-.4477-1-1z"></path></svg>