<svg viewBox="0 0 24 24" focusable="false" width="24" height="24" aria-hidden="true" class="svg-icon" xmlns="http://www.w3.org/2000/svg"><path d="M11.4166 11.6 12.7535 6h-.8913l-4.9018 6.4h3.565L9.1885 18h.8913l4.9018-6.4h-3.565z"></path><path d="M7 7H5c-1.6568 0-3 1.3431-3 3v4c0 1.6569 1.3432 3 3 3h2v-2H5c-.5523 0-1-.4477-1-1v-4c0-.5523.4477-1 1-1h2V7zm8 8h2c.5523 0 1-.4477 1-1v-4c0-.5523-.4477-1-1-1h-2V7h2c1.6569 0 3 1.3431 3 3h1c.5523 0 1 .4477 1 1v2c0 .5523-.4477 1-1 1h-1c0 1.6569-1.3431 3-3 3h-2v-2z"></path></svg>