<svg viewBox="0 0 24 24" focusable="false" width="24" height="24" aria-hidden="true" class="svg-icon" xmlns="http://www.w3.org/2000/svg"><path d="M20.36 5.5c0 1.3807-1.1193 2.5-2.5 2.5s-2.5-1.1193-2.5-2.5S16.4793 3 17.86 3s2.5 1.1193 2.5 2.5z" fill="rgb(var(--colour-semantic-positive, 10, 138, 0))"></path><path fill-rule="evenodd" clip-rule="evenodd" d="M14.5207 2.4794A6.818 6.818 0 0 0 12.001 2C8.2255 2 5.1649 5.0606 5.1649 8.836v2.0175a.571.571 0 0 1-.1232.3543l-1.528 1.9301C1.9566 15.1046 3.3573 18 5.8656 18H8.5c.002 1.9342 1.5629 3.5 3.5 3.5 1.9345 0 3.4937-1.5693 3.5-3.5h2.6362c2.5084 0 3.9091-2.8954 2.3521-4.8621l-1.528-1.9301a.5712.5712 0 0 1-.1233-.3543V10h-2v.8535a2.571 2.571 0 0 0 .5552 1.5957l1.528 1.9301c.519.6556.0521 1.6207-.784 1.6207H5.8658c-.8362 0-1.303-.9651-.784-1.6207l1.528-1.9301a2.5709 2.5709 0 0 0 .5551-1.5957V8.8361C7.1649 6.165 9.3301 4 12.001 4c.3121 0 .6173.0296.913.086l1.6067-1.6067zM13.4999 18c-.0062.8356-.6795 1.5-1.4999 1.5-.8288 0-1.4979-.6666-1.5-1.5h2.9999z"></path></svg>