<svg viewBox="0 0 24 24" focusable="false" width="24" height="24" aria-hidden="true" class="svg-icon" xmlns="http://www.w3.org/2000/svg"><path d="m21.9203 21.9203-1.4143 1.4142-5.0209-5.0208C15.3218 20.0978 13.8286 21.5 12 21.5c-1.9371 0-3.498-1.5658-3.5-3.5h6.6715l-1-1H5.8658c-1.6723 0-2.6061-1.9303-1.5681-3.2414l1.528-1.9301a1.5708 1.5708 0 0 0 .3392-.975V8.9934L.707 3.5356l1.4142-1.4143 19.7991 19.799zm-2.5296-5.358c.7969-.6463 1.0456-1.879.3135-2.8037l-1.528-1.9301a1.5706 1.5706 0 0 1-.3392-.975V8.8361C17.837 5.6129 15.2241 3 12.0009 3c-1.6971 0-3.2251.7244-4.2915 1.881l11.6813 11.6812z"></path></svg>