<svg viewBox="0 0 24 24" focusable="false" width="24" height="24" aria-hidden="true" class="svg-icon" xmlns="http://www.w3.org/2000/svg"><path d="m14.0366 4.1885 5.9658 4.2934V13h-2V9.9942H6.0004l.0018 8.0001h3.9979v2H4.0027L4 8.482l5.9658-4.2935 1.1683 1.6233-3.0325 2.1824h7.7993l-3.0326-2.1824 1.1683-1.6233z"></path><path d="M14.0029 14h-4v-2h4v2zM16 16c-1.1046 0-2 .8954-2 2s.8954 2 2 2v2c-2.2091 0-4-1.7909-4-4 0-2.2091 1.7909-4 4-4 2.2091 0 4 1.7909 4 4h2l-3 3-3-3h2c0-1.1046-.8954-2-2-2z"></path></svg>