<svg viewBox="0 0 24 24" focusable="false" width="24" height="24" aria-hidden="true" class="svg-icon" xmlns="http://www.w3.org/2000/svg"><path d="M16.8908 8.5236a6.0326 6.0326 0 0 0-1.4141-1.4143l1.4732-1.4732 1.4142 1.4143-1.4733 1.4732zM18 12c0-.3407-.0284-.6748-.083-1H20v2h-2.083A6.0363 6.0363 0 0 0 18 12zm-2.5235 4.8908a6.03 6.03 0 0 0 1.4142-1.4143l1.4734 1.4734-1.4142 1.4142-1.4734-1.4733zM12 18c.3407 0 .6748-.0284 1-.083V20h-2v-2.083c.3252.0546.6593.083 1 .083zm-4.8906-2.5233a6.0326 6.0326 0 0 0 1.4142 1.4141l-1.4732 1.4733-1.4142-1.4142 1.4732-1.4732zM6 12c0 .3407.0284.6748.083 1H4v-2h2.083A6.0406 6.0406 0 0 0 6 12zm-.3639-4.9496 1.4732 1.473a6.0341 6.0341 0 0 1 1.4142-1.4142l-1.4731-1.473L5.636 7.0504zM12 6c-.3407 0-.6748.0284-1 .083V4h2v2.083A6.0406 6.0406 0 0 0 12 6z"></path><path fill-rule="evenodd" clip-rule="evenodd" d="M16 12c0 2.2091-1.7909 4-4 4-2.2091 0-4-1.7909-4-4 0-2.2091 1.7909-4 4-4 2.2091 0 4 1.7909 4 4zm-2 0c0 1.1046-.8954 2-2 2s-2-.8954-2-2 .8954-2 2-2 2 .8954 2 2z"></path></svg>