<svg viewBox="0 0 24 24" focusable="false" width="24" height="24" aria-hidden="true" class="svg-icon" xmlns="http://www.w3.org/2000/svg"><path d="M8 16c0 .6904-.5596 1.25-1.25 1.25S5.5 16.6904 5.5 16s.5596-1.25 1.25-1.25S8 15.3096 8 16zm8.5 0c0 .6904-.5596 1.25-1.25 1.25S14 16.6904 14 16s.5596-1.25 1.25-1.25 1.25.5596 1.25 1.25z"></path><path fill-rule="evenodd" clip-rule="evenodd" d="M4 4h5.7799l1.0007 4H16v4c.7286 0 1.4117.1597 2 .5V8h1l3 8h-2c0 2.2091-1.7909 4-4 4H6c-2.2091 0-4-1.7909-4-4 0-1.4806.8044-2.7733 2-3.4649V4zm12 10c1.1046 0 2 .8954 2 2s-.8954 2-2 2H6c-1.1046 0-2-.8954-2-2s.8954-2 2-2h10zM6 12h8v-2H6v2zm2.2186-6 .5004 2H6V6h2.2186z"></path></svg>