<svg viewBox="0 0 24 24" focusable="false" width="24" height="24" aria-hidden="true" class="svg-icon" xmlns="http://www.w3.org/2000/svg"><path d="M15.0858 17.092c0 .488-.036.976-.108 1.464-.072.48-.2.936-.384 1.368-.176.424-.428.804-.756 1.14-.32.328-.732.588-1.236.78-.496.184-1.1.276-1.812.276-.168 0-.364-.008-.588-.024-.224-.008-.412-.028-.564-.06v-1.452c.16.032.328.06.504.084.176.024.352.036.528.036.712 0 1.26-.112 1.644-.336.392-.232.668-.548.828-.948.16-.4.252-.864.276-1.392h-.072c-.168.28-.392.516-.672.708-.272.192-.68.288-1.224.288-.728 0-1.312-.236-1.752-.708-.44-.472-.66-1.14-.66-2.004 0-.928.26-1.656.78-2.184.528-.528 1.24-.792 2.136-.792.584 0 1.112.136 1.584.408.472.264.848.676 1.128 1.236.28.552.42 1.256.42 2.112zm-3.096-2.304c-.352 0-.64.12-.864.36-.224.24-.336.62-.336 1.14 0 .416.096.744.288.984.192.24.484.36.876.36.272 0 .504-.06.696-.18.2-.12.356-.268.468-.444.112-.184.168-.372.168-.564 0-.264-.048-.524-.144-.78-.096-.256-.244-.464-.444-.624-.192-.168-.428-.252-.708-.252zm9.8708 2.928c0 .92-.1 1.708-.3 2.364-.192.656-.508 1.16-.948 1.512-.432.352-1.016.528-1.752.528-1.032 0-1.788-.388-2.268-1.164-.48-.784-.72-1.864-.72-3.24 0-.928.096-1.72.288-2.376.192-.656.508-1.16.948-1.512.44-.352 1.024-.528 1.752-.528 1.024 0 1.78.388 2.268 1.164.488.776.732 1.86.732 3.252zm-4.188 0c0 .976.084 1.712.252 2.208.168.488.48.732.936.732.448 0 .76-.244.936-.732.176-.488.264-1.224.264-2.208 0-.976-.088-1.712-.264-2.208-.176-.496-.488-.744-.936-.744-.456 0-.768.248-.936.744-.168.496-.252 1.232-.252 2.208z"></path><path fill-rule="evenodd" clip-rule="evenodd" d="M4 11v5h3v2H2V4h4V2h2v2h4V2h2v2h4v7H4zm2-3V6H4v3h12V6h-2v2h-2V6H8v2H6z"></path></svg>