<svg viewBox="0 0 24 24" focusable="false" width="24" height="24" aria-hidden="true" class="svg-icon" xmlns="http://www.w3.org/2000/svg"><path d="M10 10.5c0 .8284-.6716 1.5-1.5 1.5S7 11.3284 7 10.5 7.6716 9 8.5 9s1.5.6716 1.5 1.5zm5.5 1.5c.8284 0 1.5-.6716 1.5-1.5S16.3284 9 15.5 9s-1.5.6716-1.5 1.5.6716 1.5 1.5 1.5z"></path><path fill-rule="evenodd" clip-rule="evenodd" d="M19 4c1.6569 0 3 1.3431 3 3v7c0 1.6569-1.3431 3-3 3h-6.5895l-3.9968 4H6v-4H5c-1.6568 0-3-1.3431-3-3V7c0-1.6569 1.3432-3 3-3h14zm1 3c0-.5523-.4477-1-1-1H5c-.5523 0-1 .4477-1 1v7c0 .5523.4477 1 1 1h3v3.5845L11.5817 15H19c.5523 0 1-.4477 1-1V7z"></path></svg>