<svg viewBox="0 0 24 24" focusable="false" width="24" height="24" aria-hidden="true" class="svg-icon" xmlns="http://www.w3.org/2000/svg"><path fill-rule="evenodd" clip-rule="evenodd" d="M19.9999 17.1716V4h-4.671c-.0682-.221-.1634-.4437-.2965-.656C14.4711 2.4483 13.4468 2 11.997 2c-1.4499 0-2.4736.4485-3.0338 1.3451-.1323.212-.2271.4344-.295.6549l-1.8398.0001L10.8283 8h4.6706V6h2.501v9.1716l2 2zM10.497 6v-.4985c.0017-.5572.0268-.8796.1624-1.0967C10.724 4.3015 10.9488 4 11.997 4s1.2753.3017 1.3407.406c.1355.2162.1618.5396.1612 1.093V6H10.497zM21.92 21.9203l-1.4142 1.4142L19.1712 22H3.9999V6.8287L.7068 3.5355 2.121 2.1214l19.799 19.799zM6 20V8.8287L17.1711 20H5.9999z"></path></svg>