<svg viewBox="0 0 24 24" focusable="false" width="24" height="24" aria-hidden="true" class="svg-icon" xmlns="http://www.w3.org/2000/svg"><path d="M6.928 14.568c.536.536 1.292.804 2.268.804.456 0 .832-.04 1.128-.12.304-.072.592-.196.864-.372v-1.524c-.272.176-.552.316-.84.42-.288.096-.62.144-.996.144-.44 0-.784-.156-1.032-.468-.24-.312-.36-.796-.36-1.452 0-1.32.464-1.98 1.392-1.98.24 0 .48.036.72.108.248.072.512.164.792.276l.528-1.38c-.248-.12-.54-.224-.876-.312-.328-.088-.716-.132-1.164-.132-.632 0-1.192.12-1.68.36-.48.24-.856.612-1.128 1.116-.272.504-.408 1.156-.408 1.956 0 1.16.264 2.012.792 2.556zm6.644 0c.536.536 1.292.804 2.268.804.456 0 .832-.04 1.128-.12.304-.072.592-.196.864-.372v-1.524c-.272.176-.552.316-.84.42-.288.096-.62.144-.996.144-.44 0-.784-.156-1.032-.468-.24-.312-.36-.796-.36-1.452 0-1.32.464-1.98 1.392-1.98.24 0 .48.036.72.108.248.072.512.164.792.276l.528-1.38c-.248-.12-.54-.224-.876-.312-.328-.088-.716-.132-1.164-.132-.632 0-1.192.12-1.68.36-.48.24-.856.612-1.128 1.116-.272.504-.408 1.156-.408 1.956 0 1.16.264 2.012.792 2.556z"></path><path fill-rule="evenodd" clip-rule="evenodd" d="M22 4H2v16h20V4zM4 18V6h16v12H4z"></path></svg>