<svg viewBox="0 0 24 24" focusable="false" width="24" height="24" aria-hidden="true" class="svg-icon" xmlns="http://www.w3.org/2000/svg"><path fill-rule="evenodd" clip-rule="evenodd" d="M10 2v6.343l5.5354-5.5355 5.6569 5.6569-5.536 5.5359H22v8H2V2h8zm-2 8.3429-3.6574 3.6574H4v-4.333h4v.6756zm4.8279 3.6574H7.1713l4.1217-4.1219 2.8284 2.8284-1.2935 1.2935zm2.7077-2.7077-2.8284-2.8284 2.8282-2.8282 2.8284 2.8284-2.8282 2.8282zM8 7.6673V4H4v3.6673h4zm12 12.333h-4v-4h4v4zm-10-4h4v4h-4v-4zM6 19.25c.6904 0 1.25-.5596 1.25-1.25S6.6904 16.75 6 16.75s-1.25.5596-1.25 1.25.5596 1.25 1.25 1.25z"></path></svg>