<svg viewBox="0 0 24 24" focusable="false" width="24" height="24" aria-hidden="true" class="svg-icon" xmlns="http://www.w3.org/2000/svg"><path d="m11.2929 11.293 1.4142-1.4142c1.5621-1.5622 1.5621-4.0948 0-5.6569L12 3.5148l1.4142-1.4142.7071.7071c2.3431 2.3431 2.3432 6.142.0001 8.4852l-1.4143 1.4143-1.4142-1.4142zm2.1213 2.1214 1.4142-1.4143c1.1716-1.1716 3.0711-1.1716 4.2427 0l.7071.7071-1.4142 1.4142-.7071-.7071c-.3906-.3905-1.0237-.3905-1.4143 0l-1.4142 1.4143-1.4142-1.4142z"></path><path d="m9.1716 9.1717 1.4142-1.4142c.3905-.3905.3905-1.0237 0-1.4142l-.7071-.7071 1.4142-1.4143.7071.7072C13.1716 6.1006 13.1716 8 12 9.1716l-1.4142 1.4142-1.4142-1.4142zM8.4644 4.222c.3906.3904 1.0237.3904 1.4143 0 .3905-.3906.3905-1.0238 0-1.4143-.3906-.3905-1.0237-.3905-1.4143 0-.3905.3905-.3905 1.0237 0 1.4142zm12.728 11.3136c-.3906.3906-1.0237.3906-1.4143 0-.3905-.3905-.3905-1.0237 0-1.4142.3906-.3905 1.0237-.3905 1.4143 0 .3905.3905.3905 1.0237 0 1.4142zm-3.5357-9.1922c.3905.3905 1.0237.3906 1.4142 0 .3905-.3905.3905-1.0237 0-1.4142-.3905-.3905-1.0237-.3905-1.4142 0-.3905.3905-.3905 1.0237 0 1.4142z"></path><path fill-rule="evenodd" clip-rule="evenodd" d="m6.5815 7.9959 9.3942 9.3941-12.471 4.1227-1.0164-1.0165L6.5815 7.9959zm.8877 3.716L5.125 18.8706l7.1418-2.361-4.7977-4.7977z"></path></svg>