<svg viewBox="0 0 24 24" focusable="false" width="24" height="24" aria-hidden="true" class="svg-icon" xmlns="http://www.w3.org/2000/svg"><path fill-rule="evenodd" clip-rule="evenodd" d="M9.9092 10.8672c.549-.5099 1.3231-.7921 2.1592-.6289C15.2835 10.9673 16.9999 13.8396 17 17v5h-2v-5c0-1.035-.1858-1.8768-.498-2.5488-.0233 1.2739-.4613 2.5751-1.3223 3.4277-.5816.5758-1.3602.9134-2.1797.8936V22H9v-9.0029c.0002-.8213.3378-1.5992.9092-2.1299zM11 12.9971v3.7724c.2982.0219.5605-.1017.7725-.3115.7594-.752 1.0848-2.6775.3164-3.542-.3617-.4061-1.0883-.6456-1.0889.0811z"></path><path d="M6.5 6.5H9v2H6.5V11h-2V8.5H2v-2h2.5V4h2v2.5zm15.5 2h-7v-2h7v2z"></path></svg>