<svg viewBox="0 0 24 24" focusable="false" width="24" height="24" aria-hidden="true" class="svg-icon" xmlns="http://www.w3.org/2000/svg"><path d="m22.3574 17.501-4.1435 4.5127-1.4737-1.3526 2.9034-3.1621-2.9034-3.1611 1.4737-1.3525 4.1435 4.5156z"></path><path d="M18 2c2.2091 0 4 1.7909 4 4v6h-2V6c0-1.1046-.8954-2-2-2H6c-1.1046 0-2 .8954-2 2v12c0 1.1046.8954 2 2 2h9v2H6c-2.2091 0-4-1.7909-4-4V6c0-2.2091 1.7909-4 4-4h12z"></path><path d="M7.294 10.6807c.279-.5853 1.2009-1.0037 2.3164-.3477.4121.2438 1.2483.8646 1.875 1.3389a1.301 1.301 0 0 1 .998-.0098c.6202-.4891 1.4648-1.1248 1.9072-1.3291 1.1737-.5465 2.0296-.2374 2.3086.3477.2784.5853.0121 1.556-1.2129 1.9804-.4562.1621-1.4806.4-2.25.5703a1.285 1.285 0 0 1-.3545.5606c.1851.7655.413 1.7966.4131 2.2783 0 1.2862-.6493 1.9295-1.2978 1.9297-.6486 0-1.4275-.6498-1.2979-1.9297.0493-.4776.2649-1.4953.4336-2.2588a1.2868 1.2868 0 0 1-.3682-.5547c-.776-.1574-1.8128-.3908-2.2568-.5957-1.1734-.54-1.492-1.3951-1.2138-1.9804zM7 8 5 5h4L7 8zm5 0-2-3h4l-2 3zm5 0-2-3h4l-2 3z"></path></svg>