<svg viewBox="0 0 24 24" focusable="false" width="24" height="24" aria-hidden="true" class="svg-icon" xmlns="http://www.w3.org/2000/svg"><path fill-rule="evenodd" clip-rule="evenodd" d="M6.1654 3.1945a8.5001 8.5001 0 0 1 5.9883-1.0283 8.5007 8.5007 0 0 1 5.1455 3.2334l.6699.8906-6.3212 3.752 5.0586 8.4521c1.5604-.2154 2.8039-1.1868 3.8847-2.2851l1.4141 1.414c-1.451 1.4717-2.6954 2.2736-4.0479 2.6524-.916.2564-1.8238.303-2.7705.2949-1.0625-.0091-2.1237-.0703-3.1865-.0703-1.1388 0-2.1331.7301-2.9072 1.5049L7.68 20.591c1.153-1.1536 2.6403-2.0908 4.3203-2.0908.9181 0 1.7198.0325 2.4102.0527L9.928 11.0627l-6.6992 3.9775-.4619-1.0146a8.5013 8.5013 0 0 1-.374-6.0655 8.5031 8.5031 0 0 1 3.7724-4.7656zm5.5996.9336a6.5013 6.5013 0 0 0-4.58.7861 6.5016 6.5016 0 0 0-2.8838 3.6446 6.4996 6.4996 0 0 0-.0899 3.5722L14.9438 5.76a6.5007 6.5007 0 0 0-3.1788-1.632z"></path></svg>