<svg viewBox="0 0 24 24" focusable="false" width="24" height="24" aria-hidden="true" class="svg-icon" xmlns="http://www.w3.org/2000/svg"><path d="M13 9c0 .5523-.4477 1-1 1s-1-.4477-1-1 .4477-1 1-1 1 .4477 1 1zm0 3c0 .5523-.4477 1-1 1s-1-.4477-1-1 .4477-1 1-1 1 .4477 1 1zm0 3c0 .5523-.4477 1-1 1s-1-.4477-1-1 .4477-1 1-1 1 .4477 1 1z"></path><path fill-rule="evenodd" clip-rule="evenodd" d="M2 15v4h20v-4c-.9999-.5-1.9999-1.5-2-3 0-1.5 1.0001-2.5 2.0001-3L22 5H2v4c1 .5 2 1.5 2 3s-1 2.5-2 3zm2-7.0002V7h16v.9998C18.5001 9 18 10.5 18 12c0 1.5.5001 3 2 4.0002V17H4v-.9998C5.5 15 6 13.5 6 12c0-1.5-.5-3-2-4.0002z"></path></svg>