<svg viewBox="0 0 24 24" focusable="false" width="24" height="24" aria-hidden="true" class="svg-icon" xmlns="http://www.w3.org/2000/svg"><path fill-rule="evenodd" clip-rule="evenodd" d="M5.2727 2H22v4.9412c0 .7963-.06 2.0236-.3491 3.249-.2804 1.1886-.8138 2.5378-1.8795 3.4176-1.2706 1.1689-3.8632 2.9119-6.3432 4.4613-2.5112 1.5687-5.033 3.0164-6.176 3.567-.799.3849-1.7302.4961-2.5677.1591-.5394-.217-.9631-.577-1.293-.9576-.7363-.8499-1.1367-1.917-1.5624-2.9421l3.4436-3.68V2zm2 10.0783 4.2399-4.5309c1.0325 1.287 2.0867 2.5467 3.3503 3.6189.9763.8284 2.3836 1.915 3.6218.9101.5706-.4631.9733-1.3014 1.2197-2.3455.2399-1.017.2956-2.0745.2956-2.7897V4H7.2727v8.0783zm8.4847 2.082c-.802-.3639-1.5203-.9021-2.1885-1.469-.7741-.6569-1.525-1.4159-2.1504-2.1162L4.178 18.3125c.262.5729.6198 1.3725 1.253 1.6273.3126.1257.6616.0349.9532-.1056 1.0389-.5004 3.4835-1.899 5.9843-3.4613 1.19-.7434 2.3646-1.5066 3.3889-2.2126z"></path></svg>