<svg viewBox="0 0 24 24" focusable="false" width="24" height="24" aria-hidden="true" class="svg-icon" xmlns="http://www.w3.org/2000/svg"><path d="M12 15c1.6569 0 3-1.3431 3-3s-1.3431-3-3-3-3 1.3431-3 3 1.3431 3 3 3z"></path><path fill-rule="evenodd" clip-rule="evenodd" d="M18.9205 13H21v-2h-2.0795A6.9929 6.9929 0 0 0 13 5.08V3h-2v2.08A6.9928 6.9928 0 0 0 5.08 11H3v2h2.08A6.9924 6.9924 0 0 0 11 18.9205V21h2v-2.0795A6.9927 6.9927 0 0 0 18.9205 13zm-2.7632-3.7779A4.9993 4.9993 0 0 1 17 12a5.006 5.006 0 0 1-1.4661 3.5339A5.006 5.006 0 0 1 12 17a5 5 0 1 1 4.1573-7.7779z"></path></svg>