<svg viewBox="0 0 24 24" focusable="false" width="24" height="24" aria-hidden="true" class="svg-icon" xmlns="http://www.w3.org/2000/svg"><path fill-rule="evenodd" clip-rule="evenodd" d="M11 3V1.999c-3 .0028-6 .0012-9 .0008V22h7.3152L8 15.8935V14.31c.2925-.4463.8625-1.3987 1.4285-2.8136C10.2185 9.5212 11 6.6452 11 3zM4 20v-3h2.1925l.6461 3H4zm2-5H4v-1.5571l2 .75V15zm.825-2.6337L4 11.3069V4.0001l4.9785.0002c-.1245 2.8791-.7692 5.1589-1.407 6.7533-.2623.6557-.5233 1.1953-.7464 1.6127zM13 3V1.999c3 .0028 6 .0012 9 .0008V22h-7.3152L16 15.8935V14.31c-.2925-.4463-.8625-1.3987-1.4285-2.8136C13.7815 9.5212 13 6.6452 13 3zm7 8.3069V4.0001l-4.9785.0002c.1245 2.8791.7692 5.1589 1.407 6.7533.2623.6557.5233 1.1953.7464 1.6127L20 11.3069zm0 2.136-2 .75V15h2v-1.5571zM20 17h-2.1925l-.6461 3H20v-3z"></path></svg>