<svg viewBox="0 0 24 24" focusable="false" width="24" height="24" aria-hidden="true" class="svg-icon" xmlns="http://www.w3.org/2000/svg"><path fill-rule="evenodd" clip-rule="evenodd" d="m11.8545 4-.2431 1.2548c-.383 1.978.1431 4.0653 1.5973 5.5232 1.461 1.4649 3.5547 1.9894 5.5335 1.5948L20 12.1219l-.2222 1.263c-.2716 1.544-1.0043 3.0236-2.1958 4.2152-3.0616 3.0618-8.2324 3.2776-11.346.1637C3.1225 14.65 3.3382 9.479 6.3997 6.4172c1.1867-1.1867 2.6591-1.9185 4.1964-2.1927L11.8545 4zM9.7396 6.2802c-.7642.3-1.4806.7588-2.0991 1.3774-2.4291 2.4293-2.5408 6.4885-.1637 8.8658 2.377 2.3771 6.4355 2.2655 8.8644-.1637.6215-.6215 1.0818-1.3418 1.3816-2.1103-2.0789.0652-4.1826-.6546-5.7565-2.2326-1.5656-1.5697-2.2835-3.6644-2.2267-5.7366z"></path></svg>