<svg viewBox="0 0 24 24" focusable="false" width="24" height="24" aria-hidden="true" class="svg-icon" xmlns="http://www.w3.org/2000/svg"><path fill-rule="evenodd" clip-rule="evenodd" d="M13.1211 15.3271c.1979.2531.4635.6073.7305 1.0108.2653.401.5435.8675.7578 1.3408.2073.4581.3906 1.0001.3906 1.5313-.0003 1.37-1.1344 2.79-3 2.79s-2.9997-1.42-3-2.79c0-.5312.1833-1.0732.3906-1.5313.2143-.4733.4925-.9398.7578-1.3408a16.008 16.008 0 0 1 .7305-1.0108C11.5838 14.4256 12 14 12 14l1.1211 1.3271zm-1.2695 1.9864c-.2346.3545-.4566.732-.6172 1.0869-.1674.3698-.2343.6422-.2344.8086 0 .4902.3908.9306 1 .9306s1-.4404 1-.9306c-.0001-.1664-.067-.4388-.2344-.8086-.1606-.3549-.3826-.7324-.6172-1.0869-.0485-.0733-.1003-.1434-.1484-.2129-.0481.0695-.0999.1396-.1484.2129z"></path><path d="m15.126 6.2813 3.1738-1.3086.7217 1.7138-4.0264 1.6612-1.3506 2.2558h2.7393l3.5078-2.539L21 9.5625l-2.7188 1.9697L21 13.501l-1.1084 1.497-3.5059-2.538H7.6162l-3.5078 2.538L3 13.501l2.7197-1.9688L3 9.5625l1.1084-1.498 3.5068 2.539h2.7403L9.0059 8.3477 4.9775 6.6865l.7227-1.7138L8.875 6.2813l.4092-3.2832 1.8623.2265-.5225 4.1836L12 9.709l1.376-2.3008-.5225-4.1836 1.8623-.2266.4102 3.2832z"></path></svg>