<svg viewBox="0 0 24 24" focusable="false" width="24" height="24" aria-hidden="true" class="svg-icon" xmlns="http://www.w3.org/2000/svg"><path fill-rule="evenodd" clip-rule="evenodd" d="M2.1215 2.121 21.9204 21.92l-1.414 1.4142-3.0886-3.0886a3.2896 3.2896 0 0 1-.1636.0041c-1.446 0-2.6715-.9444-3.0933-2.25h-3.9043c-.4218 1.3056-1.6472 2.25-3.0932 2.25s-2.6715-.9444-3.0933-2.25H1.0003v-14h.1716l-.4645-.4645 1.4141-1.4141zm11.0503 13.8787-10-10h-.1715v10H4.07c.4218-1.3057 1.6472-2.25 3.0933-2.25 1.446 0 2.6714.9443 3.0932 2.25h2.9152zm-6.0084-.25c-.6904 0-1.25.5596-1.25 1.25 0 .6903.5596 1.25 1.25 1.25.6903 0 1.25-.5597 1.25-1.25 0-.6904-.5597-1.25-1.25-1.25z"></path><path d="m6.8285 3.9997 2 2h5.1718v5.1717l2 2V8.9997h1.9832l3.0207 4.3152v2.6848h-.6568c-.4218-1.3057-1.6472-2.25-3.0932-2.25-.211 0-.4173.0201-.6171.0585l4.1914 4.1915h2.1757v-5.3152l-3.9794-5.6848h-3.0245v-3H6.8286z"></path></svg>