<svg viewBox="0 0 24 24" focusable="false" width="24" height="24" aria-hidden="true" class="svg-icon" xmlns="http://www.w3.org/2000/svg"><path fill-rule="evenodd" clip-rule="evenodd" d="M2 2v20h20V2H2zm2 6V4h16v4H4zm0 2v10h16V10H4zm5.7828 4.1139c0 .9774-.8054 1.7772-1.7828 1.7772-.9774 0-1.7715-.7998-1.7715-1.7772 0-.9774 1.7715-3.11 1.7715-3.11s1.7828 2.1326 1.7828 3.11zm6.22 1.7772c.9774 0 1.7771-.7998 1.7771-1.7772 0-.9774-1.7771-3.11-1.7771-3.11s-1.7771 2.1326-1.7771 3.11c0 .9774.7997 1.7772 1.7771 1.7772zm-3.9986 3.11c.9775 0 1.7772-.7998 1.7772-1.7772 0-.9774-1.7772-3.11-1.7772-3.11s-1.7771 2.1326-1.7771 3.11c0 .9774.7997 1.7772 1.7771 1.7772zM8 6c0 .5523-.4477 1-1 1s-1-.4477-1-1 .4477-1 1-1 1 .4477 1 1z"></path></svg>