<svg viewBox="0 0 24 24" focusable="false" width="24" height="24" aria-hidden="true" class="svg-icon" xmlns="http://www.w3.org/2000/svg"><path d="M13.8284 11.0002H16v-2h2v-1h3v-2h-3v-1h-2v-1H6.8284l2 2H14v3h-2.1716l2 2z"></path><path fill-rule="evenodd" clip-rule="evenodd" d="M2.1213 2.1216.707 3.5358 3 5.8287v5.1715h3.983l-2.3094 4H3v6h11v-4.1715l6.506 6.5061 1.4142-1.4142-19.799-19.799zm8.9623 11.7907 1.0879 1.0879h-1.7161l.6282-1.0879zm-1.4641-1.4641-.7374-.7373-1.899 3.2893h1.163l1.4734-2.552zm-3.448-3.448L5 7.8287v1.1715h1.1715zm-1.1715 8h7v2H5v-2z"></path></svg>