<svg viewBox="0 0 24 24" focusable="false" width="24" height="24" aria-hidden="true" class="svg-icon" xmlns="http://www.w3.org/2000/svg"><path fill-rule="evenodd" clip-rule="evenodd" d="m21.9203 21.9203-1.4142 1.4142-3.3265-3.3266C15.8549 21.2336 14.1012 22 12.0001 22c-2.741 0-4.8907-1.3043-6.268-3.231-1.3616-1.9047-1.9634-4.4012-1.7274-6.8644.1314-1.3709.5227-2.7315 1.089-3.9825L.7072 3.5355l1.4142-1.4142 19.7989 19.799zM5.9956 12.0954c.0853-.8901.3059-1.7864.6281-2.6433l1.6022 1.6022a4.4787 4.4787 0 0 0-.722 2.4457c0 2.4853 2.0147 4.5 4.5 4.5a4.4792 4.4792 0 0 0 2.4457-.722l1.3146 1.3146C14.7917 19.4687 13.529 20 12.0001 20c-2.0398 0-3.6056-.9457-4.641-2.394-1.051-1.4703-1.5587-3.4738-1.3635-5.5106zM9.5039 13.5c0-.3447.0697-.6731.1959-.9718l3.2759 3.2759a2.493 2.493 0 0 1-.9718.1959c-1.3807 0-2.5-1.1193-2.5-2.5z"></path><path d="M19.4131 16.5846c.5348-1.4592.7362-3.0766.5826-4.68-.2358-2.46-1.3085-4.8868-2.7278-6.707C15.8822 3.4206 13.9822 2 12.0001 2c-1.7129 0-3.3645 1.0609-4.6757 2.496L8.74 5.9114C9.8666 4.6513 11.0607 4 12 4c1.0601 0 2.4446.8294 3.6906 2.4274 1.2123 1.5548 2.1186 3.628 2.3141 5.668.0948.989.0238 1.9702-.1947 2.8863l1.603 1.6029z"></path><path d="M16.5006 13.6722c.0437-1.1589-.3688-2.3077-1.1426-3.1723-.8885-.9926-2.1956-1.5467-3.5263-1.4967l4.6689 4.669z"></path></svg>