<svg viewBox="0 0 24 24" focusable="false" width="24" height="24" aria-hidden="true" class="svg-icon" xmlns="http://www.w3.org/2000/svg"><path d="M8 7v2H2V3h2v2.59L7.59 2 9 3.41 5.41 7H8z"></path><path fill-rule="evenodd" clip-rule="evenodd" d="M16 5.0003h3.5c1.93 0 3.5 1.57 3.5 3.5s-1.57 3.5-3.5 3.5H18l-10 10H4.5c-1.93 0-3.5-1.57-3.5-3.5s1.57-3.5 3.5-3.5H6l10-10zm5 3.5c0-.83-.67-1.5-1.5-1.5h-2.67l-10 10H4.5c-.83 0-1.5.67-1.5 1.5s.67 1.5 1.5 1.5h2.67l10-10h2.33c.83 0 1.5-.67 1.5-1.5z"></path></svg>