<svg viewBox="0 0 24 24" focusable="false" width="24" height="24" aria-hidden="true" class="svg-icon" xmlns="http://www.w3.org/2000/svg"><path d="M9.0755 5.0477c.6693.4972 1.8562 1.6013 2.7881 2.4893.0629-.0022.1267-.0003.1884.001.907-.889 1.8323-1.8669 2.918-2.5381l.002-.001c1.659-.9515 4.1611-1.5841 5.5029.2344.531.7197.6783 1.6975.3545 2.6357-.3809 1.1031-1.2975 1.8624-2.3057 2.3799-.7159.352-2.1817.9048-3.3955 1.3496a2.9726 2.9726 0 0 1-.4424.8418c.2932 1.1497.6449 2.3648.6131 3.5598-.0633 2.3777-1.4747 3.9994-3.3103 3.9998-1.7093 0-3.4726-1.4964-3.3306-3.9998.067-1.1832.4021-2.3594.6714-3.5071a3.0175 3.0175 0 0 1-.4639-.8408c-1.1745-.4081-2.433-.7931-3.496-1.4502C3.76 9.2108 2.132 7.0905 3.5021 5.2333l.002-.003C4.9048 3.473 7.443 3.8194 9.0755 5.0477zM7.8782 6.6493c-1.4499-1.094-2.528-.5486-2.7695-.2246-.5666.7805.7943 1.7367 1.3096 2.0761l.002.001c.8141.4481 1.6895.7614 2.5624 1.0742l1.5684.5401c-.1977.7478.2295 1.5537.9687 1.8037-.3246 1.3459-.7278 2.6966-.8562 4.0803-.1381 1.4879.7985 1.9998 1.325 1.9998.4121-.0005 1.255-.3928 1.3097-1.9998.0476-1.3992-.4606-2.7496-.8166-4.0813.7503-.2547 1.1766-1.0804.959-1.835l1.5352-.5605c1.0653-.3955 2.1408-.8107 2.665-1.0684.602-.3252 1.8353-1.2064 1.2246-2.0341-.1949-.2642-1.123-.7788-2.8447.2812-1.1249.6965-2.0732 1.7715-3.0059 2.6953A1.4928 1.4928 0 0 0 12.0003 9a1.495 1.495 0 0 0-1.0488.4287c-.9873-.9575-1.9651-1.9566-3.0674-2.7754l-.0059-.004z" fill-rule="evenodd" clip-rule="evenodd"></path></svg>