<svg viewBox="0 0 24 24" focusable="false" width="24" height="24" aria-hidden="true" class="svg-icon" xmlns="http://www.w3.org/2000/svg"><path d="m12.1787 7.1426 2.0371-.8496L15 8.1016 12.043 9.335 11.0596 11H13v2h-1.9258l.9151 1.6104 2.8916 1.2236-.7911 1.8047-1.9804-.8389L11.8271 19l-1.9853-.2461.4062-3.1758-.9287-1.6328-.954 1.6143.3847 3.1142-1.9873.2364-.2646-2.1446-2.0372.8516-.7832-1.8096 2.956-1.2344.9679-1.6347h-1.834l-2.5713 1.8838L2 13.2471l1.7617-1.293L2 10.6631l1.1963-1.5752 2.5723 1.8848h1.833L6.6338 9.335l-2.956-1.2334.7831-1.8086 2.0372.8506L6.7626 5l1.9873.2363-.3848 3.1133.9727 1.6465.9726-1.6465-.3828-3.1133L11.9141 5l.2646 2.1426zM22 15.75h-4v-1.5h4v1.5zm-1-3h-4v-1.5h4v1.5zm-1-3h-4v-1.5h4v1.5z"></path></svg>