<svg viewBox="0 0 24 24" focusable="false" width="24" height="24" aria-hidden="true" class="svg-icon" xmlns="http://www.w3.org/2000/svg"><path d="M9 14v2h6v-2H9zm2-4.5c0 .8284-.6716 1.5-1.5 1.5S8 10.3284 8 9.5 8.6716 8 9.5 8s1.5.6716 1.5 1.5zm3.5 1.5c.8284 0 1.5-.6716 1.5-1.5S15.3284 8 14.5 8 13 8.6716 13 9.5s.6716 1.5 1.5 1.5z"></path><path fill-rule="evenodd" clip-rule="evenodd" d="M21 12c0 4.9706-4.0294 9-9 9s-9-4.0294-9-9 4.0294-9 9-9 9 4.0294 9 9zm-2 0c0 3.866-3.134 7-7 7s-7-3.134-7-7 3.134-7 7-7 7 3.134 7 7z"></path></svg>