<svg viewBox="0 0 24 24" focusable="false" width="24" height="24" aria-hidden="true" class="svg-icon" xmlns="http://www.w3.org/2000/svg"><path d="m12.819 2-3.02 3.0273L8.6655 3.891C7.5164 2.739 5.705 2.4575 4.4453 3.6055c-1.0465.9536-1.3987 2.657-.335 4.103L5.316 9.5213 2 12.8455 10.1346 21l9.3954-9.4184.7982.8001 1.4236-1.4271L12.819 2zm-2.2806 6.6226-.7393-.741-4.9519 4.9639 5.2874 5.3003 7.9718-7.9913-5.2874-5.3003-1.5963 1.6002.7393.7412c1.2454-.3339 2.5348.64 2.5348 1.9498 0 1.1147-.9014 2.0182-2.0133 2.0182-1.3067 0-2.2782-1.2925-1.9451-2.541zM7.2418 5.318l1.1337 1.1364L6.7678 8.066 5.7557 6.5441l-.0168-.0224c-.4243-.5672-.2712-1.1204.0606-1.4229.4622-.4211 1.052-.172 1.4423.2192z" fill-rule="evenodd" clip-rule="evenodd"></path><path d="M22.5 17.8182c0 1.2-1.01 2.1818-2.2445 2.1818s-2.2445-.9818-2.2445-2.1818S20.2555 14 20.2555 14 22.5 16.6182 22.5 17.8182z"></path></svg>