<svg viewBox="0 0 24 24" focusable="false" width="24" height="24" aria-hidden="true" class="svg-icon" xmlns="http://www.w3.org/2000/svg"><path d="M10.9598 3.4c.28-.28.64-.4 1.05-.4.26 0 .5.06.72.18.22.12.39.3.51.52.13.24.18.5.18.79 0 .43-.11.81-.39 1.1-.27.29-.63.41-1.04.41-.25 0-.5-.06-.72-.18-.22-.12-.39-.3-.52-.53-.13-.23-.18-.5-.18-.79 0-.43.12-.81.39-1.1z"></path><path fill-rule="evenodd" clip-rule="evenodd" d="M9 9c0-1.1046.8954-2 2-2h2c1.1046 0 2 .8954 2 2v7h-2v5h-2v-5H9V9zm4 0h-2v5h2V9z"></path></svg>