<svg viewBox="0 0 24 24" focusable="false" width="24" height="24" aria-hidden="true" class="svg-icon" xmlns="http://www.w3.org/2000/svg"><path fill-rule="evenodd" clip-rule="evenodd" d="M6.3953 1.3524c-.8768.1357-1.4777.8265-1.8602 1.44-.4106.6586-.734 1.4903-.9745 2.345-.4768 1.6948-.6958 3.7328-.4733 5.1697.1653 1.0676.503 2.6665 1.1066 4.1242l.3223.7416 5.4248-.8592.0358-.819c.0257-.5865.1996-1.1932.4291-1.9936.0277-.0968.0563-.1965.0855-.2992.2573-.9055.5368-1.9806.5368-3.2089.0001-1.2248-.3347-2.8785-.9936-4.2114-.6203-1.2548-1.802-2.7138-3.6393-2.4292zM5.0637 10.001c-.165-1.0662-.0054-2.8022.4222-4.322.2117-.7525.4719-1.3883.7464-1.8285.7078-1.1354 1.5727-.0661 2.0094.8173.5145 1.0408.7866 2.3888.7866 3.325 0 1.0141-.2668 1.9933-.5463 2.9598-.1479.5114-.3075 1.0638-.4076 1.6262l-2.3063.3572c-.3563-1.0498-.5807-2.1365-.7043-2.935zm-.4864 7.1862 5.9261-.9386.4693 2.963c.2592 1.6365-.8573 3.1732-2.4937 3.4324-1.6365.2592-3.1732-.8573-3.4324-2.4938l-.4693-2.963zm2.2883 1.6625.1564.9877c.0864.5455.5986.9176 1.1441.8312.5455-.0864.9177-.5986.8313-1.1441l-.1565-.9877-1.9753.3129zM17.6047 1.3524c.8768.1357 1.4777.8265 1.8602 1.44.4106.6586.734 1.4903.9745 2.345.4768 1.6948.6958 3.7328.4733 5.1697-.1653 1.0676-.503 2.6665-1.1066 4.1242l-.3223.7416-5.4248-.8592-.0359-.819c-.0256-.5865-.1995-1.1932-.429-1.9936-.0277-.0968-.0563-.1965-.0855-.2992-.2573-.9055-.5368-1.9806-.5368-3.2089-.0001-1.2248.3347-2.8785.9936-4.2114.6203-1.2548 1.8019-2.7138 3.6393-2.4292zm1.3316 8.6487c.1651-1.0662.0054-2.8022-.4222-4.322-.2117-.7525-.4719-1.3883-.7464-1.8285-.7078-1.1354-1.5727-.0661-2.0094.8173-.5145 1.0408-.7865 2.3888-.7865 3.325 0 1.0141.2667 1.9933.5462 2.9598.1479.5114.3075 1.0638.4076 1.6262l2.3063.3572c.3563-1.0498.5807-2.1365.7044-2.935zm.4864 7.1861-5.9261-.9386-.4693 2.963c-.2592 1.6365.8573 3.1732 2.4937 3.4324 1.6365.2592 3.1732-.8573 3.4324-2.4938l.4693-2.963zm-2.2883 1.6625-.1564.9877c-.0864.5455-.5986.9176-1.1441.8312-.5455-.0864-.9177-.5986-.8313-1.1441l.1565-.9877 1.9753.3129z"></path></svg>