<svg viewBox="0 0 24 24" focusable="false" width="24" height="24" aria-hidden="true" class="svg-icon" xmlns="http://www.w3.org/2000/svg"><path d="M6.1182 8.6553c.3487-.7315 1.5002-1.2536 2.8945-.4336.515.3046 1.5603 1.0808 2.3437 1.6738a1.6284 1.6284 0 0 1 1.2481-.0127c.7753-.6114 1.8307-1.4058 2.3838-1.6611 1.467-.683 2.5369-.2978 2.8857.4336.3486.7316.0163 1.9458-1.5156 2.4765-.57.2026-1.8504.4999-2.8125.7129-.0839.2715-.2396.5109-.4434.7002.2314.9571.5157 2.2467.5157 2.8487-.0001 1.6077-.8114 2.412-1.6221 2.4121-.8107-.0001-1.7841-.8124-1.6221-2.4121.0616-.5968.3311-1.8689.542-2.8233a1.6092 1.6092 0 0 1-.4599-.6943c-.9701-.1968-2.2664-.4881-2.8213-.7442-1.4675-.6753-1.8653-1.7449-1.5166-2.4765z"></path><path fill-rule="evenodd" clip-rule="evenodd" d="M12 1c6.0751 0 11 4.9249 11 11s-4.9249 11-11 11S1 18.0751 1 12 5.9249 1 12 1zm0 2c-4.9706 0-9 4.0294-9 9s4.0294 9 9 9 9-4.0294 9-9-4.0294-9-9-9z"></path></svg>