<svg viewBox="0 0 24 24" focusable="false" width="24" height="24" aria-hidden="true" class="svg-icon" xmlns="http://www.w3.org/2000/svg"><path d="M16 17h6v2h-6.1707c-.4118 1.1652-1.5231 2-2.8293 2s-2.4175-.8348-2.8293-2H8.3293c-.4118 1.1652-1.523 2-2.8293 2-1.6568 0-3-1.3431-3-3l-.5-.5858V10h2.5V5h6.2208l2.2279 6.6838L14 12.081V2h2v15zm-2-2.7953L7.8268 12H4v3.4013c1.586-.9174 3.7121-.1474 4.3293 1.5987h1.8414c.545-1.5419 2.2902-2.3945 3.8293-1.8293v-.966zM18 4h4v2h-4V4zm4 3h-4v2h4V7zm-4 3h4v2h-4v-2zm0 3h4v2h-4v-2zM4.5 18c0-.5523.4477-1 1-1s1 .4477 1 1-.4477 1-1 1-1-.4477-1-1zM9.2792 7l1.2846 3.8538L8.1732 10H6.5V7h2.7792zM13 17c-.5523 0-1 .4477-1 1s.4477 1 1 1 1-.4477 1-1-.4477-1-1-1z" fill-rule="evenodd" clip-rule="evenodd"></path></svg>