<svg viewBox="0 0 24 24" focusable="false" width="24" height="24" aria-hidden="true" class="svg-icon" xmlns="http://www.w3.org/2000/svg"><path fill-rule="evenodd" clip-rule="evenodd" d="M4.15 3.32C4.54 3.1 5 3 5.5 3c.5 0 .96.1 1.35.32.37.22.66.53.86.91C7.91 4.61 8 5 8 6v9h13v2H3V6c0-1 .09-1.39.29-1.77.2-.39.48-.69.86-.91zM5 5v10h1V5H5z"></path><path d="M5.5 18c-.83 0-1.5.67-1.5 1.5S4.67 21 5.5 21 7 20.33 7 19.5 6.33 18 5.5 18zm13 0c-.83 0-1.5.67-1.5 1.5s.67 1.5 1.5 1.5 1.5-.67 1.5-1.5-.67-1.5-1.5-1.5z"></path></svg>