<svg viewBox="0 0 24 24" focusable="false" width="24" height="24" aria-hidden="true" class="svg-icon" xmlns="http://www.w3.org/2000/svg"><path fill-rule="evenodd" clip-rule="evenodd" d="M17 5H6.4908L2 11.1748V16h2.1707c.4118 1.1652 1.523 2 2.8293 2 1.3062 0 2.4175-.8348 2.8293-2h3.3414c.4118 1.1652 1.5231 2 2.8293 2s2.4174-.8348 2.8293-1.9999H22V9.6668L20 7h-3V5zm0 4v3.1707a3.0085 3.0085 0 0 1 1.8293 1.8294H20v-3.6667L19 9h-2zm-2-2H7.5092L4 11.8252V14h.1707c.4118-1.1652 1.523-2 2.8293-2 1.3062 0 2.4175.8348 2.8293 2h3.3414A3.0086 3.0086 0 0 1 15 12.1707V7zm1 7c-.5523 0-1 .4477-1 1s.4477 1 1 1 1-.4477 1-1-.4477-1-1-1zM6 15c0-.5523.4477-1 1-1s1 .4477 1 1-.4477 1-1 1-1-.4477-1-1z"></path></svg>