<svg viewBox="0 0 24 24" focusable="false" width="24" height="24" aria-hidden="true" class="svg-icon" xmlns="http://www.w3.org/2000/svg"><path d="M6.2447 2c1.0889 0 2.0696.4634 2.7555 1.2038C9.6862 2.4634 10.6668 2 11.7557 2c2.0913 0 3.4244 2.1637 2.5887 4H19c1.6569 0 3 1.3431 3 3v8c0 1.6569-1.3431 3-3 3H5c-1.6568 0-3-1.3431-3-3V9c0-1.2254.7346-2.2791 1.7875-2.7449C2.6974 4.3707 4.0556 2 6.2447 2zm-.2783 4h2.0338v-.2445C8.0002 4.786 7.2142 4 6.2447 4c-.6506 0-1.0525.7097-.7177 1.2676L5.9664 6zm4.0338 0h2.0338l.4394-.7324C12.8082 4.7097 12.4063 4 11.7557 4c-.9695 0-1.7555.786-1.7555 1.7555V6zM10 8v2h10V9c0-.5523-.4477-1-1-1h-9zM8 8H5c-.5523 0-1 .4477-1 1v1h4V8zm-4 5h4v5H5c-.5523 0-1-.4477-1-1v-4zm16 0H10v5h9c.5523 0 1-.4477 1-1v-4z" fill-rule="evenodd" clip-rule="evenodd"></path></svg>