<svg viewBox="0 0 24 24" focusable="false" width="24" height="24" aria-hidden="true" class="svg-icon" xmlns="http://www.w3.org/2000/svg"><path d="M20 18.5c0 1.3807-1.1193 2.5-2.5 2.5S15 19.8807 15 18.5s1.1193-2.5 2.5-2.5 2.5 1.1193 2.5 2.5z" fill="rgb(var(--colour-semantic-positive, 10, 138, 0))"></path><path fill-rule="evenodd" clip-rule="evenodd" d="M8.504 9v2c0 .5523.4476 1 1 1 .5522 0 .9999-.4477.9999-1V9h3v2c0 .5523.4477 1 1 1s1-.4477 1-1V9h1.6339l.2857 4h2.0051L19 7h-3.4961v-.375c0-1.9555-1.5216-3.625-3.5-3.625s-3.5 1.6695-3.5 3.625V7H5L4 21h9v-2H6.148l.7142-10H8.504zm1.9999-2.375c0-.944.717-1.625 1.5-1.625s1.5.681 1.5 1.625V7h-3v-.375z"></path></svg>