<svg viewBox="0 0 24 24" focusable="false" width="24" height="24" aria-hidden="true" class="svg-icon" xmlns="http://www.w3.org/2000/svg"><path fill-rule="evenodd" clip-rule="evenodd" d="M13.7467 18.1766C12.9482 19.7737 12.2151 20 12 20c-.2151 0-.9482-.2263-1.7467-1.8234-.3065-.6131-.5745-1.3473-.7831-2.1766h5.0596c-.2086.8293-.4766 1.5635-.7831 2.1766zM14.8885 14h-5.777A17.7354 17.7354 0 0 1 9 12c0-.6949.0392-1.3641.1115-2h5.777c.0723.6359.1115 1.3051.1115 2 0 .6949-.0392 1.3641-.1115 2zm1.6955 2c-.2658 1.2166-.6492 2.307-1.1213 3.2138A8.0347 8.0347 0 0 0 18.9297 16H16.584zm3.164-2H16.9c.0656-.6462.1-1.3151.1-2 0-.6849-.0344-1.3538-.1-2h2.848A8.0156 8.0156 0 0 1 20 12a8.0156 8.0156 0 0 1-.252 2zm-.8183-6a8.035 8.035 0 0 0-3.467-3.2138c.4721.9068.8555 1.9972 1.1213 3.2138h2.3457zm-4.3999 0c-.2086-.8293-.4766-1.5635-.7831-2.1766C12.9482 4.2264 12.2151 4 12 4c-.2151 0-.9482.2263-1.7467 1.8234-.3065.613-.5745 1.3473-.7831 2.1766h5.0596zM7.416 8c.2658-1.2166.6491-2.307 1.1213-3.2138A8.035 8.035 0 0 0 5.0703 8H7.416zm-3.164 2A8.0147 8.0147 0 0 0 4 12c0 .6906.0875 1.3608.252 2H7.1a19.829 19.829 0 0 1-.1-2c0-.6849.0344-1.3538.1-2H4.252zm3.164 6H5.0704a8.0347 8.0347 0 0 0 3.467 3.2138C8.0651 18.307 7.6818 17.2166 7.4161 16zM22 12c0-5.5229-4.4772-10-10-10C6.4771 2 2 6.4771 2 12c0 5.5228 4.4771 10 10 10 5.5228 0 10-4.4772 10-10z"></path></svg>