<svg viewBox="0 0 24 24" focusable="false" width="24" height="24" aria-hidden="true" class="svg-icon" xmlns="http://www.w3.org/2000/svg"><path fill-rule="evenodd" clip-rule="evenodd" d="M22 3H2v18h20V3zM5.4547 15.0296v1.26h5.988v-1.524h-3.732v-.084l1.104-1.032c.504-.464.932-.888 1.284-1.272.36-.384.632-.772.816-1.164.192-.392.288-.824.288-1.296 0-.44-.112-.832-.336-1.176-.216-.352-.528-.628-.936-.828-.4-.208-.88-.312-1.44-.312-.512 0-.952.06-1.32.18-.36.112-.68.26-.96.444-.28.184-.54.384-.78.6l.984 1.164c.344-.28.672-.496.984-.648.312-.152.632-.228.96-.228.32 0 .572.084.756.252.192.168.288.424.288.768 0 .28-.06.544-.18.792-.12.24-.312.512-.576.816-.264.296-.612.668-1.044 1.116l-2.148 2.172zm11.6471-3.912c-.408-.2-.872-.3-1.392-.3-.28 0-.5.016-.66.048-.152.024-.296.048-.432.072l.156-1.68h3.06v-1.536h-4.644l-.324 4.368.72.384c.16-.04.36-.08.6-.12.24-.048.472-.072.696-.072 1.144 0 1.716.432 1.716 1.296 0 .464-.144.808-.432 1.032-.28.216-.688.324-1.224.324-.368 0-.76-.052-1.176-.156-.416-.112-.772-.244-1.068-.396v1.56c.296.152.64.268 1.032.348.4.08.824.12 1.272.12 1.128 0 1.98-.264 2.556-.792.576-.536.864-1.268.864-2.196 0-.568-.12-1.044-.36-1.428-.232-.384-.552-.676-.96-.876z"></path></svg>