<svg viewBox="0 0 24 24" focusable="false" width="24" height="24" aria-hidden="true" class="svg-icon" xmlns="http://www.w3.org/2000/svg"><path d="M17.332 2.2095c.2906-.2793.7617-.2793 1.0523 0 .2906.2793.2906.732 0 1.0114l-3.338 3.2082.5954.5723 4.1109-3.951c.2906-.2793.7618-.2793 1.0524 0 .2906.2793.2906.7321 0 1.0114l-4.1109 3.951.5954.5723 3.3381-3.2082c.2906-.2793.7617-.2793 1.0523 0 .2906.2793.2906.732 0 1.0114l-3.338 3.2082.5954.5723 1.7924-1.7226c.2906-.2793.7618-.2793 1.0524 0 .2906.2792.2906.732 0 1.0114-1.5434 1.4812-3.0663 3.518-4.9773 4.5422-.1185-.964-.9402-1.7104-1.9362-1.7104h-4.2942c-.3787-.6563-.58-1.4011-.5743-2.1652l.0414-5.5408c.0033-.4488.3259-.8376.7799-.942.5755-.1322 1.1477.2345 1.24.7962l.4026 2.4503 4.868-4.6784z"></path><path d="M15.2668 15.9379a.7332.7332 0 1 1 0 1.4664H9.5384v.8297h4.6515a.7332.7332 0 0 1 0 1.4664H9.5384v.8298h2.4976a.7332.7332 0 1 1 0 1.4664l-5.5262-.0039C4.0191 21.9927 2 19.9735 2 17.4828a4.51 4.51 0 0 1 1.344-3.2118l4.0455-3.9879a1.0011 1.0011 0 0 1 1.2263-.1394c.4968.305.6296.9696.2867 1.4411l-1.4958 2.0568 6.7833.0001a.7332.7332 0 0 1 0 1.4664H9.5384v.8298h5.7284z"></path></svg>