<svg viewBox="0 0 24 24" focusable="false" width="24" height="24" aria-hidden="true" class="svg-icon" xmlns="http://www.w3.org/2000/svg"><path d="M20.3628 5.5c0 1.3807-1.1193 2.5-2.5 2.5s-2.5-1.1193-2.5-2.5 1.1193-2.5 2.5-2.5 2.5 1.1193 2.5 2.5z" fill="rgb(var(--colour-semantic-positive, 10, 138, 0))"></path><path d="M15.1462 2.6518C14.1816 2.2324 13.1185 2 12 2c-4.4349 0-8 3.6543-8 8.1248V15h1.532c.2274 1.7449 1.6385 3 3.468 3v-7c-1.306 0-2.3988.6396-3 1.6404v-2.5156C6 6.7254 8.7029 4 12 4c.547 0 1.0776.075 1.5823.2157l1.5639-1.564zM17.9988 10a6.475 6.475 0 0 1 .0012.1248v2.5157C17.3989 11.6397 16.306 11 15 11v7c1.306 0 2.3989-.6397 3-1.6405V18c0 1.1046-.8954 2-2 2h-4v2h4c2.2091 0 4-1.7909 4-4v-7.8752c0-.0417-.0003-.0833-.0009-.1248h-2.0003z"></path></svg>