<svg viewBox="0 0 24 24" focusable="false" width="24" height="24" aria-hidden="true" class="svg-icon" xmlns="http://www.w3.org/2000/svg"><path d="M7.5 13c1.933 0 3.5 1.567 3.5 3.5S9.433 20 7.5 20 4 18.433 4 16.5 5.567 13 7.5 13zm0 2c-.8284 0-1.5.6716-1.5 1.5S6.6716 18 7.5 18 9 17.3284 9 16.5 8.3284 15 7.5 15zm9-2c1.933 0 3.5 1.567 3.5 3.5S18.433 20 16.5 20 13 18.433 13 16.5s1.567-3.5 3.5-3.5zm0 2c-.8284 0-1.5.6716-1.5 1.5s.6716 1.5 1.5 1.5 1.5-.6716 1.5-1.5-.6716-1.5-1.5-1.5zm-9-11C9.433 4 11 5.567 11 7.5S9.433 11 7.5 11 4 9.433 4 7.5 5.567 4 7.5 4zm0 2C6.6716 6 6 6.6716 6 7.5S6.6716 9 7.5 9 9 8.3284 9 7.5 8.3284 6 7.5 6zm9-2C18.433 4 20 5.567 20 7.5S18.433 11 16.5 11 13 9.433 13 7.5 14.567 4 16.5 4zm0 2c-.8284 0-1.5.6716-1.5 1.5S15.6716 9 16.5 9 18 8.3284 18 7.5 17.3284 6 16.5 6z" fill-rule="evenodd" clip-rule="evenodd"></path></svg>