<svg viewBox="0 0 24 24" focusable="false" width="24" height="24" aria-hidden="true" class="svg-icon" xmlns="http://www.w3.org/2000/svg"><path fill-rule="evenodd" clip-rule="evenodd" d="M12.0039 12.9961c1.933 0 3.5 1.567 3.5 3.5s-1.567 3.5-3.5 3.5-3.5-1.567-3.5-3.5 1.567-3.5 3.5-3.5zm0 2c-.8284 0-1.5.6716-1.5 1.5s.6716 1.5 1.5 1.5 1.5-.6716 1.5-1.5-.6716-1.5-1.5-1.5zm0-11.0001c1.933 0 3.5 1.5671 3.5 3.5 0 1.933-1.567 3.5001-3.5 3.5001s-3.5-1.567-3.5-3.5 1.567-3.5 3.5-3.5zm0 2c-.8284 0-1.5.6717-1.5 1.5 0 .8285.6716 1.5 1.5 1.5s1.5-.6715 1.5-1.5c0-.8283-.6716-1.5-1.5-1.5z"></path></svg>