<svg viewBox="0 0 24 24" focusable="false" width="24" height="24" aria-hidden="true" class="svg-icon" xmlns="http://www.w3.org/2000/svg"><path d="M5.5 15C7.433 15 9 16.567 9 18.5S7.433 22 5.5 22 2 20.433 2 18.5 3.567 15 5.5 15zm0 2c-.8284 0-1.5.6716-1.5 1.5S4.6716 20 5.5 20 7 19.3284 7 18.5 6.3284 17 5.5 17zm13-2c1.933 0 3.5 1.567 3.5 3.5S20.433 22 18.5 22 15 20.433 15 18.5s1.567-3.5 3.5-3.5zm0 2c-.8284 0-1.5.6716-1.5 1.5s.6716 1.5 1.5 1.5 1.5-.6716 1.5-1.5-.6716-1.5-1.5-1.5zM12 8.5c1.933 0 3.5 1.567 3.5 3.5s-1.567 3.5-3.5 3.5-3.5-1.567-3.5-3.5 1.567-3.5 3.5-3.5zm0 2c-.8284 0-1.5.6716-1.5 1.5s.6716 1.5 1.5 1.5 1.5-.6716 1.5-1.5-.6716-1.5-1.5-1.5zM5.5 2C7.433 2 9 3.567 9 5.5S7.433 9 5.5 9 2 7.433 2 5.5 3.567 2 5.5 2zm0 2C4.6716 4 4 4.6716 4 5.5S4.6716 7 5.5 7 7 6.3284 7 5.5 6.3284 4 5.5 4zm13-2C20.433 2 22 3.567 22 5.5S20.433 9 18.5 9 15 7.433 15 5.5 16.567 2 18.5 2zm0 2c-.8284 0-1.5.6716-1.5 1.5S17.6716 7 18.5 7 20 6.3284 20 5.5 19.3284 4 18.5 4z" fill-rule="evenodd" clip-rule="evenodd"></path></svg>