<svg viewBox="0 0 24 24" focusable="false" width="24" height="24" aria-hidden="true" class="svg-icon" xmlns="http://www.w3.org/2000/svg"><path d="m8.9375 13.0947-1.959-.4023.252-1.6719a2.6906 2.6906 0 0 0-.669.167 2.576 2.576 0 0 0-.831.5283 2.38 2.38 0 0 0-.543.7725A2.2447 2.2447 0 0 0 5 13.3848c0 .306.0632.6108.1875.8964.1244.2857.308.5488.543.7725.2351.2239.5174.4037.831.5274.5102.2011 1.044.1884 1.8828.1884h1v1c0 .8072-.012 1.2837.1875 1.7422.1244.2859.3088.5486.544.7725.2352.2238.5165.4046.8301.5283.3137.1237.6518.1875.9941.1875.3423 0 .6804-.0638.9941-.1875a2.5738 2.5738 0 0 0 .8301-.5283c.2352-.2239.4196-.4866.544-.7725.1995-.4585.1875-.935.1875-1.7422v-1h1c.8389 0 1.3726.0127 1.8828-.1884.3136-.1237.5959-.3035.831-.5274a2.3796 2.3796 0 0 0 .543-.7725 2.2355 2.2355 0 0 0 .082-1.5751l-.082-.2178a2.3791 2.3791 0 0 0-.543-.7725 2.5762 2.5762 0 0 0-.831-.5283 2.6938 2.6938 0 0 0-.6699-.167l.2529 1.6719-1.959.4023L14.0654 6.5h2.0205l.377 2.5a4.7125 4.7125 0 0 1 1.709.3271c.549.2165 1.0515.5349 1.4765.9395a4.38 4.38 0 0 1 .9981 1.4238l.082.2022c.1793.4771.2715.9821.2715 1.4922a4.2373 4.2373 0 0 1-.2715 1.4912l-.082.2031c-.2329.5352-.5731 1.0182-.9981 1.4229-.425.4046-.9275.7229-1.4765.9394-.5535.2183-1.1184.2918-1.6319.3164-.0288.4869-.1088 1.0252-.3379 1.5518a4.3782 4.3782 0 0 1-.998 1.4238 4.5607 4.5607 0 0 1-1.2734.8535l-.2032.086A4.7134 4.7134 0 0 1 12 22a4.7134 4.7134 0 0 1-1.7275-.3271c-.5491-.2165-1.0515-.5349-1.4766-.9395a4.3797 4.3797 0 0 1-.998-1.4238c-.2292-.5266-.31-1.0649-.339-1.5518-.513-.0246-1.0776-.0983-1.6308-.3164-.549-.2165-1.0515-.5348-1.4765-.9394-.425-.4047-.7652-.8877-.998-1.4229A4.245 4.245 0 0 1 3 13.3848a4.245 4.245 0 0 1 .3535-1.6944 4.3795 4.3795 0 0 1 .998-1.4238c.4251-.4046.9276-.723 1.4766-.9395A4.7124 4.7124 0 0 1 7.5361 9l.378-2.5h2.0205l-.9971 6.5947z"></path><path d="M13 13h-2V6.5h2V13zm6.9902-8.9902L23 5l-3.0098.9902L19 9l-.9902-3.0098L15 5l3.0098-.9902L19 1l.9902 3.0098z"></path></svg>