<svg viewBox="0 0 24 24" focusable="false" width="24" height="24" aria-hidden="true" class="svg-icon" xmlns="http://www.w3.org/2000/svg"><path d="M4 12c0 4.4183 3.5817 8 8 8 1.8487 0 3.551-.6271 4.9056-1.6801L5.6801 7.0944C4.6271 8.449 4 10.1513 4 12zm14.3199 4.9056L7.0944 5.6801C8.449 4.6271 10.1513 4 12 4c4.4183 0 8 3.5817 8 8 0 1.8487-.6271 3.551-1.6801 4.9056zM2 12c0 5.5228 4.4771 10 10 10 5.5228 0 10-4.4772 10-10 0-5.5229-4.4772-10-10-10C6.4771 2 2 6.4771 2 12z" fill-rule="evenodd" clip-rule="evenodd"></path></svg>