<svg viewBox="0 0 24 24" focusable="false" width="24" height="24" aria-hidden="true" class="svg-icon" xmlns="http://www.w3.org/2000/svg"><path fill-rule="evenodd" clip-rule="evenodd" d="m5.7192 2 1.5 6h9.5616l1.5-6H5.7192zm3.0616 4-.5-2h7.4384l-.5 2H8.7808zM4 14.5078c0-.8248.1932-1.5247.4547-1.9838.2782-.4884.509-.524.5453-.524.0364 0 .267.0356.5453.524.2615.4591.4547 1.159.4547 1.9838 0 1.1333-.3545 2.2644-1.0001 3.1628C4.3543 16.7724 4 15.6413 4 14.5078zm4 0c0 1.5293-.5123 3.1824-1.5028 4.4971.5825.3138 1.2546.4951 2.0028.4951.7481 0 1.42-.1813 2.0025-.4951C9.5123 17.6904 9 16.0374 9 14.5078c0-1.1082.2545-2.1622.7169-2.9738C10.1625 10.7518 10.9318 10 12 10s1.8375.7518 2.2831 1.534c.4624.8116.7169 1.8656.7169 2.9738 0 1.5293-.5124 3.1824-1.5028 4.4971.5825.3138 1.2545.4951 2.0028.4951.7481 0 1.4201-.1813 2.0025-.4951C16.5123 17.6904 16 16.0374 16 14.5078c0-1.1082.2545-2.1622.7169-2.9738C17.1625 10.7518 17.9318 10 19 10s1.8375.7518 2.2831 1.534c.4624.8116.7169 1.8656.7169 2.9738 0 1.5293-.5124 3.1824-1.5028 4.4971.5825.3139 1.2545.4951 2.0028.4951v2c-1.378 0-2.5485-.4007-3.5001-1.0526-.9517.6518-2.122 1.0526-3.4999 1.0526-1.378 0-2.5485-.4007-3.5001-1.0526C11.0482 21.0992 9.8779 21.5 8.5 21.5c-1.378 0-2.5484-.4007-3.5001-1.0526C4.0482 21.0992 2.8779 21.5 1.5 21.5v-2c.7481 0 1.42-.1813 2.0025-.4951C2.5123 17.6904 2 16.0374 2 14.5078c0-1.1082.2545-2.1622.7169-2.9738C3.1625 10.7518 3.9319 10 5 10c1.0682 0 1.8375.7518 2.2831 1.534.4624.8116.7169 1.8656.7169 2.9738zm5 0c0 1.1333-.3545 2.2644-1.0001 3.1628-.6455-.8982-.9999-2.0293-.9999-3.1628 0-.8248.1932-1.5247.4547-1.9838.2782-.4884.5089-.524.5453-.524.0364 0 .2671.0356.5453.524.2615.4591.4547 1.159.4547 1.9838zm7 0c0 1.1333-.3545 2.2644-1.0001 3.1628-.6455-.8982-.9999-2.0293-.9999-3.1628 0-.8248.1932-1.5247.4547-1.9838.2782-.4884.5089-.524.5453-.524.0364 0 .2671.0356.5453.524.2615.4591.4547 1.159.4547 1.9838z"></path></svg>