<svg viewBox="0 0 24 24" focusable="false" width="24" height="24" aria-hidden="true" class="svg-icon" xmlns="http://www.w3.org/2000/svg"><path d="M3 8h18v14H3V8zm2 2v10h14V10H5z" fill-rule="evenodd" clip-rule="evenodd"></path><path d="M10 19c0 .5523-.4477 1-1 1s-1-.4477-1-1 .4477-1 1-1 1 .4477 1 1zm6 0c0 .5523-.4477 1-1 1s-1-.4477-1-1 .4477-1 1-1 1 .4477 1 1z"></path><path fill-rule="evenodd" clip-rule="evenodd" d="m11.5369 5.5355-1.4142 1.4143-2.1213-2.1214L5.88 6.9497 4.4658 5.5355 8.0014 2l3.5355 3.5355zm.9307-2.113 1.4143-1.4142 2.1213 2.1213 2.1213-2.1213 1.4142 1.4142-3.5355 3.5356-3.5356-3.5356z"></path><path d="M6 13v-2h3c.5523 0 1 .4477 1 1v1h7l-1 4H9c-.5523 0-1-.4477-1-1v-3H6z"></path><path fill-rule="evenodd" clip-rule="evenodd" d="m17 13-1 4H9c-.5523 0-1-.4477-1-1v-3H6v-2h3c.5523 0 1 .4477 1 1v1h7z"></path></svg>