<svg viewBox="0 0 24 24" focusable="false" width="24" height="24" aria-hidden="true" class="svg-icon" xmlns="http://www.w3.org/2000/svg"><path d="M9.5001 19.9986h5.0001v2h-5v-2z"></path><path d="M9.5186 8.9305c-.5968.5854-1.0184 1.4936-1.0184 2.7824 0 .8935.3912 1.7662.98 2.7713.121.2066.2548.4244.3937.6509.3561.5803.7467 1.2169 1.0471 1.8635h2.1474c.3028-.6708.7074-1.3274 1.0735-1.9216.1276-.2071.2506-.4066.3629-.5965.5974-1.0099.9954-1.8792.9954-2.7676 0-1.2888-.4215-2.197-1.0183-2.7824-.6028-.5913-1.4644-.9319-2.4817-.9319s-1.8788.3406-2.4816.932zM8.118 7.5028c1.0258-1.0063 2.4143-1.5042 3.8822-1.5042 1.468 0 2.8565.4979 3.8823 1.5042 1.032 1.0124 1.6177 2.4614 1.6177 4.2101 0 1.4687-.6566 2.7423-1.274 3.786a55.2687 55.2687 0 0 1-.462.7626c-.4672.7615-.8526 1.3896-1.0616 2.0422l-.2226.6949H9.5366l-.232-.6749c-.2219-.6453-.5988-1.2613-1.0481-1.9957-.1594-.2605-.328-.5359-.5019-.8328-.6142-1.0484-1.2544-2.3186-1.2544-3.7823 0-1.7487.5858-3.1977 1.6178-4.21z" fill-rule="evenodd" clip-rule="evenodd"></path><path d="m3.0435 16.4526 2.9004-.9401a6.9549 6.9549 0 0 1-.7477-1.8601l-2.8604.9272a9.932 9.932 0 0 0 .7077 1.873zm-.909-6.0984 2.9005.9402a6.9568 6.9568 0 0 1 .4842-1.9455L2.659 8.4217a9.928 9.928 0 0 0-.5244 1.9325zm2.9834-5.6099 1.7858 2.4564a7.0304 7.0304 0 0 1 1.566-1.2471L6.6994 3.5184A10.0412 10.0412 0 0 0 5.118 4.7443zm5.872-2.6943v3.022a7.1701 7.1701 0 0 1 2-.003V2.048a10.2322 10.2322 0 0 0-2 .002zm6.2968 1.4599L15.516 5.9454a7.0306 7.0306 0 0 1 1.5688 1.2434L18.87 4.7332a10.0425 10.0425 0 0 0-1.5833-1.2233zm4.0518 4.9061-2.8603.9271a6.9572 6.9572 0 0 1 .486 1.9449l2.8999-.9399a9.931 9.931 0 0 0-.5256-1.932zm.3237 6.1695-2.86-.927a6.9585 6.9585 0 0 1-.7494 1.8595l2.9005.9402a9.9328 9.9328 0 0 0 .7089-1.8727z"></path></svg>