<svg viewBox="0 0 24 24" focusable="false" width="24" height="24" aria-hidden="true" class="svg-icon" xmlns="http://www.w3.org/2000/svg"><path fill-rule="evenodd" clip-rule="evenodd" d="M7 12H6v3c0 2.2523 1.7477 4 4 4h4c2.2523 0 4-1.7477 4-4v-3h-1V5c0-1.6568-1.3431-3-3-3a2.9888 2.9888 0 0 0-2 .7639A2.9888 2.9888 0 0 0 10 2C8.3431 2 7 3.3432 7 5v7zm7-8c-.5523 0-1 .4477-1 1v7h2V5c0-.5523-.4477-1-1-1zm-3 8V5c0-.5523-.4477-1-1-1s-1 .4477-1 1v7h2zm-3 3v-1h8v1c0 1.1477-.8523 2-2 2h-4c-1.1477 0-2-.8523-2-2z"></path><path d="M14.7807 20h-5.557v2h5.557v-2z"></path></svg>