<svg viewBox="0 0 24 24" focusable="false" width="24" height="24" aria-hidden="true" class="svg-icon" xmlns="http://www.w3.org/2000/svg"><path d="m21.9203 21.9201-1.4142 1.4142-6.3847-6.3847-1.4145 1.4144c-1.9526 1.9527-5.1184 1.9527-7.071 0-1.9526-1.9526-1.9526-5.1184 0-7.071l1.4145-1.4145L.7072 3.5353l1.4142-1.4142L21.9203 21.92zM11.293 14.1212l1.4143 1.4142-1.4146 1.4144c-1.1715 1.1716-3.071 1.1716-4.2426 0-1.1716-1.1715-1.1716-3.071 0-4.2426l1.4145-1.4144 1.4142 1.4141-1.4145 1.4145 1.4142 1.4142 1.4145-1.4144z" fill-rule="evenodd" clip-rule="evenodd"></path><path d="m16.9498 14.1212-1.4142-1.4143 1.414-1.4139c1.1716-1.1716 1.1716-3.071 0-4.2427-1.1716-1.1715-3.0711-1.1715-4.2427 0l-1.4139 1.414-1.4142-1.4142 1.4139-1.414c1.9527-1.9526 5.1185-1.9526 7.0711 0 1.9526 1.9527 1.9526 5.1185 0 7.0711l-1.414 1.414z"></path><path d="m12.7072 9.8785 1.414-1.414 1.4142 1.4143-1.414 1.4139-1.4142-1.4142z"></path></svg>