<svg viewBox="0 0 24 24" focusable="false" width="24" height="24" aria-hidden="true" class="svg-icon" xmlns="http://www.w3.org/2000/svg"><path d="M18.054 3.4927h-6.7172C10.656 2.5863 9.5723 2 8.3514 2c-2.061 0-3.7318 1.6708-3.7318 3.7318s1.6708 3.7318 3.7318 3.7318c1.3813 0 2.5873-.7505 3.2325-1.866h1.6203l1.1195-1.1195 1.1196 1.1196 1.1195-1.1196 1.1195 1.1196h1.1196l1.4912-1.866-2.2391-2.239zM9.3442 5.7305c0 .5522-.4477 1-1 1-.5522 0-1-.4478-1-1 0-.5523.4478-1 1-1 .5523 0 1 .4477 1 1zm-.0025 5.4298C9.872 10.2696 10.757 9.5 12.0002 9.5s2.1281.7696 2.6584 1.6603c.4076.6844.6561 1.5079.7606 2.3397h5.9346l-2.615 8.5H5.2615l-2.615-8.5h5.9347c.1044-.8318.353-1.6553.7605-2.3397zm3.5985 1.0232c.209.3509.3684.8087.4573 1.3165h-2.7946c.0888-.5078.2483-.9656.4573-1.3165.307-.5156.6341-.6835.94-.6835.3059 0 .633.1679.94.6835zm.4189 3.3165h-2.7178c.0736.3164.1797.5979.3126.828.2671.4624.6012.672 1.0463.672.445 0 .7792-.2096 1.0463-.672.1329-.2301.239-.5116.3126-.828zM9.222 17.3283c-.3168-.5486-.5152-1.18-.6163-1.8283H5.3543L6.7387 20h10.5229l1.3844-4.5h-3.2513c-.1011.6483-.2995 1.2797-.6163 1.8283C14.2332 18.2721 13.3051 19 12.0002 19c-1.305 0-2.233-.7279-2.7782-1.6717z" fill-rule="evenodd" clip-rule="evenodd"></path></svg>