<svg viewBox="0 0 24 24" focusable="false" width="24" height="24" aria-hidden="true" class="svg-icon" xmlns="http://www.w3.org/2000/svg"><path d="M13.9804 15.3946c-1.0361.7502-2.3099 1.1925-3.6869 1.1925C6.8177 16.5871 4 13.7694 4 10.2935 4 6.8177 6.8177 4 10.2935 4c3.4759 0 6.2936 2.8177 6.2936 6.2935 0 1.377-.4423 2.6508-1.1925 3.6869l4.6016 4.6016-1.4142 1.4142-4.6016-4.6016zm.6067-5.1011c0 2.3713-1.9223 4.2936-4.2936 4.2936C7.9223 14.5871 6 12.6648 6 10.2935 6 7.9223 7.9223 6 10.2935 6c2.3713 0 4.2936 1.9223 4.2936 4.2935z" fill-rule="evenodd" clip-rule="evenodd"></path></svg>