<svg viewBox="0 0 24 24" focusable="false" width="24" height="24" aria-hidden="true" class="svg-icon" xmlns="http://www.w3.org/2000/svg"><path fill-rule="evenodd" clip-rule="evenodd" d="M6 5c0 1.1046.8954 2 2 2s2-.8954 2-2h4c0 1.1046.8954 2 2 2s2-.8954 2-2h4v14h-8c0-1.1046-.8954-2-2-2s-2 .8954-2 2H2V5h4zm2.5351 12c.6916-1.1956 1.9843-2 3.4649-2 1.4806 0 2.7733.8044 3.4649 2H20V7h-.5351c-.5303.9168-1.4141 1.6035-2.4649 1.874V13h-2V8.874c-1.0508-.2705-1.9346-.9572-2.4649-1.874h-1.0702C10.9346 7.9168 10.0508 8.6035 9 8.874V13H7V8.874C5.9492 8.6035 5.0655 7.9168 4.5351 7H4v10h4.5351z"></path></svg>