<svg viewBox="0 0 24 24" focusable="false" width="24" height="24" aria-hidden="true" class="svg-icon" xmlns="http://www.w3.org/2000/svg"><path fill-rule="evenodd" clip-rule="evenodd" d="M4.585 7.402C5.7661 5.943 7.5702 5 9.8854 5c2.9088 0 4.9137 1.4831 5.9172 3.369.9681 1.8192 1.0345 4.1009-.0358 5.6897-1.2796 1.8996-3.536 2.4845-5.4091 2.1093-1.8808-.3767-3.6713-1.8062-3.6713-4.1679 0-.9998.3592-1.8331.9714-2.4133.5986-.5675 1.3798-.8368 2.1385-.8368.7586 0 1.5399.2693 2.1385.8368.6121.5802.9714 1.4135.9714 2.4133h-2c0-.5004-.1682-.7921-.3473-.9618-.1926-.1826-.4663-.2883-.7626-.2883-.2963 0-.57.1057-.7626.2883-.1791.1697-.3473.4614-.3473.9618 0 1.1382.8246 1.9586 2.0641 2.2069 1.2472.2498 2.6163-.1653 3.3576-1.2657.5667-.8413.6331-2.3096-.0711-3.6328C13.3684 8.0518 12.0288 7 9.8855 7c-1.7266 0-2.9539.682-3.7462 1.6605-.8101 1.0006-1.211 2.3715-1.1288 3.7813.082 1.4055.641 2.7906 1.673 3.8184C7.703 17.2757 9.2412 18 11.401 18H21v2h-9.599c-2.6398 0-4.7013-.9007-6.129-2.3227-1.4151-1.4097-2.1506-3.2746-2.2581-5.1191-.1073-1.8402.4076-3.7193 1.571-5.1562z"></path></svg>