<svg viewBox="0 0 24 24" focusable="false" width="24" height="24" aria-hidden="true" class="svg-icon" xmlns="http://www.w3.org/2000/svg"><path fill-rule="evenodd" clip-rule="evenodd" d="M2 12c0 5.5228 4.4771 10 10 10 5.5228 0 10-4.4772 10-10 0-5.5229-4.4772-10-10-10C6.484 2 2 6.7016 2 12zm7.5007-7.6018a7.9703 7.9703 0 0 0-2.0067.9906c5.8966 1.8104 8.4217 8.9398 6.2308 14.4248a7.9439 7.9439 0 0 0 2.074-.7713c1.9405-5.4142.0447-12.176-6.2981-14.6441zm8.8831 12.424c3.5654-4.7125.7048-11.9012-5.2546-12.7431 4.269 3.0053 5.8892 8.0678 5.2546 12.7431zm-6.9433 3.1585a8.5908 8.5908 0 0 0 .6481-1.5315c-3.0772-.3394-5.8789-2.2153-7.8576-4.5327.8157 3.3179 3.7015 5.8219 7.2095 6.0642zm-7.2538-9.7068c1.5326 3.0716 4.7605 5.9061 8.2917 6.2038a9.8066 9.8066 0 0 0 .0011-1.7093c-3.2253-.9634-6.241-3.332-7.5709-6.475a7.9436 7.9436 0 0 0-.7219 1.9805zm7.8121 2.1969c-2.3193-.9871-4.4706-2.8412-5.3631-5.2471 2.682.7191 4.5194 2.7651 5.3631 5.2471z"></path></svg>