<svg viewBox="0 0 24 24" focusable="false" width="24" height="24" aria-hidden="true" class="svg-icon" xmlns="http://www.w3.org/2000/svg"><path d="M6.7108 4.9823C5.29 3.5404 3.3516 3.86 2.191 4.8245.8051 5.9764.6004 7.9313 1.7253 9.3415a139.3996 139.3996 0 0 0 1.9838 2.4329l-.4874.6182c-.8874 1.1257-.7963 2.7247.2092 3.7451 1.1331 1.1498 3.0026 1.1498 4.1357 0l1.4421-1.4634c.0759 1.323.317 2.4494.677 3.3139.3988.958 1.109 2.0118 2.2624 2.0118 1.1038 0 1.9005-.8724 2.3323-1.8564.3759-.8569.6177-2.013.6883-3.4653l1.4382 1.4594c1.1331 1.1498 3.0026 1.1498 4.1357 0 1.0055-1.0204 1.0966-2.6194.2091-3.7451l-.4873-.6182a139.3708 139.3708 0 0 0 1.9838-2.433c.6266-.7854.8498-1.669.713-2.512-.1329-.8192-.5912-1.5166-1.1788-2.005-1.1605-.9644-3.0989-1.284-4.5197.158-1.2194 1.2375-1.774 1.9649-2.9965 3.4018a2.4914 2.4914 0 0 0-.2245-.3561c.4695-.8714.9485-2.231.9485-4.0277h-2.0024c0 1.392-.3596 2.409-.6779 3.0208a2.5262 2.5262 0 0 0-.6464.0001c-.3184-.6118-.678-1.6288-.678-3.021H8.9831c0 1.805.4835 3.1688.955 4.0398a2.4856 2.4856 0 0 0-.2193.3577c-1.2307-1.4461-1.7847-2.174-3.008-3.4155zm2.461 5.8444a20.3455 20.3455 0 0 0-.1036.9362l-2.9287 2.9719c-.3487.3538-.9329.3538-1.2815 0-.3001-.3046-.325-.7726-.063-1.105l1.5012-1.9042a129.373 129.373 0 0 1-3.0048-3.6304c-.4553-.5708-.3815-1.2664.1805-1.7334.5608-.466 1.291-.505 1.8117.0234 1.4602 1.482 1.789 2.0446 3.8883 4.4415zm8.6622 3.9081-2.9159-2.9589a19.912 19.912 0 0 0-.098-.9703c2.0826-2.379 2.4139-2.9429 3.8698-4.4204.5206-.5284 1.2509-.4895 1.8117-.0234.5619.467.6358 1.1626.1805 1.7334a129.3165 129.3165 0 0 1-3.0048 3.6304l1.5012 1.9042c.262.3324.2371.8004-.063 1.105-.3487.3538-.9329.3538-1.2815 0zM11.9481 18c-1.1273-.9421-1.8299-8.9997.0385-8.9997 1.7053 0 1.2742 8.1809-.0385 8.9997z" fill-rule="evenodd" clip-rule="evenodd"></path></svg>