<svg viewBox="0 0 24 24" focusable="false" width="24" height="24" aria-hidden="true" class="svg-icon" xmlns="http://www.w3.org/2000/svg"><path d="m15.6416 17.8594-5.962-1.8242-.6894.1855L10.003 20H7.9326l-.874-3.2617-2.8975.7763-1.8125-6.7617 5.5196-1.4785L12.119 4.714l3.5225 13.1455zm-6.7021-6.8018L4.7988 12.167l.7764 2.8975 4.1406-1.1094 3.0596.9355-1.6543-6.1738-2.1816 2.3408z" fill-rule="evenodd" clip-rule="evenodd"></path><path d="m20.3135 15.624-1 1.7324-3.4649-2 1-1.7324 3.4649 2zm.6377-4.9941-3.8643 1.0351-.5176-1.9326 3.8643-1.0351.5176 1.9326zm-3.5987-5.9151-2 3.464-1.7324-1 2-3.464 1.7324 1z"></path></svg>