<svg viewBox="0 0 24 24" focusable="false" width="24" height="24" aria-hidden="true" class="svg-icon" xmlns="http://www.w3.org/2000/svg"><path d="M12 17c-.5523 0-1 .4477-1 1s.4477 1 1 1 1-.4477 1-1-.4477-1-1-1zM9.5 8h2v2h-2V8zm2 3h-2v2h2v-2zm1-3h2v2h-2V8zm2 3h-2v2h2v-2z"></path><path fill-rule="evenodd" clip-rule="evenodd" d="M9 2C7.3431 2 6 3.3432 6 5v14c0 1.6569 1.3431 3 3 3h6c1.6569 0 3-1.3431 3-3V5c0-1.6568-1.3431-3-3-3H9zM8 5c0-.5523.4477-1 1-1h6c.5523 0 1 .4477 1 1v14c0 .5523-.4477 1-1 1H9c-.5523 0-1-.4477-1-1V5z"></path></svg>