<svg viewBox="0 0 24 24" focusable="false" width="24" height="24" aria-hidden="true" class="svg-icon" xmlns="http://www.w3.org/2000/svg"><path fill-rule="evenodd" clip-rule="evenodd" d="M2 4v16h20V4H2zm2 14V6h10v12H4zm12 0V6h4v12h-4zm2-8c.5523 0 1-.4477 1-1s-.4477-1-1-1-1 .4477-1 1 .4477 1 1 1zm1 2c0 .5523-.4477 1-1 1s-1-.4477-1-1 .4477-1 1-1 1 .4477 1 1zm-6.5 1h-7l.75 3h5.5l.75-3zM6 11.3289v-1.0464c1.044-.277 2.251-.215 3.2233.2703.8265.4126 1.9132.4286 2.7767.1174v1.0463c-1.0439.2767-2.2509.2164-3.2233-.2689-.8265-.4125-1.9131-.4307-2.7767-.1187zm0-2V8.2825c1.044-.277 2.251-.215 3.2233.2703.8265.4126 1.9132.4286 2.7767.1174v1.0463c-1.0439.2767-2.2509.2164-3.2233-.269C7.9502 9.0352 6.8636 9.017 6 9.329z"></path></svg>