<svg viewBox="0 0 24 24" focusable="false" width="24" height="24" aria-hidden="true" class="svg-icon" xmlns="http://www.w3.org/2000/svg"><path fill-rule="evenodd" clip-rule="evenodd" d="M2 5h14v4h4v5.1707c1.1652.4118 2 1.5231 2 2.8293 0 1.6569-1.3431 3-3 3-.8427 0-1.6043-.3475-2.1492-.9069A3.4875 3.4875 0 0 1 14.5 20c-1.3962 0-2.6015-.8175-3.1632-2H6v-4H2V5zm9.0354 11c.2427-1.6961 1.7014-3 3.4646-3 1.1831 0 2.2292.5871 2.8627 1.4858A2.9872 2.9872 0 0 1 18 14.1707V11H8v5h3.0354zM14 7v2H6v3H4V7h10zm.5 11c.8284 0 1.5-.6716 1.5-1.5s-.6716-1.5-1.5-1.5-1.5.6716-1.5 1.5.6716 1.5 1.5 1.5zm4.5 0c.5523 0 1-.4477 1-1s-.4477-1-1-1-1 .4477-1 1 .4477 1 1 1z"></path></svg>