<svg viewBox="0 0 24 24" focusable="false" width="24" height="24" aria-hidden="true" class="svg-icon" xmlns="http://www.w3.org/2000/svg"><path fill-rule="evenodd" clip-rule="evenodd" d="M11.9999 12.5351V4h2c0 .2816.1404.8534.4697 1.5377.3189.663.7526 1.3008 1.2135 1.7321.6001.5615 1.168 1.1196 1.5816 1.69.4218.5818.7444 1.2586.7351 2.0519l-1.9999-.0234c.0025-.2067-.0738-.4674-.3544-.8544-.2887-.3983-.7267-.8402-1.3289-1.4037a5.9689 5.9689 0 0 1-.3167-.3203V16c0 2.2091-1.7909 4-4 4-2.2092 0-4-1.7909-4-4 0-2.2091 1.7908-4 4-4a3.982 3.982 0 0 1 2 .5351zm-2 1.4649c1.1045 0 2 .8954 2 2s-.8955 2-2 2c-1.1046 0-2-.8954-2-2s.8954-2 2-2z"></path></svg>