<svg viewBox="0 0 24 24" focusable="false" width="24" height="24" aria-hidden="true" class="svg-icon" xmlns="http://www.w3.org/2000/svg"><path d="M13.0037 13h-2.0036V7h2l.0036 6zm-2.25 2.75c0-.6904.5596-1.25 1.25-1.25.6903 0 1.25.5596 1.25 1.25S12.694 17 12.0037 17c-.6904 0-1.25-.5596-1.25-1.25z"></path><path fill-rule="evenodd" clip-rule="evenodd" d="M12 2C6.4771 2 2 6.4771 2 12c0 5.5228 4.4771 10 10 10 5.5228 0 10-4.4772 10-10 0-5.5229-4.4772-10-10-10zM4 12c0-4.4183 3.5817-8 8-8s8 3.5817 8 8-3.5817 8-8 8-8-3.5817-8-8z"></path></svg>