<svg viewBox="0 0 24 24" focusable="false" width="24" height="24" aria-hidden="true" class="svg-icon" xmlns="http://www.w3.org/2000/svg"><path d="M9 6h12v2H9V6zm0 10h12v2H9v-2zm12-5H9v2h12v-2zM6.0663 11h-1.372c0-1.1754-.026-2.3532.021-3.528-.2607.3008-.576.538-.882.791l-.7-.861 1.715-1.4h1.218V11zM3.056 18h3.626v-1.113h-1.89c.3332-.3011.6693-.6343.987-.952.5566-.5566.805-1.0099.805-1.638 0-.5199-.2867-.9484-.784-1.183-.506-.2482-1.1944-.246-1.722-.063-.4532.148-.7766.4059-1.078.679l.742.868c.2053-.1773.3873-.3103.546-.399.2404-.1343.6552-.1898.8509 0 .315.3056-.0655.8112-.2769 1.043-.5732.6496-1.1973 1.2533-1.806 1.869V18z"></path></svg>