<svg viewBox="0 0 24 24" focusable="false" width="24" height="24" aria-hidden="true" class="svg-icon" xmlns="http://www.w3.org/2000/svg"><path d="m12.0002 2 4.2426 4.2426-1.4142 1.4143-1.8284-1.8285V11h5.1715l-1.8284-1.8285 1.4142-1.4142 4.2426 4.2426-4.2424 4.2429-1.4143-1.4143L18.172 13h-5.1718v5.1715l1.8284-1.8284 1.4142 1.4142-4.2426 4.2426-4.2428-4.2424 1.4142-1.4142 1.8286 1.8285V13h-5.172l1.8287 1.8285-1.4143 1.4143L2 12.0001l4.2428-4.2428L7.657 9.1715 5.8286 11h5.1716V5.828L9.1716 7.6568 7.7574 6.2424 12.0002 2z"></path></svg>