<svg viewBox="0 0 24 24" focusable="false" width="24" height="24" aria-hidden="true" class="svg-icon" xmlns="http://www.w3.org/2000/svg"><path fill-rule="evenodd" clip-rule="evenodd" d="M6.353 9.0499C6.1875 9.2205 6 9.5707 6 10.2825c0 .6106.175.9567.3557 1.1445.1784.1856.4639.323.9006.323.4277 0 .71-.1381.8889-.3271.1828-.1931.3548-.5429.3548-1.1404 0-.5987-.1731-.9733-.3677-1.1868-.1877-.206-.4697-.3457-.876-.3457-.466 0-.7407.132-.9034.2999zm-1.4362-1.392C5.5535 7.001 6.407 6.75 7.2563 6.75c.909 0 1.7489.3343 2.3542.9985.5984.6566.8895 1.5482.8895 2.534 0 .9868-.2922 1.8708-.9024 2.5154-.6142.6487-1.4538.9521-2.3413.9521-.8787 0-1.7214-.2911-2.3422-.9367C4.2954 12.1699 4 11.2822 4 10.2825c0-1.0545.283-1.9706.9168-2.6246zm9.088-1.2227c-.2569.2558-.497.7299-.497 1.6117 0 .7643.2269 1.2312.4998 1.5051.2748.2758.7034.4636 1.3127.4636.6008 0 1.0253-.1903 1.2994-.4697.2743-.2797.4975-.7503.4975-1.499 0-.7501-.2246-1.2488-.5107-1.5518C16.3242 6.1961 15.9004 6 15.3203 6c-.6379 0-1.0561.1769-1.3155.4352zM12.5936 5.018C13.3306 4.284 14.3187 4 15.3203 4c1.0596 0 2.0342.3742 2.7404 1.122.7024.744 1.0565 1.7687 1.0565 2.9249 0 1.1575-.3554 2.1712-1.0697 2.8994-.7144.7284-1.6884 1.0693-2.7272 1.0693-1.0302 0-2.0079-.3277-2.7295-1.052-.7235-.7261-1.083-1.7436-1.083-2.9167 0-1.2433.3463-2.2926 1.0858-3.029zm-.3187 11.6001c-.4101.2386-.7145.5595-.93.9787-.2203.4285-.3449.9471-.3449 1.5818V20H9v-.8214c0-.9026.1791-1.7434.5662-2.4963.3867-.7523.9809-1.3738 1.7122-1.7983.7686-.4403 1.6621-.634 2.6344-.634h3.1744c.9153 0 1.839.1783 2.6395.6369.7411.4302 1.3157 1.034 1.7071 1.7954.3871.7529.5662 1.5937.5662 2.4963V20h-2v-.8214c0-.6347-.1246-1.1533-.3449-1.5818-.2155-.4192-.5199-.7401-.93-.9787-.399-.2279-.9298-.3681-1.6379-.3681h-3.1744c-.708 0-1.2389.1402-1.6379.3681z"></path><path d="M8 15.25v2H6.2014c-.5492 0-.9454.1123-1.2356.284-.3039.1835-.5324.4311-.6971.7634-.1696.342-.2687.7624-.2687 1.2859V20H2v-.4167c0-.7807.1494-1.5138.4768-2.1742a3.8547 3.8547 0 0 1 1.465-1.5932c.6653-.3951 1.4343-.5659 2.2596-.5659H8z"></path></svg>