<svg viewBox="0 0 24 24" focusable="false" width="24" height="24" aria-hidden="true" class="svg-icon" xmlns="http://www.w3.org/2000/svg"><path d="M9.6586 2.908C10.2953 2.251 11.1487 2 11.998 2c.909 0 1.7489.3343 2.3542.9985.5985.6566.8896 1.5482.8896 2.534 0 .9868-.2922 1.8708-.9025 2.5154C13.7252 8.6966 12.8856 9 11.998 9c-.8786 0-1.7213-.2911-2.3421-.9367-.6187-.6434-.9141-1.531-.9141-2.5308 0-1.0545.2829-1.9706.9168-2.6246zm1.4361 1.3919c-.1654.1706-.3529.5208-.3529 1.2326 0 .6106.175.9567.3556 1.1445.1785.1856.4639.323.9006.323.4278 0 .7101-.1381.889-.3271.1827-.193.3548-.5429.3548-1.1404 0-.5987-.1732-.9733-.3677-1.1868C12.6863 4.1397 12.4044 4 11.998 4c-.466 0-.7407.132-.9033.2999z" fill-rule="evenodd" clip-rule="evenodd"></path><path d="M7.5 14c0-2.2092 1.791-4 4.0001-4h1c2.2091 0 4 1.7909 4 4v8h-2v-8c0-1.1046-.8954-2-2-2h-1c-1.1046 0-2 .8954-2 2L9.5 22h-2v-8z"></path></svg>