<svg viewBox="0 0 24 24" focusable="false" width="24" height="24" aria-hidden="true" class="svg-icon" xmlns="http://www.w3.org/2000/svg"><path d="M21 17.5039c0 1.3807-1.1193 2.5-2.5 2.5s-2.5-1.1193-2.5-2.5 1.1193-2.5 2.5-2.5 2.5 1.1193 2.5 2.5z" fill="rgb(var(--colour-semantic-informative, 0, 88, 163))"></path><path fill-rule="evenodd" clip-rule="evenodd" d="M9.2379 5.0766C9.9677 4.3262 10.9383 4 12.0217 4c.6909 0 1.3439.1494 1.9297.477.5916.331 1.0513.8119 1.376 1.4125.3399.6212.482 1.3367.482 2.0996 0 1.1348-.3034 2.158-1.044 2.9207-.7271.7563-1.6937 1.0896-2.7755 1.0896-.6867 0-1.3361-.1506-1.9235-.4736l-.0062-.0034c-.5927-.3315-1.0528-.8135-1.3777-1.4155l-.0031-.0058c-.3342-.629-.4772-1.3464-.4772-2.112 0-1.1315.2981-2.1542 1.0357-2.9125zm2.7838.9245c-.6689 0-1.0759.1895-1.3493.4707-.2657.2731-.4692.727-.4692 1.5173 0 .5185.0965.8953.2419 1.1704.1546.2854.35.4803.5888.6147.2598.1422.5703.2241.956.2241.655 0 1.0581-.1888 1.334-.4764l.0048-.005c.275-.2827.4796-.7422.4796-1.5278 0-.5218-.0976-.8862-.237-1.1404l-.0033-.0059c-.1555-.2882-.3524-.4845-.5934-.6193-.2479-.1387-.5558-.2224-.9529-.2224z"></path><path d="M7.759 15.5049c-.5671.3299-.9916.7769-1.2899 1.3572C6.166 17.4517 6 18.1557 6 19v1H4v-1c0-1.1122.2205-2.1383.6904-3.0523.4743-.9225 1.1689-1.6525 2.0671-2.174C7.7317 13.212 8.8655 13 9.98 13h4.04c.82 0 1.587.1114 2.2863.3511l-1.6773 1.6773A6.2932 6.2932 0 0 0 14.02 15H9.98c-.9375 0-1.6627.1858-2.221.5049z"></path></svg>