<svg viewBox="0 0 24 24" focusable="false" width="24" height="24" aria-hidden="true" class="svg-icon" xmlns="http://www.w3.org/2000/svg"><path fill-rule="evenodd" clip-rule="evenodd" d="M3.9004 2.9506C4.3958 2.3357 5.1294 2 5.9944 2c.8642 0 1.5989.335 2.0966.947.475.5839.659 1.325.659 2.0374 0 .7117-.1836 1.456-.6523 2.0448C7.6053 7.6477 6.871 8 5.9944 8c-.8774 0-1.6107-.3531-2.1005-.9745-.4651-.59-.6439-1.3336-.6439-2.0411 0-.708.1791-1.4487.6504-2.0338zM5.458 4.2053c-.1056.131-.2079.3825-.2079.779 0 .3971.1027.6612.2145.803.087.1103.2258.2127.53.2127.3048 0 .4483-.1032.5384-.2164.1137-.1428.2171-.4064.2171-.7992 0-.3923-.103-.6433-.2105-.7754C6.4549 4.105 6.3117 4 5.9945 4c-.3166 0-.4551.1042-.5366.2053z"></path><path d="M17.6568 6.3431 19.071 4.929v4.2427h-4.2426l1.4142-1.4143C15.1316 6.6463 13.5774 6 12 6V4c2.1072 0 4.1675.8537 5.6568 2.3431zm-8.4852 8.4853H4.929v4.2427l1.4142-1.4142C7.8314 19.1451 9.8932 20 12 20v-2c-1.5802 0-3.1264-.6412-4.2426-1.7573l1.4142-1.4143zM3.1935 11.709C2.9623 12.1026 3 12.5615 3 13H1c0-.8078.047-1.5858.4691-2.3041C2.1771 9.4908 3.5037 9 4.8457 9h2.3086c1.342 0 2.6685.4908 3.3766 1.6959C10.953 11.4142 11 12.1922 11 13H9c0-.4385.0378-.8974-.1935-1.291C8.4718 11.1394 7.765 11 7.1543 11H4.8457c-.6107 0-1.3175.1394-1.6522.709zm12 9c.3347-.5696 1.0415-.709 1.6522-.709h2.3086c.6107 0 1.3175.1394 1.6522.709.2312.3936.1935.8525.1935 1.291h2c0-.8078-.047-1.5858-.4691-2.3041C21.8228 18.4908 20.4963 18 19.1543 18h-2.3086c-1.342 0-2.6685.4908-3.3766 1.6959C13.047 20.4142 13 21.1922 13 22h2c0-.4385-.0377-.8974.1935-1.291z"></path><path fill-rule="evenodd" clip-rule="evenodd" d="M17.9944 11c-.8649 0-1.5986.3357-2.094.9506-.4713.585-.6504 1.3258-.6504 2.0338 0 .7075.1788 1.4512.6439 2.0411.4898.6214 1.2231.9745 2.1005.9745.8766 0 1.6109-.3523 2.1033-.9708.4687-.5888.6523-1.3331.6523-2.0448 0-.7123-.184-1.4535-.6589-2.0374-.4978-.612-1.2325-.947-2.0967-.947zm-.7444 2.9844c0-.3966.1023-.6481.2079-.7791.0815-.1011.22-.2053.5365-.2053.3173 0 .4605.1049.5451.209.1075.1321.2105.3831.2105.7754 0 .3928-.1034.6564-.2171.7992-.0901.1132-.2335.2164-.5385.2164-.3041 0-.443-.1024-.5299-.2127-.1118-.1418-.2145-.4059-.2145-.8029z"></path></svg>