<svg viewBox="0 0 24 24" focusable="false" width="24" height="24" aria-hidden="true" class="svg-icon" xmlns="http://www.w3.org/2000/svg"><path d="M12 5c-.8493 0-1.7028.251-2.3395.908-.6338.654-.9168 1.57-.9168 2.6245 0 .9997.2954 1.8874.9141 2.5308C10.2787 11.7089 11.1213 12 12 12c.8875 0 1.7272-.3034 2.3413-.9521.6103-.6446.9024-1.5286.9024-2.5154 0-.9858-.2911-1.8774-.8895-2.534C13.7489 5.3343 12.909 5 12 5zm-1.2563 3.5325c0-.7118.1876-1.062.353-1.2326C11.2593 7.132 11.534 7 12 7c.4064 0 .6883.1397.876.3457.1946.2135.3677.588.3677 1.1868 0 .5975-.172.9473-.3548 1.1404C12.71 9.8619 12.4278 10 12 10c-.4367 0-.7221-.1374-.9006-.323-.1806-.1878-.3557-.5339-.3557-1.1445z" fill-rule="evenodd" clip-rule="evenodd"></path><path d="M8.29 16.0857c.1793-.3255.4365-.583.7979-.7794.3516-.1874.8273-.3063 1.4692-.3063h2.8858c.6419 0 1.1176.1189 1.4692.3063.3614.1964.6186.4539.7979.7794.1839.3339.29.7403.29 1.2476V18h2v-.6667c0-.797-.1699-1.5439-.5382-2.2125-.3724-.6762-.9144-1.2032-1.5994-1.5743l-.0049-.0027c-.71-.3795-1.529-.5438-2.4146-.5438h-2.8858c-.8856 0-1.7047.1643-2.4146.5438l-.0049.0027c-.685.3711-1.227.8981-1.5994 1.5743C6.1699 15.7894 6 16.5363 6 17.3333V18h2v-.6667c0-.5073.1061-.9137.29-1.2476z"></path></svg>