<svg viewBox="0 0 24 24" focusable="false" width="24" height="24" aria-hidden="true" class="svg-icon" xmlns="http://www.w3.org/2000/svg"><path d="M15.9978 8.8635c.1231.3756.2006.7715.2347 1.1795L21 5.2756V4h-.1387l-4.8635 4.8635zm-1.0837-1.7447a3.9263 3.9263 0 0 0-.8153-.5989L16.6187 4h1.4142l-3.1188 3.1188zm-3.1285-1.1142L13.7903 4h-1.4142L9.8807 6.4954c.5991-.3175 1.2578-.4638 1.9049-.4908zM8.3118 8.0642c-.3133.5842-.4843 1.2482-.5391 1.9534L3 14.7903v-1.4142l5.3118-5.3119zm-.1944 4.4371a4.082 4.082 0 0 0 .5116.9026L3 19.0329v-1.4142l5.1174-5.1174zm7.8944 2.0051c-.3433-.1541-.6997-.2688-1.0644-.3498L21 8.104v1.4142l-4.9882 4.9882zM19.0035 20H19c0-.4575.0125-.9162-.0392-1.3716L21 16.5893v1.4142L19.0035 20zM21 13.7608l-2.7405 2.7406a4.8851 4.8851 0 0 0-.6021-.8122L21 12.3466v1.4142zM8.1334 4h1.4142L3 10.5476V9.1334L8.1334 4zM5.305 4H3.8908L3 4.8908V6.305L5.305 4z"></path><path fill-rule="evenodd" clip-rule="evenodd" d="M9.6605 7.908C10.297 7.251 11.1506 7 11.9999 7c.909 0 1.7489.3343 2.3542.9985.5985.6566.8896 1.5482.8896 2.534 0 .9868-.2922 1.8708-.9025 2.5154-.6141.6487-1.4537.9521-2.3413.9521-.8786 0-1.7213-.2911-2.3422-.9367-.6186-.6434-.914-1.5311-.914-2.5308 0-1.0545.2829-1.9706.9168-2.6246zm1.4361 1.3919c-.1654.1706-.3529.5208-.3529 1.2326 0 .6106.175.9567.3556 1.1445.1785.1856.4639.323.9006.323.4278 0 .71-.1381.8889-.3271.1828-.1931.3549-.5429.3549-1.1404 0-.5987-.1732-.9733-.3678-1.1868-.1877-.206-.4696-.3457-.876-.3457-.466 0-.7407.132-.9033.2999z"></path><path d="M8.29 18.0857c.1793-.3255.4365-.583.7979-.7794.3516-.1874.8273-.3063 1.4692-.3063h2.8858c.6419 0 1.1176.1189 1.4692.3063.3614.1964.6186.4539.7979.7794.1839.3339.29.7403.29 1.2476V20h2v-.6667c0-.797-.1699-1.5439-.5382-2.2125-.3686-.6692-.931-1.217-1.6043-1.577-.71-.3795-1.529-.5438-2.4146-.5438h-2.8858c-.8856 0-1.7047.1643-2.4146.5438-.6729.3646-1.2343.9053-1.6043 1.577C6.1699 17.7894 6 18.5363 6 19.3333V20h2v-.6667c0-.5073.1061-.9137.29-1.2476z"></path></svg>