<svg viewBox="0 0 24 24" focusable="false" width="24" height="24" aria-hidden="true" class="svg-icon" xmlns="http://www.w3.org/2000/svg"><path d="M9 7c1.1046 0 2 .8954 2 2v7H9v5H7v-5H5V9c0-1.1046.8954-2 2-2h2zm5 .5c.8284 0 1.5.6716 1.5 1.5v6.5H14V20h-2V9a2.9837 2.9837 0 0 0-.376-1.4512c.1203-.031.246-.0488.376-.0488h2zm4.5.5c.5523 0 1 .4477 1 1v6h-1v4h-2l.0625-9.4727a2.9859 2.9859 0 0 0-.374-1.4775A.9983.9983 0 0 1 16.5 8h2zm-.7148-3c.2022 0 .3894.0463.5605.1396.1711.0934.3032.2342.3965.4053.1009.1866.1396.3889.1396.6143 0 .3343-.085.63-.3027.8554-.21.2256-.4907.3184-.8096.3184-.1943 0-.3885-.0464-.5595-.1396-.1711-.0933-.3032-.2334-.4043-.4121-.1011-.1788-.1406-.3889-.1407-.6143 0-.3343.0939-.63.3038-.8555.2177-.2177.4976-.3114.8164-.3115zm-4.8877-1c.231 0 .4441.0536.6396.1602.1956.1066.3474.2663.4541.4619.1155.2132.1601.4444.1602.7021 0 .382-.0982.7198-.3467.9776-.24.2577-.5604.3652-.9248.3652-.2221 0-.4442-.0537-.6397-.1602-.1955-.1066-.3473-.2672-.4629-.4716-.1153-.2044-.1601-.4446-.1601-.7022 0-.382.1068-.7198.3467-.9775.2488-.2489.5692-.3555.9336-.3555zM8.0098 3c.2598 0 .4998.0598.7197.1797.22.12.3907.3005.5107.5205.1299.24.1797.5002.1797.79 0 .4298-.1099.8097-.3896 1.0996-.27.29-.6302.4101-1.04.4102-.25 0-.5008-.0597-.7208-.1797-.2199-.12-.3895-.3003-.5195-.5303-.13-.23-.1797-.5-.1797-.79 0-.43.1198-.8096.3897-1.0996C7.24 3.1204 7.5998 3 8.0098 3z"></path></svg>