<svg viewBox="0 0 24 24" focusable="false" width="24" height="24" aria-hidden="true" class="svg-icon" xmlns="http://www.w3.org/2000/svg"><path d="M15 3v2h2.59L14 8.59 15.41 10 19 6.41V9h2V3h-6z"></path><path fill-rule="evenodd" clip-rule="evenodd" d="M3.2786 9.6354c-.869-2.6067.468-4.7264 1.6332-5.8917L6.6555 2l1.5002.1242 3.4873 4.8823-.1051 1.2708-1.3037 1.3037c.4436 1.1756.9381 1.9924 1.5652 2.6196.6272.6271 1.444 1.1216 2.6196 1.5652l1.3037-1.3037 1.2708-.1051 4.8823 3.4873L22 17.3445l-1.7437 1.7437c-1.1653 1.1653-3.285 2.5021-5.8917 1.6332-1.1755-.3918-2.4852-1.1494-3.6497-1.9556-1.1738-.8127-2.2673-1.7217-3.0132-2.4675-.7458-.7459-1.6548-1.8394-2.4675-3.0131-.8062-1.1646-1.5638-2.4743-1.9556-3.6498zm3.0282-4.4968c-.9272.9272-1.6827 2.2949-1.1567 3.873.3057.917.943 2.0484 1.7061 3.1506.7567 1.0931 1.5914 2.092 2.2405 2.7411.649.6491 1.648 1.4838 2.7411 2.2405 1.1022.763 2.2337 1.4004 3.1506 1.7061 1.5781.526 2.9458-.2296 3.873-1.1567l.9203-.9203-3.2549-2.325-.7218.7218c-.5222.5223-1.3176.7286-2.0495.4542-1.3629-.5108-2.4601-1.1375-3.351-2.0284-.891-.8909-1.5176-1.9881-2.0284-3.351-.2744-.7319-.0681-1.5273.4542-2.0495l.7218-.7218-2.325-3.255-.9203.9204z"></path></svg>