<svg viewBox="0 0 24 24" focusable="false" width="24" height="24" aria-hidden="true" class="svg-icon" xmlns="http://www.w3.org/2000/svg"><path d="m9.5 9.8288-3.5 5 9.7188-.0001-1.9844-2.8349-1.3594 1.9421L9.5 9.8288zm3-.2578c0 .6903.5596 1.25 1.25 1.25S15 10.2613 15 9.571c0-.6904-.5596-1.25-1.25-1.25s-1.25.5596-1.25 1.25z"></path><path d="M11 1 6.6243 4.8288H3v14h16v-14h-3.6243L11 1zm1.3386 3.8288L11 3.6575 9.6615 4.8288h2.6771zM5 6.8288v10h12v-10H5z" fill-rule="evenodd" clip-rule="evenodd"></path><path d="M20 19.8288v-11h2v13H7v-2h13z"></path></svg>