<svg viewBox="0 0 24 24" focusable="false" width="24" height="24" aria-hidden="true" class="svg-icon" xmlns="http://www.w3.org/2000/svg"><path d="M12 4c-.9975 0-1.8812.4868-2.4267 1.2358l-2.491-1.2323C5.1557 5.9301 4 8.205 4 11v9h16v-9.6062l-5.1247-2.5351A3.0012 3.0012 0 0 0 15 7c0-1.6569-1.3431-3-3-3zm0 6a2.986 2.986 0 0 0 1.6932-.5232L16.8381 11H6c0-1.5.4542-3.1918 1.5-4.5227l1.507.7299C9.1135 8.7674 10.4128 10 12 10zm6 3v1.5H6V13h12zM6 16.5V18h12v-1.5H6zM11 7c0-.5523.4477-1 1-1s1 .4477 1 1-.4477 1-1 1-1-.4477-1-1z" fill-rule="evenodd" clip-rule="evenodd"></path></svg>