<svg viewBox="0 0 24 24" focusable="false" width="24" height="24" aria-hidden="true" class="svg-icon" xmlns="http://www.w3.org/2000/svg"><path d="M4.9993 12c.3296.1491.6487.295.9818.4341.809.3378 1.5463.5659 2.2294.5659h7.579c.6831 0 1.4204-.2281 2.2294-.5659.3331-.1391.6522-.285.9818-.4341-.3296-.1491-.6487-.295-.9818-.4341-.809-.3378-1.5463-.5659-2.2294-.5659h-7.579c-.683 0-1.4204.2281-2.2294.5659-.3331.1391-.6522.285-.9818.4341zm3.2112-3h7.579c1.9291 0 3.4892 1.0965 5.2525 1.6828.5375.1787.958.686.958 1.3172 0 .6312-.4205 1.1385-.958 1.3172C19.2787 13.9035 17.7186 15 15.7895 15h-7.579c-1.9291 0-3.4892-1.0965-5.2525-1.6828C2.4205 13.1385 2 12.6312 2 12c0-.6312.4205-1.1385.958-1.3172C4.7213 10.0965 6.2814 9 8.2105 9z" fill-rule="evenodd" clip-rule="evenodd"></path></svg>