<svg viewBox="0 0 24 24" focusable="false" width="24" height="24" aria-hidden="true" class="svg-icon" xmlns="http://www.w3.org/2000/svg"><path fill-rule="evenodd" clip-rule="evenodd" d="M4.3277 12c1.177.7261 2.4532 2 3.8828 2h7.579c1.4296 0 2.7059-1.2739 3.8828-2-1.1769-.7261-2.4532-2-3.8828-2h-7.579c-1.4296 0-2.7059 1.2739-3.8828 2zm3.8828-4h7.579c2.1123 0 3.5573 1.5846 5.2923 2.5058.5076.2695.9182.8141.9182 1.4942 0 .6801-.4106 1.2247-.9182 1.4942-1.735.9212-3.18 2.5058-5.2923 2.5058h-7.579c-2.1123 0-3.5573-1.5846-5.2923-2.5058C2.4106 13.2247 2 12.6801 2 12c0-.6801.4106-1.2247.9182-1.4942C4.6532 9.5846 6.0982 8 8.2105 8z"></path></svg>