<svg viewBox="0 0 24 24" focusable="false" width="24" height="24" aria-hidden="true" class="svg-icon" xmlns="http://www.w3.org/2000/svg"><path d="m16.9601 1.2783-3.8452 1.793 1.793 3.8452.7411-2.036a7.9989 7.9989 0 0 1 4.3066 7.961 7.9996 7.9996 0 0 1-1.0274 3.1583l1.7321 1a10.001 10.001 0 0 0 .8545-8.0773 10.001 10.001 0 0 0-5.1775-5.9332l.6228-1.711zM9.4118 2.3405a10.0001 10.0001 0 0 0-6.072 14.6593l1.732-1A8 8 0 0 1 9.9294 4.2724l-.5176-1.9319z"></path><path fill-rule="evenodd" clip-rule="evenodd" d="M10.9348 11.9422h7.7668l-1.1298 9H6.9511l-1.2421-6h5.6024l-.3766-3zm.6277 5 .2511 2H8.5795l-.414-2h3.397zm1.6391-3 .6277 5h1.9778l.6277-5h-3.2332z"></path></svg>