<svg viewBox="0 0 24 24" focusable="false" width="24" height="24" aria-hidden="true" class="svg-icon" xmlns="http://www.w3.org/2000/svg"><path d="M2 8.5865c1.2551.7192 2.0696 1.872 2.0871 3.3549L4.0875 18c0 1.7374 1.2339 3 2.9723 3h9.9077c1.7384 0 2.9723-1.2626 2.9723-3v-6c0-1.7294.9027-2.7269 2.0602-3.3978l-.9907-1.7318c-.6927.4012-1.3497.9184-1.8779 1.5883-.9873-.4661-2.0507-.8245-3.155-1.0752 0-1.0147-.1544-2.0225-.9811-2.7153C14.3902 4.161 13.6431 4 13.0041 4h-1.9816c-.639 0-1.3861.161-1.9912.6681-.8267.6929-.981 1.7007-.981 2.7154-1.1042.2506-2.1674.609-3.1545 1.075-.5352-.6786-1.2023-1.2003-1.9051-1.6039L2 8.5866zM11.0225 6h1.9816c.6859 0 .9907.387.9907 1.0534a18.3988 18.3988 0 0 0-3.9631 0c0-.6665.3049-1.0534.9908-1.0534zM6.069 18v-5.0536h11.8893V18c0 .6595-.3338 1-.9908 1H7.0598c-.657 0-.9908-.3405-.9908-1zm-.0003-7.8811v.8275h11.8892v-.8275c-3.5897-1.5633-8.2995-1.5633-11.8892 0z" fill-rule="evenodd" clip-rule="evenodd"></path></svg>