<svg viewBox="0 0 24 24" focusable="false" width="24" height="24" aria-hidden="true" class="svg-icon" xmlns="http://www.w3.org/2000/svg"><path fill-rule="evenodd" clip-rule="evenodd" d="M11 5v6H7.4142L6 9.5858A2 2 0 0 0 4.5858 9H3v2h1.5858L6 12.4142V16c0 1.1046.8954 2 2 2h8c1.1046 0 2-.8954 2-2v-6c0-2.7614-2.2386-5-5-5h-2zm5 6v-1c0-1.6569-1.3431-3-3-3v4h3zm0 2H8v3h8v-3z"></path><path d="M10 20.5c0 .8284-.6716 1.5-1.5 1.5S7 21.3284 7 20.5 7.6716 19 8.5 19s1.5.6716 1.5 1.5zm7 0c0 .8284-.6716 1.5-1.5 1.5s-1.5-.6716-1.5-1.5.6716-1.5 1.5-1.5 1.5.6716 1.5 1.5z"></path></svg>