<svg viewBox="0 0 24 24" focusable="false" width="24" height="24" aria-hidden="true" class="svg-icon" xmlns="http://www.w3.org/2000/svg"><path d="M14.5 11.4307h-6V21.5h-2V9.4307h8v2zm4.5 2h-3v-4h3v4zm-10.7783-5.25H6.5693v-1.5h1.6524v1.5zm10.209 0h-1.669v-1.5h1.669v1.5zm-.42-3.0655-1.3818.7979-.75-1.2998 1.3818-.7979.75 1.2998zm-8.9062-.5107-.75 1.2988-1.3652-.788.75-1.2999 1.3652.789zM16.1143 2.67l-.7715 1.3368-1.2989-.75.7715-1.3369 1.2989.75zm-5.1612.582-1.2988.75-.7695-1.332 1.2998-.75.7685 1.332zm2.2969-.2471h-1.5V1.5h1.5v1.5049z"></path></svg>