<svg viewBox="0 0 24 24" focusable="false" width="24" height="24" aria-hidden="true" class="svg-icon" xmlns="http://www.w3.org/2000/svg"><path fill-rule="evenodd" clip-rule="evenodd" d="M19.5 21h-15L3 14.9246 20.9998 15 19.5 21zM6.0615 18.9246 17.9384 19l.5-2-12.877-.0754.5 2z"></path><path d="M6.4384 9.5c1.1918.9269 2.124 1.2303 2.9102 1.2812.8131.0527 1.5475-.1547 2.4199-.4091.8417-.2455 1.8213-.538 2.9365-.4658 1.1424.074 2.3538.5207 3.7334 1.5937l-.9199 1.1836c-1.1918-.9269-2.1241-1.2303-2.9102-1.2813-.8131-.0526-1.5475.1548-2.4199.4092-.8417.2455-1.8213.538-2.9365.4658-1.1424-.074-2.3537-.5207-3.7334-1.5937l.92-1.1836zm0-3c1.1918.9269 2.124 1.2303 2.9102 1.2813.8131.0526 1.5475-.1548 2.4199-.4092.8417-.2455 1.8213-.538 2.9365-.4658 1.1424.074 2.3538.5207 3.7334 1.5937l-.9199 1.1836c-1.1918-.927-2.1241-1.2303-2.9102-1.2813-.8131-.0526-1.5475.1548-2.4199.4092-.8417.2455-1.8213.538-2.9365.4658-1.1424-.074-2.3537-.5207-3.7334-1.5937l.92-1.1836z"></path></svg>