<svg viewBox="0 0 24 24" focusable="false" width="24" height="24" aria-hidden="true" class="svg-icon" xmlns="http://www.w3.org/2000/svg"><path d="M19 6v3.2158l-4-4 4-4V4h4v6h-2V6h-2z"></path><path fill-rule="evenodd" clip-rule="evenodd" d="M23 17.9999v-6h-2v4h-1.0698c-.4218-1.3056-1.6473-2.25-3.0933-2.25-1.446 0-2.6714.9444-3.0932 2.25H10v-10h3V4H8v3H4.9754L.9961 12.6847v5.3152h2.6567c.4218 1.3057 1.6473 2.25 3.0933 2.25 1.446 0 2.6715-.9443 3.0933-2.25h3.9043c.4218 1.3057 1.6472 2.25 3.0932 2.25s2.6715-.9443 3.0933-2.25H23zm-16.2539-4.25a3.24 3.24 0 0 1 1.254.2507V8.9999H6.0167L2.996 13.3152v2.6847h.6568c.4218-1.3056 1.6472-2.25 3.0932-2.25zm11.3408 3.25c0-.6903-.5596-1.25-1.25-1.25-.6903 0-1.25.5597-1.25 1.25 0 .6904.5597 1.25 1.25 1.25.6904 0 1.25-.5596 1.25-1.25zm-10.0908 0c0-.6903-.5596-1.25-1.25-1.25s-1.25.5597-1.25 1.25c0 .6904.5596 1.25 1.25 1.25s1.25-.5596 1.25-1.25z"></path></svg>