<svg viewBox="0 0 24 24" focusable="false" width="24" height="24" aria-hidden="true" class="svg-icon" xmlns="http://www.w3.org/2000/svg"><path d="M12.6143 11.3467c1.2214-.6249 2.7558-.4268 3.7783.5957 1.0223 1.0224 1.2194 2.5559.5947 3.7773l3.2197 3.2188-1.414 1.415-3.2198-3.2197c-1.2213.6246-2.755.4276-3.7773-.5947-1.0224-1.0225-1.2205-2.5569-.5957-3.7784l2.1875 2.1866.0771.0644c.1665.11.3854.11.5518 0l.0781-.0644.7071-.7071.0634-.0781a.5003.5003 0 0 0-.0634-.6289l-2.1875-2.1865z"></path><path d="M20 9.2695 19.999 12h-2L18 10.3232l-6-4.1113-6 4.1113V18h5v2H4V9.2695l8-5.4824 8 5.4824z"></path></svg>