<svg viewBox="0 0 24 24" focusable="false" width="24" height="24" aria-hidden="true" class="svg-icon" xmlns="http://www.w3.org/2000/svg"><path d="M10.8812 3.0723 7.036 1.2793l.6228 1.711a10.0002 10.0002 0 0 0-4.323 14.0105l1.732-1A8.0003 8.0003 0 0 1 8.3472 4.8814l.741 2.036 1.7931-3.845zm7.7084 1.4101a10.0006 10.0006 0 0 0-4.0053-2.1409l-.5177 1.9319a8.0003 8.0003 0 0 1 5.9124 8.2506 7.9998 7.9998 0 0 1-.3666 1.9245l-1.9637-.9157 1.4511 3.9868 3.9868-1.4511-1.6501-.7694a10.0006 10.0006 0 0 0-.2016-7.1252 10.0004 10.0004 0 0 0-2.6453-3.6915z"></path><path d="M17 17c0-.8179-.3928-1.5441-1.0001-2.0002V8.0001L8.0001 8v6.9998C7.3927 15.4559 7 16.1821 7 17v5h2v-2h6v2h2v-5zm-3.0001-2.5V10H13v4.5h.9999zM11 14.5V10h-.9999L10 14.5h1zM9 18h6v-1a.5.5 0 0 0-.5-.5h-5a.5.5 0 0 0-.5.5v1z" fill-rule="evenodd" clip-rule="evenodd"></path></svg>