<svg viewBox="0 0 24 24" focusable="false" width="24" height="24" aria-hidden="true" class="svg-icon" xmlns="http://www.w3.org/2000/svg"><path fill-rule="evenodd" clip-rule="evenodd" d="M12.01 3c-.41 0-.77.12-1.05.4-.27.29-.39.67-.39 1.1 0 .29.05.56.18.79.13.23.3.41.52.53.22.12.47.18.72.18.41 0 .77-.12 1.04-.41.28-.29.39-.67.39-1.1 0-.29-.05-.55-.18-.79-.12-.22-.29-.4-.51-.52-.22-.12-.46-.18-.72-.18zm.75 4h-1.52c-.45 0-.86.09-1.2.29-.34.2-.6.47-.78.82-.18.34-.26.72-.26 1.14V16h2v5h2v-5h2V9.25c0-.42-.08-.8-.26-1.14-.18-.35-.44-.62-.77-.82-.35-.2-.76-.29-1.21-.29z"></path></svg>