<svg viewBox="0 0 24 24" focusable="false" width="24" height="24" aria-hidden="true" class="svg-icon" xmlns="http://www.w3.org/2000/svg"><path d="M11 2h2v20h-2V2zM5.01 4c-.41 0-.77.12-1.05.4-.27.29-.39.67-.39 1.1 0 .29.05.56.18.79.13.23.3.41.52.53.22.12.47.18.72.18.41 0 .77-.12 1.04-.41.28-.29.39-.67.39-1.1 0-.29-.05-.55-.18-.79-.12-.22-.29-.4-.51-.52-.22-.12-.46-.18-.72-.18zm14 0c-.41 0-.77.12-1.04.4-.28.28-.39.67-.39 1.09 0 .29.05.56.18.79.12.23.29.41.52.53.21.13.46.19.71.19.41 0 .77-.12 1.04-.41.28-.29.39-.67.39-1.1 0-.29-.05-.55-.18-.79-.12-.23-.29-.41-.52-.53-.21-.11-.45-.17-.71-.17zm.75 4h-1.52c-.45 0-.86.09-1.21.29-.34.2-.6.47-.78.82-.17.34-.25.72-.25 1.14V16h2v4h2v-4h2v-5.75c0-.42-.08-.8-.26-1.14-.18-.35-.44-.62-.78-.82-.34-.2-.75-.29-1.2-.29zM3.78 8h2.44c.46 0 .86.31.97.76L9 16H6v4H4v-4H1l1.81-7.24c.11-.45.51-.76.97-.76z"></path></svg>