<svg viewBox="0 0 24 24" focusable="false" width="24" height="24" aria-hidden="true" class="svg-icon" xmlns="http://www.w3.org/2000/svg"><path d="M16.5 1s-.75 2.25-1.5 3-3 1.5-3 1.5 2.25.75 3 1.5 1.5 3 1.5 3 .75-2.25 1.5-3 3-1.5 3-1.5-2.25-.75-3-1.5-1.5-3-1.5-3zM5 5H3V3h2v2zm4 0H7V3h2v2zM5 9H3V7h2v2zm0 4H3v-2h2v2zm0 4H3v-2h2v2zm-2 4h2v-2H3v2zm4 0h2v-2H7v2zm4 0v-2h2v2h-2zm10-2v2h-2v-2h2zm-4 2h-2v-2h2v2zm4-6v2h-2v-2h2zm-1.8333-5.8333C19.5833 8.75 20 7.5 20 7.5s.4167 1.25.8333 1.6667C21.25 9.5833 22.5 10 22.5 10s-1.25.4167-1.6667.8333C20.4167 11.25 20 12.5 20 12.5s-.4167-1.25-.8333-1.6667C18.75 10.4167 17.5 10 17.5 10s1.25-.4167 1.6667-.8333z"></path></svg>