<svg viewBox="0 0 24 24" focusable="false" width="24" height="24" aria-hidden="true" class="svg-icon" xmlns="http://www.w3.org/2000/svg"><path d="M14.268 6.0832C13.5068 4.561 12.6403 4 11.9805 4c-1.3363 0-2.144 1.6528-2.5781 2.7303L7.8897 5.2177C8.6803 3.63 10.0522 2 11.9805 2c1.8254 0 3.2089 1.4538 4.0764 3.1888.8974 1.7948 1.4236 4.2043 1.4236 6.8112 0 2.6069-.5262 5.0164-1.4236 6.8112C15.1894 20.5462 13.8059 22 11.9805 22c-1.8255 0-3.209-1.4538-4.0764-3.1888C7.0067 17.0164 6.4805 14.6069 6.4805 12h-2.48l3.5-3.5 3.5 3.5h-2.52c0 2.3637.4811 4.4542 1.2124 5.9167C10.4541 19.4391 11.3207 20 11.9805 20c.6598 0 1.5263-.5609 2.2875-2.0833.7313-1.4625 1.2125-3.553 1.2125-5.9167 0-2.3637-.4812-4.4542-1.2125-5.9168z"></path></svg>