<svg viewBox="0 0 24 24" focusable="false" width="24" height="24" aria-hidden="true" class="svg-icon" xmlns="http://www.w3.org/2000/svg"><path d="M9.732 17.9167C10.4932 19.4391 11.3597 20 12.0195 20c1.3363 0 2.1439-1.6528 2.5781-2.7303l1.5127 1.5127C15.3197 20.3699 13.9478 22 12.0195 22c-1.8254 0-3.2089-1.4538-4.0764-3.1888C7.0457 17.0164 6.5195 14.6069 6.5195 12c0-2.6069.5262-5.0164 1.4236-6.8112C8.8106 3.4538 10.1941 2 12.0195 2c1.8255 0 3.2089 1.4538 4.0764 3.1888.8974 1.7948 1.4236 4.2043 1.4236 6.8112h2.48l-3.5 3.5-3.5-3.5h2.52c0-2.3637-.4811-4.4542-1.2124-5.9168C13.5459 4.561 12.6793 4 12.0195 4c-.6598 0-1.5263.5609-2.2875 2.0832C9.0007 7.5458 8.5195 9.6364 8.5195 12s.4812 4.4542 1.2125 5.9167z"></path></svg>