<svg viewBox="0 0 24 24" focusable="false" width="24" height="24" aria-hidden="true" class="svg-icon" xmlns="http://www.w3.org/2000/svg"><path fill-rule="evenodd" clip-rule="evenodd" d="M12 21H4v-8h8v8zm-6-2h4v-4H6v4z"></path><path d="M6.3428 6.3428a8.0016 8.0016 0 0 1 3.335-1.998c1.2655-.3646 2.5866-.4493 3.8827-.1915 1.2882.2764 2.4926.8234 3.5147 1.6621 1.0044.8535 1.8089 1.9006 2.3154 3.123.4542 1.1477.6741 2.3639.5908 3.5997-.1041 1.3125-.4968 2.5791-1.1962 3.6992-.9154 1.4164-2.2216 2.5453-3.7852 3.1777v-2.2226c.9173-.525 1.6287-1.2825 2.1846-2.1719.5031-.8637.7433-1.8118.8115-2.8008.0319-.8715-.1458-1.7061-.4531-2.5156-.3824-.9228-.9887-1.6912-1.7364-2.3418-.7725-.634-1.6698-1.024-2.6357-1.247-.9804-.195-1.956-.1154-2.9131.1435a6.0006 6.0006 0 0 0-2.5 1.499L10 10H4V4l2.3428 2.3428z"></path></svg>