<svg viewBox="0 0 24 24" focusable="false" width="24" height="24" aria-hidden="true" class="svg-icon" xmlns="http://www.w3.org/2000/svg"><path d="M9.5 22v-7H8v2H5c-1.6568 0-3-1.3431-3-3v-4c0-1.6569 1.3432-3 3-3h3v2h1.5V2h2v20h-2zm0-11v2H6v2H5c-.5523 0-1-.4477-1-1v-4c0-.5523.4477-1 1-1h1v2h3.5z" fill-rule="evenodd" clip-rule="evenodd"></path><path d="m12.5137 9.1647 1 6 1.9728-.3288-1-6-1.9728.3288zm3.6299 0 1 6 1.9727-.3288-1-6-1.9727.3288zm4.3019 5.0013-.6719-4 1.9724-.3313.6719 4-1.9724.3313z"></path></svg>