<svg viewBox="0 0 24 24" focusable="false" width="24" height="24" aria-hidden="true" class="svg-icon" xmlns="http://www.w3.org/2000/svg"><path d="M4 12h16v1H4v-1z" fill="#FF0303"></path><path d="M4 13h16v1H4v-1z" fill="#FF7C03"></path><path d="M5 14h14v1H5z" fill="#FAFF03"></path><path d="M5 15h14v1H5z" fill="#72FF03"></path><path fill="#2603FF" d="M5 16h14v1H5z"></path><path fill="#9F03FF" d="M5 17h14v1H5z"></path><path fill-rule="evenodd" clip-rule="evenodd" d="M12.0001 4c1.7049 0 2.9807 1.122 3.4579 2.7127.3246 1.0819.5718 2.1886.8335 3.2873h6.1516l-3.75 10H5.3072l-3.75-10h6.1516c.2617-1.0987.509-2.2054.8335-3.2873C9.0195 5.122 10.2953 4 12.0001 4zm2.2349 6H9.7653c.2293-.9532.5299-2.1701.6927-2.7127C10.6843 6.533 11.1743 6 12.0001 6s1.3159.533 1.5422 1.2873c.1628.5426.4634 1.7595.6927 2.7127zm-9.7919 2 2.2501 6h10.6139l2.25-6h-3.3252c-.6633 2.1065-1.7664 4-4.2318 4-2.4653 0-3.5685-1.8935-4.2318-4H4.4432zm5.4309 0c.3635 1.0612.8841 2 2.1261 2 1.2421 0 1.7627-.9388 2.1262-2H9.874z"></path></svg>