<svg viewBox="0 0 24 24" focusable="false" width="24" height="24" aria-hidden="true" class="svg-icon" xmlns="http://www.w3.org/2000/svg"><path d="M10.9374 2v2.4h2.125V2h-2.125zM5.5918 5.0944l1.697 1.697L8.7916 5.289l-1.697-1.697-1.5027 1.5025zM12 8.0625c-1.0701 0-1.9375.8674-1.9375 1.9375 0 .3659.1014.7081.2777 1H8.0615a4.0702 4.0702 0 0 1-.124-1c0-2.2437 1.8188-4.0625 4.0625-4.0625S16.0625 7.7563 16.0625 10c0 .3451-.043.6801-.124 1h-2.2787a1.928 1.928 0 0 0 .2777-1c0-1.07-.8674-1.9375-1.9375-1.9375zM17.5998 11h2.4V8.9374h-2.4V11zM6.4 11H4V8.9374h2.4V11zm8.8083-5.7111 1.6971-1.697 1.5026 1.5025-1.6971 1.697-1.5026-1.5025zM7.498 12h-3v4.5h3V12zm-3 10v-4.5h3V22h-3zm4-4.5V22h3v-4.5h-3zm4 4.5v-4.5h3V22h-3zm3-5.5h-3V12h3v4.5zm1 5.5v-4.5h3V22h-3zm3-5.5h-3V12h3v4.5zm-11 0h3V12h-3v4.5z"></path></svg>