<svg viewBox="0 0 24 24" focusable="false" width="24" height="24" aria-hidden="true" class="svg-icon" xmlns="http://www.w3.org/2000/svg"><path d="M14 2h4v20h-4V2zM9 12c0-1.6228-.59-3.4633-2.1017-4.9792l1.4162-1.4122C10.2325 7.5319 11 9.8955 11 12c0 2.4294-.9777 4.7693-2.6264 6.418l-1.4142-1.4142C8.2284 15.7348 9 13.9056 9 12z"></path><path d="M4.7822 9.0843C5.4805 9.7827 6 10.9426 6 12c0 1.0643-.458 2.1209-1.1844 2.8473l1.4142 1.4143C7.3198 15.1716 8 13.6108 8 12c0-1.6176-.7518-3.278-1.8034-4.3298l-1.4144 1.414z"></path></svg>