<svg viewBox="0 0 24 24" focusable="false" width="24" height="24" aria-hidden="true" class="svg-icon" xmlns="http://www.w3.org/2000/svg"><path d="M8 14.5c0-2.2091 1.7909-4 4-4 2.2091 0 4 1.7909 4 4 0 2.2091-1.7909 4-4 4-2.2091 0-4-1.7909-4-4zm4-2c-1.1046 0-2 .8954-2 2s.8954 2 2 2 2-.8954 2-2-.8954-2-2-2z" fill-rule="evenodd" clip-rule="evenodd"></path><path d="M12 9c.8284 0 1.5-.6716 1.5-1.5S12.8284 6 12 6s-1.5.6716-1.5 1.5S11.1716 9 12 9z"></path><path fill-rule="evenodd" clip-rule="evenodd" d="M4 4c0-1.1046.8954-2 2-2h12c1.1046 0 2 .8954 2 2v16c0 1.1046-.8954 2-2 2H6c-1.1046 0-2-.8954-2-2V4zm14 0H6v16h12V4z"></path></svg>