<svg viewBox="0 0 24 24" focusable="false" width="24" height="24" aria-hidden="true" class="svg-icon" xmlns="http://www.w3.org/2000/svg"><path d="M23 5.5C23 6.8807 21.8807 8 20.5 8S18 6.8807 18 5.5 19.1193 3 20.5 3 23 4.1193 23 5.5z" fill="rgb(var(--colour-semantic-positive, 10, 138, 0))"></path><path fill-rule="evenodd" clip-rule="evenodd" d="M16 6H5c-.5523 0-1 .4477-1 1v7c0 .5523.4477 1 1 1h3v3.5845L11.5817 15H19c.5523 0 1-.4477 1-1v-4h2v4c0 1.6569-1.3431 3-3 3h-6.5895l-3.9968 4H6v-4H5c-1.6568 0-3-1.3431-3-3V7c0-1.6569 1.3432-3 3-3h11v2z"></path></svg>