<svg viewBox="0 0 24 24" focusable="false" width="24" height="24" aria-hidden="true" class="svg-icon" xmlns="http://www.w3.org/2000/svg"><path fill-rule="evenodd" clip-rule="evenodd" d="M18.8276 15.1793c.634-.2015 1.1852-.4373 1.6613-.7042.8774-.4917 1.5178-1.0992 1.9344-1.8036.417-.7052.5767-1.4521.5767-2.1715s-.1597-1.4663-.5767-2.1715c-.4166-.7044-1.057-1.3119-1.9344-1.8036C18.7655 5.5589 16.0593 5 12 5c-4.0593 0-6.7655.559-8.489 1.5249-.8773.4917-1.5177 1.0992-1.9343 1.8036C1.1597 9.0337 1 9.7806 1 10.5s.1597 1.4663.5767 2.1715c.4166.7044 1.057 1.3119 1.9344 1.8036.4761.2669 1.0273.5027 1.6612.7042l1.0257 3.0769C8.05 18.9834 9.9969 19.5 12 19.5c2.0031 0 3.95-.5166 5.802-1.2438l1.0256-3.0769zM3.2983 9.3465C3.0903 9.6982 3 10.0823 3 10.5c0 .4177.0903.8018.2983 1.1535.2603.4403.768.9213 1.7017 1.3297V8.0168c-.9338.4084-1.4414.8894-1.7017 1.3297zM7 14.3377l.7956 2.3868c1.3472.4572 2.778.7755 4.2044.7755 1.4264 0 2.8572-.3183 4.2044-.7755L17 14.3377V7.4142C15.739 7.158 14.1043 7 12 7s-3.739.158-5 .4142v6.9235zm12-1.3545c.9338-.4084 1.4414-.8894 1.7017-1.3297.208-.3517.2983-.7358.2983-1.1535 0-.4177-.0903-.8018-.2983-1.1535-.2603-.4403-.7679-.9213-1.7017-1.3297v4.9664z"></path><path d="M8.3481 14.4157s.7088-1.6134.8036-1.8315C10.0823 12.8709 11.023 13 12 13c.9771 0 1.9177-.1291 2.8482-.4158.0948.2181.8036 1.8315.8036 1.8315C14.4652 14.8204 13.2568 15 12 15c-1.2568 0-2.4651-.1796-3.6518-.5843zm0-4.8314s.7088 1.6133.8036 1.8314C10.0823 11.129 11.023 11 12 11c.9771 0 1.9177.129 2.8482.4157.0948-.2181.8036-1.8314.8036-1.8314C14.4651 9.1796 13.2567 9 11.9999 9c-1.2568 0-2.4651.1796-3.6518.5843z"></path></svg>