<svg viewBox="0 0 24 24" focusable="false" width="24" height="24" aria-hidden="true" class="svg-icon" xmlns="http://www.w3.org/2000/svg"><path d="M13 22h-2v-3h2v3zm3.5-20C19.5376 2 22 4.4624 22 7.5V9h-2V7.5C20 5.567 18.433 4 16.5 4S13 5.567 13 7.5V15h-2V7.5C11 4.4624 13.4624 2 16.5 2z"></path><path d="M6.9756 13.8701c1.3093 1.3505 3.1517 2.1308 5.0317 2.1265 1.876-.0043 3.709-.7787 5.0161-2.1275L15.2002 12H20v4.9219l-1.5781-1.6182c-1.6784 1.7097-4.0145 2.6937-6.4121 2.6963-2.4094-.0343-4.7355-.9664-6.4327-2.6963L4 16.9219V12h4.7998l-1.8242 1.8701z"></path></svg>