<svg viewBox="0 0 24 24" focusable="false" width="24" height="24" aria-hidden="true" class="svg-icon" xmlns="http://www.w3.org/2000/svg"><path d="m13.1149 3.0713 3.8452-1.793-.6228 1.711a10.001 10.001 0 0 1 5.1775 5.9332 10.0003 10.0003 0 0 1-.8545 8.0773l-1.7321-1a7.9996 7.9996 0 0 0-.9722-9.341 7.9988 7.9988 0 0 0-2.307-1.7783l-.7411 2.036-1.793-3.8452zm-3.7031-.7308a10.0001 10.0001 0 0 0-6.072 14.6593l1.732-1A8 8 0 0 1 9.9294 4.2724l-.5176-1.9319z"></path><path fill-rule="evenodd" clip-rule="evenodd" d="M17.844 15.9759c0 .743-.1187 1.4669-.3306 2.3033.4428.6991.7978 1.7041.0691 2.3593-.7044.6335-1.7152.255-2.4376-.1327-1.2273.212-2.1777.3262-3.141.3262-.9637 0-1.906-.1143-3.1173-.3264-.7245.3823-1.7535.7719-2.4552.1222-.711-.6582-.3508-1.6477.0873-2.34-.2257-.8408-.3444-1.5652-.339-2.3115.0052-.7395.1321-1.4548.3426-2.2742-.4532-.7021-.8383-1.7222-.097-2.3888.7124-.6407 1.742-.238 2.4635.1546 1.213-.2253 2.1596-.3387 3.1265-.334.9626.0047 1.9108.1264 3.1215.3368.7201-.4003 1.7348-.7968 2.4457-.1574.7326.6587.3695 1.6728-.0692 2.3779.212.8241.3307 1.5416.3307 2.2847zm-2.4423 2.453c-1.1226.2016-2.2536.4031-3.3978.4031-1.133 0-2.2522-.2005-3.3632-.4029-.236-.7946-.467-1.6024-.4611-2.4386.0059-.8321.234-1.6412.4554-2.4371 1.1122-.2169 2.2331-.4251 3.3706-.4195 1.1431.0055 2.2734.2135 3.3949.4152.2236.7926.4435 1.597.4435 2.4268 0 .8376-.2202 1.6517-.4423 2.453z"></path></svg>