<svg viewBox="0 0 24 24" focusable="false" width="24" height="24" aria-hidden="true" class="svg-icon" xmlns="http://www.w3.org/2000/svg"><path d="m16.9601 1.2783-3.8452 1.793 1.793 3.8452.7411-2.036a7.9989 7.9989 0 0 1 4.3066 7.961 7.9996 7.9996 0 0 1-1.0274 3.1583l1.7321 1a10.001 10.001 0 0 0 .8545-8.0773 10.001 10.001 0 0 0-5.1775-5.9332l.6228-1.711zM9.4118 2.3405a10.0001 10.0001 0 0 0-6.072 14.6593l1.732-1A8 8 0 0 1 9.9294 4.2724l-.5176-1.9319z"></path><path d="M9 21.9998H7v-12h10v12h-2v-2H9v2zm0-4h6v-2H9v2zm0-6v2h6v-2H9z" fill-rule="evenodd" clip-rule="evenodd"></path></svg>