<svg viewBox="0 0 24 24" focusable="false" width="24" height="24" aria-hidden="true" class="svg-icon" xmlns="http://www.w3.org/2000/svg"><path d="M10 14.7598v.0091c-.6137.5493-1 1.3428-1 2.2313 0 1.6569 1.3431 3 3 3s3-1.3431 3-3c0-.8834-.3924-1.6823-1-2.2313v-.0091h-4z" fill="#5EC5ED"></path><path d="M8 1v13a4.9992 4.9992 0 0 0-1 3 5 5 0 1 0 9-3V1H8zm6 7.7662v-2h-3v-2h3V3h-4v11.7639A3.0008 3.0008 0 0 0 9 17a2.9994 2.9994 0 0 0 .8787 2.1213 2.9996 2.9996 0 0 0 3.2693.6503 2.9987 2.9987 0 0 0 1.6236-1.6235 2.9996 2.9996 0 0 0-.769-3.3819H11v-2h3v-2h-3v-2h3z" fill-rule="evenodd" clip-rule="evenodd"></path></svg>