<svg viewBox="0 0 24 24" focusable="false" width="24" height="24" aria-hidden="true" class="svg-icon" xmlns="http://www.w3.org/2000/svg"><path d="M21.249 4h-4.5v4.488l1.5072-1.5032c1.3181 1.5693 2.0316 3.5776 1.9932 5.6516-.0408 2.2007-.9249 4.2949-2.4591 5.844l1.4229 1.4017c1.8975-1.9158 2.9856-4.4998 3.0358-7.2088.0485-2.6123-.8719-5.1448-2.5742-7.1033L21.249 4zM3.7505 11.3209c-.0385 2.074.6751 4.0824 1.9932 5.6516l1.5072-1.5032v4.488h-4.5l1.5742-1.5699c-1.7023-1.9585-2.6227-4.4911-2.5743-7.1034.0503-2.709 1.1384-5.293 3.0358-7.2088l1.423 1.4017c-1.5343 1.5491-2.4183 3.6434-2.4591 5.844z"></path><path fill-rule="evenodd" clip-rule="evenodd" d="M15.5005 4.0428H9.5006l-.001 9.3298c-.6213.7025-.9996 1.6267-.9996 2.6382 0 2.2032 1.7909 3.9893 4 3.9893 2.2091 0 4-1.7861 4-3.9893 0-1.0114-.3783-1.9357-.9995-2.6382V4.0428zm-4.001 10.184.0009-8.1894h2.0001v2.2447h-1.0044v1.9946h1.0044v1.9614h-1.0044v1.9947h1.0111l.3262.2913c.4106.3666.6666.8962.6666 1.4867 0 1.1016-.8954 1.9946-2 1.9946s-2-.893-2-1.9946c0-.5905.256-1.1201.6666-1.4867l.3329-.2973z"></path></svg>