<svg viewBox="0 0 24 24" focusable="false" width="24" height="24" aria-hidden="true" class="svg-icon" xmlns="http://www.w3.org/2000/svg"><path d="M18.5 10.8943c.2761 0 .5-.221.5-.4936 0-.2726-.2239-.4936-.5-.4936h-7.5968l.4767-1.3189c.6475-1.7915 1.0569-3.7624 1.1008-3.9783.0579-.2785-.0778-.562-.3733-.626-.3304-.0716-.5486.2508-.6401.5277-.1372.415-1.1083 3.2607-2.825 5.081C7.1225 11.204 5.043 12.0668 3 12.2674V10.281c1.555-.1933 3.081-.87 4.1784-2.0337C8.5625 6.7797 9.4256 4.3237 9.566 3.8992c.4143-1.2534 1.6329-2.1335 2.9702-1.8438 1.3332.2889 2.1829 1.6129 1.9055 2.9428-.0368.181-.303 1.4677-.7442 2.9346H18.5c1.3807 0 2.5 1.1049 2.5 2.4679 0 .3086-.0574.604-.1622.8763.6986.4377 1.1622 1.208 1.1622 2.0852s-.4636 1.6476-1.1622 2.0852c.1048.2724.1622.5677.1622.8763 0 .8055-.3909 1.5209-.9956 1.9713-.0005.4817-.0204 1.4676-.7154 2.3138C18.5529 21.505 17.2816 22 15.3481 22c-2.3821 0-4.1343-.4033-6.9183-1.2465C5.8161 19.9618 4.4264 19.6026 3 19.566v-1.9748c1.7621.0378 3.4009.4825 6.0165 1.2748 2.716.8226 4.245 1.1597 6.3316 1.1597 1.6291 0 2.1859-.4151 2.3874-.6603.1329-.1619.2022-.3529.2368-.5737H16v-1.9744h2.5c.2761 0 .5-.221.5-.4936 0-.2726-.2239-.4935-.5-.4935H16v-1.9744h3.5c.2761 0 .5-.221.5-.4936 0-.2726-.2239-.4936-.5-.4936H16v-1.9743h2.5z"></path></svg>