<svg viewBox="0 0 24 24" focusable="false" width="24" height="24" aria-hidden="true" class="svg-icon" xmlns="http://www.w3.org/2000/svg"><path d="M2 4h17v12h3v2H11.2573c-.4218 1.3056-1.6472 2.25-3.0932 2.25S5.4926 19.3056 5.0708 18H2V4zm9.2573 12H17V6H4v10h1.0708c.4218-1.3056 1.6472-2.25 3.0933-2.25 1.446 0 2.6714.9444 3.0932 2.25zm-3.0932-.25c-.6904 0-1.25.5596-1.25 1.25s.5596 1.25 1.25 1.25c.6903 0 1.25-.5596 1.25-1.25s-.5597-1.25-1.25-1.25z" fill-rule="evenodd" clip-rule="evenodd"></path></svg>