<svg viewBox="0 0 24 24" focusable="false" width="24" height="24" aria-hidden="true" class="svg-icon" xmlns="http://www.w3.org/2000/svg"><path d="M15.6409 15.3479c.308-.56.462-1.1853.462-1.876v-6.468h-2.114v6.104c0 .5133-.07.938-.21 1.274-.1306.336-.3406.5833-.63.742-.2893.1587-.6673.238-1.134.238-.6626 0-1.162-.168-1.498-.504-.336-.336-.504-.9147-.504-1.736v-6.118h-2.114v6.44c0 1.1107.3454 2.0067 1.036 2.688.6907.672 1.6987 1.008 3.024 1.008.9334 0 1.7034-.1587 2.31-.476.616-.3267 1.0734-.7653 1.372-1.316zm1.8591 3.652h-11v1h11v-1z"></path></svg>