<svg viewBox="0 0 24 24" focusable="false" width="24" height="24" aria-hidden="true" class="svg-icon" xmlns="http://www.w3.org/2000/svg"><path fill-rule="evenodd" clip-rule="evenodd" d="M12 8c-2.7614 0-5 2.2386-5 5s2.2386 5 5 5 5-2.2386 5-5-2.2386-5-5-5zm-3 5c0-1.6569 1.3431-3 3-3 1.3062 0 2.4175.8348 2.8293 2H12v2h2.8293c-.4118 1.1652-1.5231 2-2.8293 2-1.6569 0-3-1.3431-3-3z"></path><path d="M14.5 5.5c0 .5523-.4477 1-1 1s-1-.4477-1-1 .4477-1 1-1 1 .4477 1 1zm2 1c.5523 0 1-.4477 1-1s-.4477-1-1-1-1 .4477-1 1 .4477 1 1 1z"></path><path fill-rule="evenodd" clip-rule="evenodd" d="M21 1.5H3v20h2v1h2v-1h10v1h2v-1h2v-20zm-16 18V7h5V3.5h9v16H5zM8 5H5V3.5h3V5z"></path></svg>