<svg viewBox="0 0 24 24" focusable="false" width="24" height="24" aria-hidden="true" class="svg-icon" xmlns="http://www.w3.org/2000/svg"><path fill-rule="evenodd" clip-rule="evenodd" d="M11 6.615V2h2v4.615c.3672-.3093.7645-.5635 1.1742-.7704 1.2523-.6324 2.6563-.8434 3.8258-.8445V3h2v3.0591c0 1.7893-.5874 3.4413-1.5798 4.7738.2506.0108.4867.0309.7038.0581l.876.1095v.8828c0 4.0796-3.0537 7.446-7 7.9381V22h-2v-2.1786c-3.9463-.4921-7-3.8585-7-7.9381v-.8828l.876-.1095a8.6997 8.6997 0 0 1 .7038-.0581C4.5874 9.5004 4 7.8484 4 6.0591V3h2v2.0001c1.1695.0011 2.5735.2121 3.8258.8445.4097.207.807.4611 1.1742.7703zm0 4.6942c0-1.0604-.2503-1.8277-.6092-2.3916-.3609-.567-.8682-.9855-1.4666-1.2877-.8906-.4497-1.943-.6199-2.8508-.6296.3166 2.0098 1.631 3.6882 3.4202 4.5119.0347.0152.0693.0307.1038.0466A5.9582 5.9582 0 0 0 11 11.9762v-.667zm0 5.8241c0-1.0604-.2503-1.8277-.6092-2.3916-.3609-.5671-.8682-.9855-1.4666-1.2877-.088-.0444-.1786-.0838-.268-.1251-.8289-.3567-1.7646-.4957-2.5828-.5045.4002 2.5404 2.3945 4.5511 4.9266 4.9759v-.667zm2 .667c2.5321-.4248 4.5264-2.4355 4.9266-4.9759-.8182.0088-1.7539.1478-2.5827.5045-.0895.0413-.1802.0807-.2681.1251-.5984.3022-1.1057.7206-1.4666 1.2877-.3585.5634-.6087 1.3297-.6092 2.3884v.6702zm1.4026-6.2415A5.9588 5.9588 0 0 1 13 11.9762v-.6695c.0004-1.0591.2506-1.8256.6092-2.3891.3609-.567.8682-.9855 1.4666-1.2877.8906-.4497 1.943-.6199 2.8508-.6296-.3166 2.0098-1.6311 3.6882-3.4202 4.5119a5.9894 5.9894 0 0 0-.1038.0466z"></path></svg>