<svg viewBox="0 0 24 24" focusable="false" width="24" height="24" aria-hidden="true" class="svg-icon" xmlns="http://www.w3.org/2000/svg"><path fill-rule="evenodd" clip-rule="evenodd" d="m21.9203 21.9203-1.4142 1.4142-4.5159-4.5159A7.9475 7.9475 0 0 1 13 19.8214V22h-2v-2.1786c-3.9463-.4921-7-3.8585-7-7.9382v-.8827c.5254-.0657 1.0504-.1449 1.5798-.1676a7.9578 7.9578 0 0 1-1.5393-3.964L.7072 3.5356l1.4142-1.4143 19.7989 19.799zM13 17.1301c.0002-.4424.044-.8337.1211-1.1806l1.3863 1.3863A5.9547 5.9547 0 0 1 13 17.8003v-.6702zm-2 .0032c0-1.0604-.2503-1.8277-.6092-2.3916-.3609-.5671-.8681-.9855-1.4665-1.2877-.8755-.4421-1.8768-.6192-2.8509-.6296.4002 2.5403 2.3945 4.5511 4.9266 4.9759v-.667z"></path><path d="M18.8487 16.0203C19.5794 14.8131 20 13.3973 20 11.8832v-.8827c-.5253-.0657-1.0503-.1449-1.5798-.1676C19.4127 9.5004 20 7.8484 20 6.0591V3h-2v2.0001c-1.1695.0011-2.5735.2121-3.8258.8445-.4097.207-.807.4611-1.1742.7703V2h-2v4.615c-.3672-.3093-.7645-.5635-1.1742-.7704-.5726-.2891-1.177-.4902-1.7762-.6234l5.043 5.0429c.1039-.5465.2883-.9877.5167-1.3465.3609-.567.8681-.9855 1.4665-1.2877.8906-.4497 1.943-.6199 2.8508-.6296A5.9643 5.9643 0 0 1 17 9.377a6.0335 6.0335 0 0 1-1.5956 1.6235 5.9964 5.9964 0 0 1-1.0125.563l1.5494 1.5494c.6635-.1987 1.3589-.2818 1.9853-.2885a5.9565 5.9565 0 0 1-.5496 1.7242l1.4717 1.4717z"></path></svg>