<svg viewBox="0 0 24 24" focusable="false" width="24" height="24" aria-hidden="true" class="svg-icon" xmlns="http://www.w3.org/2000/svg"><path d="M12.5 18c1.3807 0 2.5-1.1193 2.5-2.5S13.8807 13 12.5 13 10 14.1193 10 15.5s1.1193 2.5 2.5 2.5z"></path><path fill-rule="evenodd" clip-rule="evenodd" d="M2 2v2h4v11.5c0 3.5899 2.9101 6.5 6.5 6.5s6.5-2.9101 6.5-6.5S16.0899 9 12.5 9a6.593 6.593 0 0 0-.5.019V4h10V2H2zm8 2H8v6.8096a6.5069 6.5069 0 0 1 2-1.3114V4zm2.5 16c2.4853 0 4.5-2.0147 4.5-4.5S14.9853 11 12.5 11 8 13.0147 8 15.5s2.0147 4.5 4.5 4.5z"></path></svg>