<svg viewBox="0 0 24 24" focusable="false" width="24" height="24" aria-hidden="true" class="svg-icon" xmlns="http://www.w3.org/2000/svg"><path d="M13.7168 2h-3.4339c-.5411 1.627-1.027 3.268-1.027 5 0 1.017.1493 2.0179.4328 3.0936a2.9993 2.9993 0 0 0-.4925.8539c-1.0711.2917-2.0104.6625-2.8891 1.1709-1.4975.8665-2.6722 2.1088-3.8071 3.3915l1.717 2.9804c1.6765-.3439 3.3376-.7428 4.834-1.6087.6562-.3797 1.263-.827 1.8562-1.3556L10.5035 22h2.9934l-.4037-6.4737c.5931.5284 1.1997.9757 1.8556 1.3552 1.4965.8659 3.1577 1.2648 4.8342 1.6086l1.717-2.9804c-1.1349-1.2826-2.3097-2.5248-3.8072-3.3913-.8785-.5084-1.8177-.8791-2.8886-1.1709a2.996 2.996 0 0 0-.493-.8544c.2835-1.0755.4327-2.0762.4327-3.0931 0-1.732-.4859-3.373-1.0271-5zm-1.2046 7.0437c.1601-.728.2361-1.3911.2361-2.0437 0-.9269-.1534-1.875-.4829-3h-.531c-.3294 1.125-.4828 2.0731-.4828 3 0 .6526.076 1.3158.236 2.0438a3.0624 3.0624 0 0 1 1.0246 0zm1.7861 4.8788a2.9969 2.9969 0 0 0 .5129-.889c.709.2252 1.32.4907 1.8838.8169.8009.4635 1.5435 1.0707 2.351 1.9191l-.2655.4609c-1.1369-.2766-2.0329-.6175-2.8339-1.0809-.564-.3264-1.0991-.724-1.6483-1.227zm-5.1092-.889a2.998 2.998 0 0 0 .5128.8888c-.5493.5031-1.0845.9008-1.6486 1.2272-.801.4635-1.697.8043-2.8338 1.081l-.2655-.4609c.8075-.8485 1.55-1.4557 2.351-1.9191.5639-.3263 1.175-.5919 1.8841-.817zM12.998 12c0 .5523-.4467 1-.9978 1s-.9978-.4477-.9978-1 .4467-1 .9978-1 .9978.4477.9978 1z" fill-rule="evenodd" clip-rule="evenodd"></path></svg>